<?xml version="1.0" encoding="utf-8" standalone="no"?>
<!DOCTYPE svg PUBLIC "-//W3C//DTD SVG 1.1//EN"
  "http://www.w3.org/Graphics/SVG/1.1/DTD/svg11.dtd">
<svg height="401.755956pt" version="1.1" viewBox="0 0 649.019312 401.755956" width="649.019312pt" xmlns="http://www.w3.org/2000/svg" xmlns:xlink="http://www.w3.org/1999/xlink">
 <metadata>
  <rdf:RDF xmlns:cc="http://creativecommons.org/ns#" xmlns:dc="http://purl.org/dc/elements/1.1/" xmlns:rdf="http://www.w3.org/1999/02/22-rdf-syntax-ns#">
   <cc:Work>
    <dc:type rdf:resource="http://purl.org/dc/dcmitype/StillImage"/>
    <dc:date>2021-11-08T19:53:08.953072</dc:date>
    <dc:format>image/svg+xml</dc:format>
    <dc:creator>
     <cc:Agent>
      <dc:title>Matplotlib v3.4.2, https://matplotlib.org/</dc:title>
     </cc:Agent>
    </dc:creator>
   </cc:Work>
  </rdf:RDF>
 </metadata>
 <defs>
  <style type="text/css">*{stroke-linecap:butt;stroke-linejoin:round;}</style>
 </defs>
 <g id="figure_1">
  <g id="patch_1">
   <path d="M 0 401.755956 
L 649.019312 401.755956 
L 649.019312 0 
L 0 0 
z
" style="fill:#ffffff;"/>
  </g>
  <g id="axes_1">
   <g id="patch_2">
    <path d="M 46.784375 362.964706 
L 529.184375 362.964706 
L 529.184375 7.2 
L 46.784375 7.2 
z
" style="fill:#ffffff;"/>
   </g>
   <g id="matplotlib.axis_1">
    <g id="xtick_1">
     <g id="line2d_1">
      <path clip-path="url(#p53ca731883)" d="M 68.711648 362.964706 
L 68.711648 7.2 
" style="fill:none;stroke:#b0b0b0;stroke-linecap:square;stroke-width:0.8;"/>
     </g>
     <g id="line2d_2">
      <defs>
       <path d="M 0 0 
L 0 3.5 
" id="m39ff637f9a" style="stroke:#000000;stroke-width:0.8;"/>
      </defs>
      <g>
       <use style="stroke:#000000;stroke-width:0.8;" x="68.711648" xlink:href="#m39ff637f9a" y="362.964706"/>
      </g>
     </g>
     <g id="text_1">
      <!-- 1 -->
      <g transform="translate(65.670398 378.126581)scale(0.12 -0.12)">
       <defs>
        <path d="M 2897 213 
Q 2897 153 2887 112 
Q 2878 72 2862 47 
Q 2847 22 2826 11 
Q 2806 0 2784 0 
L 672 0 
Q 650 0 631 11 
Q 613 22 595 47 
Q 578 72 568 112 
Q 559 153 559 213 
Q 559 269 568 309 
Q 578 350 592 376 
Q 606 403 626 417 
Q 647 431 672 431 
L 1516 431 
L 1516 3506 
L 734 3041 
Q 675 3009 639 3003 
Q 603 2997 581 3017 
Q 559 3038 551 3084 
Q 544 3131 544 3203 
Q 544 3256 548 3293 
Q 553 3331 562 3356 
Q 572 3381 589 3400 
Q 606 3419 634 3438 
L 1566 4034 
Q 1578 4044 1597 4050 
Q 1616 4056 1644 4062 
Q 1672 4069 1709 4070 
Q 1747 4072 1803 4072 
Q 1878 4072 1928 4065 
Q 1978 4059 2006 4048 
Q 2034 4038 2043 4020 
Q 2053 4003 2053 3984 
L 2053 431 
L 2784 431 
Q 2809 431 2831 417 
Q 2853 403 2867 376 
Q 2881 350 2889 309 
Q 2897 269 2897 213 
z
" id="Calibri-31" transform="scale(0.015625)"/>
       </defs>
       <use xlink:href="#Calibri-31"/>
      </g>
     </g>
    </g>
    <g id="xtick_2">
     <g id="line2d_3">
      <path clip-path="url(#p53ca731883)" d="M 123.52983 362.964706 
L 123.52983 7.2 
" style="fill:none;stroke:#b0b0b0;stroke-linecap:square;stroke-width:0.8;"/>
     </g>
     <g id="line2d_4">
      <g>
       <use style="stroke:#000000;stroke-width:0.8;" x="123.52983" xlink:href="#m39ff637f9a" y="362.964706"/>
      </g>
     </g>
     <g id="text_2">
      <!-- 2 -->
      <g transform="translate(120.48858 378.126581)scale(0.12 -0.12)">
       <defs>
        <path d="M 2888 231 
Q 2888 175 2880 131 
Q 2872 88 2858 58 
Q 2844 28 2820 14 
Q 2797 0 2769 0 
L 534 0 
Q 491 0 458 11 
Q 425 22 401 47 
Q 378 72 367 119 
Q 356 166 356 234 
Q 356 297 361 344 
Q 366 391 381 427 
Q 397 463 420 498 
Q 444 534 481 575 
L 1266 1406 
Q 1538 1694 1702 1922 
Q 1866 2150 1955 2337 
Q 2044 2525 2072 2678 
Q 2100 2831 2100 2966 
Q 2100 3100 2056 3220 
Q 2013 3341 1930 3431 
Q 1847 3522 1722 3575 
Q 1597 3628 1434 3628 
Q 1244 3628 1092 3575 
Q 941 3522 827 3459 
Q 713 3397 636 3344 
Q 559 3291 522 3291 
Q 500 3291 483 3303 
Q 466 3316 455 3344 
Q 444 3372 437 3419 
Q 431 3466 431 3531 
Q 431 3578 434 3612 
Q 438 3647 445 3672 
Q 453 3697 465 3719 
Q 478 3741 515 3773 
Q 553 3806 645 3862 
Q 738 3919 877 3973 
Q 1016 4028 1183 4065 
Q 1350 4103 1534 4103 
Q 1828 4103 2048 4020 
Q 2269 3938 2414 3794 
Q 2559 3650 2631 3459 
Q 2703 3269 2703 3053 
Q 2703 2859 2668 2667 
Q 2634 2475 2523 2251 
Q 2413 2028 2203 1754 
Q 1994 1481 1647 1125 
L 1006 456 
L 2766 456 
Q 2791 456 2814 442 
Q 2838 428 2855 400 
Q 2872 372 2880 330 
Q 2888 288 2888 231 
z
" id="Calibri-32" transform="scale(0.015625)"/>
       </defs>
       <use xlink:href="#Calibri-32"/>
      </g>
     </g>
    </g>
    <g id="xtick_3">
     <g id="line2d_5">
      <path clip-path="url(#p53ca731883)" d="M 178.348011 362.964706 
L 178.348011 7.2 
" style="fill:none;stroke:#b0b0b0;stroke-linecap:square;stroke-width:0.8;"/>
     </g>
     <g id="line2d_6">
      <g>
       <use style="stroke:#000000;stroke-width:0.8;" x="178.348011" xlink:href="#m39ff637f9a" y="362.964706"/>
      </g>
     </g>
     <g id="text_3">
      <!-- 5 -->
      <g transform="translate(175.306761 378.126581)scale(0.12 -0.12)">
       <defs>
        <path d="M 2869 1300 
Q 2869 975 2759 722 
Q 2650 469 2450 295 
Q 2250 122 1973 31 
Q 1697 -59 1359 -59 
Q 1172 -59 1003 -32 
Q 834 -6 703 33 
Q 572 72 487 109 
Q 403 147 379 169 
Q 356 191 347 209 
Q 338 228 330 254 
Q 322 281 319 322 
Q 316 363 316 419 
Q 316 472 320 514 
Q 325 556 337 582 
Q 350 609 367 621 
Q 384 634 406 634 
Q 438 634 503 595 
Q 569 556 680 511 
Q 791 466 955 425 
Q 1119 384 1344 384 
Q 1553 384 1728 434 
Q 1903 484 2029 590 
Q 2156 697 2228 858 
Q 2300 1019 2300 1250 
Q 2300 1444 2239 1592 
Q 2178 1741 2051 1839 
Q 1925 1938 1731 1986 
Q 1538 2034 1269 2034 
Q 1078 2034 940 2015 
Q 803 1997 684 1997 
Q 597 1997 559 2037 
Q 522 2078 522 2194 
L 522 3841 
Q 522 3944 570 3994 
Q 619 4044 709 4044 
L 2500 4044 
Q 2525 4044 2548 4030 
Q 2572 4016 2587 3987 
Q 2603 3959 2611 3915 
Q 2619 3872 2619 3813 
Q 2619 3700 2587 3637 
Q 2556 3575 2500 3575 
L 991 3575 
L 991 2441 
Q 1100 2456 1214 2459 
Q 1328 2463 1478 2463 
Q 1825 2463 2084 2380 
Q 2344 2297 2517 2145 
Q 2691 1994 2780 1778 
Q 2869 1563 2869 1300 
z
" id="Calibri-35" transform="scale(0.015625)"/>
       </defs>
       <use xlink:href="#Calibri-35"/>
      </g>
     </g>
    </g>
    <g id="xtick_4">
     <g id="line2d_7">
      <path clip-path="url(#p53ca731883)" d="M 233.166193 362.964706 
L 233.166193 7.2 
" style="fill:none;stroke:#b0b0b0;stroke-linecap:square;stroke-width:0.8;"/>
     </g>
     <g id="line2d_8">
      <g>
       <use style="stroke:#000000;stroke-width:0.8;" x="233.166193" xlink:href="#m39ff637f9a" y="362.964706"/>
      </g>
     </g>
     <g id="text_4">
      <!-- 6 -->
      <g transform="translate(230.124943 378.126581)scale(0.12 -0.12)">
       <defs>
        <path d="M 2991 1309 
Q 2991 1044 2909 795 
Q 2828 547 2659 358 
Q 2491 169 2231 55 
Q 1972 -59 1619 -59 
Q 1366 -59 1172 3 
Q 978 66 834 181 
Q 691 297 595 465 
Q 500 634 442 850 
Q 384 1066 359 1322 
Q 334 1578 334 1872 
Q 334 2131 362 2397 
Q 391 2663 462 2909 
Q 534 3156 657 3373 
Q 781 3591 967 3752 
Q 1153 3913 1412 4006 
Q 1672 4100 2016 4100 
Q 2131 4100 2250 4086 
Q 2369 4072 2469 4048 
Q 2569 4025 2637 3997 
Q 2706 3969 2728 3951 
Q 2750 3934 2761 3914 
Q 2772 3894 2778 3870 
Q 2784 3847 2787 3817 
Q 2791 3788 2791 3744 
Q 2791 3688 2789 3647 
Q 2788 3606 2777 3581 
Q 2766 3556 2748 3543 
Q 2731 3531 2703 3531 
Q 2669 3531 2609 3553 
Q 2550 3575 2465 3601 
Q 2381 3628 2261 3650 
Q 2141 3672 1981 3672 
Q 1691 3672 1481 3553 
Q 1272 3434 1139 3234 
Q 1006 3034 942 2770 
Q 878 2506 869 2219 
Q 950 2266 1051 2312 
Q 1153 2359 1273 2396 
Q 1394 2434 1528 2457 
Q 1663 2481 1816 2481 
Q 2144 2481 2369 2392 
Q 2594 2303 2733 2145 
Q 2872 1988 2931 1773 
Q 2991 1559 2991 1309 
z
M 2447 1259 
Q 2447 1441 2411 1589 
Q 2375 1738 2290 1841 
Q 2206 1944 2065 2000 
Q 1925 2056 1719 2056 
Q 1603 2056 1487 2036 
Q 1372 2016 1264 1980 
Q 1156 1944 1057 1895 
Q 959 1847 878 1791 
Q 878 1388 929 1116 
Q 981 844 1079 680 
Q 1178 516 1325 445 
Q 1472 375 1669 375 
Q 1869 375 2016 450 
Q 2163 525 2259 651 
Q 2356 778 2401 936 
Q 2447 1094 2447 1259 
z
" id="Calibri-36" transform="scale(0.015625)"/>
       </defs>
       <use xlink:href="#Calibri-36"/>
      </g>
     </g>
    </g>
    <g id="xtick_5">
     <g id="line2d_9">
      <path clip-path="url(#p53ca731883)" d="M 287.984375 362.964706 
L 287.984375 7.2 
" style="fill:none;stroke:#b0b0b0;stroke-linecap:square;stroke-width:0.8;"/>
     </g>
     <g id="line2d_10">
      <g>
       <use style="stroke:#000000;stroke-width:0.8;" x="287.984375" xlink:href="#m39ff637f9a" y="362.964706"/>
      </g>
     </g>
     <g id="text_5">
      <!-- 8 -->
      <g transform="translate(284.943125 378.126581)scale(0.12 -0.12)">
       <defs>
        <path d="M 2981 1038 
Q 2981 775 2887 570 
Q 2794 366 2617 225 
Q 2441 84 2181 12 
Q 1922 -59 1588 -59 
Q 1275 -59 1028 6 
Q 781 72 609 200 
Q 438 328 347 515 
Q 256 703 256 944 
Q 256 1134 318 1293 
Q 381 1453 498 1587 
Q 616 1722 787 1839 
Q 959 1956 1175 2063 
Q 988 2159 844 2267 
Q 700 2375 600 2501 
Q 500 2628 448 2772 
Q 397 2916 397 3084 
Q 397 3297 473 3483 
Q 550 3669 704 3806 
Q 859 3944 1098 4023 
Q 1338 4103 1656 4103 
Q 1963 4103 2186 4029 
Q 2409 3956 2554 3829 
Q 2700 3703 2769 3531 
Q 2838 3359 2838 3163 
Q 2838 3003 2786 2856 
Q 2734 2709 2634 2578 
Q 2534 2447 2389 2333 
Q 2244 2219 2056 2119 
Q 2278 2009 2451 1893 
Q 2625 1778 2742 1645 
Q 2859 1513 2920 1364 
Q 2981 1216 2981 1038 
z
M 2306 3113 
Q 2306 3244 2261 3350 
Q 2216 3456 2128 3531 
Q 2041 3606 1911 3645 
Q 1781 3684 1616 3684 
Q 1278 3684 1104 3531 
Q 931 3378 931 3113 
Q 931 2991 973 2886 
Q 1016 2781 1105 2687 
Q 1194 2594 1330 2505 
Q 1466 2416 1653 2319 
Q 1969 2481 2137 2678 
Q 2306 2875 2306 3113 
z
M 2438 981 
Q 2438 1125 2384 1242 
Q 2331 1359 2223 1461 
Q 2116 1563 1955 1658 
Q 1794 1753 1581 1856 
Q 1384 1759 1236 1662 
Q 1088 1566 992 1462 
Q 897 1359 848 1245 
Q 800 1131 800 994 
Q 800 691 1008 525 
Q 1216 359 1628 359 
Q 2028 359 2233 526 
Q 2438 694 2438 981 
z
" id="Calibri-38" transform="scale(0.015625)"/>
       </defs>
       <use xlink:href="#Calibri-38"/>
      </g>
     </g>
    </g>
    <g id="xtick_6">
     <g id="line2d_11">
      <path clip-path="url(#p53ca731883)" d="M 342.802557 362.964706 
L 342.802557 7.2 
" style="fill:none;stroke:#b0b0b0;stroke-linecap:square;stroke-width:0.8;"/>
     </g>
     <g id="line2d_12">
      <g>
       <use style="stroke:#000000;stroke-width:0.8;" x="342.802557" xlink:href="#m39ff637f9a" y="362.964706"/>
      </g>
     </g>
     <g id="text_6">
      <!-- 10 -->
      <g transform="translate(336.720057 378.126581)scale(0.12 -0.12)">
       <defs>
        <path d="M 3022 2031 
Q 3022 1566 2948 1181 
Q 2875 797 2704 520 
Q 2534 244 2259 92 
Q 1984 -59 1581 -59 
Q 1200 -59 939 77 
Q 678 213 518 477 
Q 359 741 292 1127 
Q 225 1513 225 2013 
Q 225 2475 300 2861 
Q 375 3247 544 3523 
Q 713 3800 988 3951 
Q 1263 4103 1663 4103 
Q 2047 4103 2308 3967 
Q 2569 3831 2728 3567 
Q 2888 3303 2955 2917 
Q 3022 2531 3022 2031 
z
M 2472 1994 
Q 2472 2297 2450 2537 
Q 2428 2778 2386 2962 
Q 2344 3147 2276 3280 
Q 2209 3413 2115 3498 
Q 2022 3584 1901 3623 
Q 1781 3663 1631 3663 
Q 1366 3663 1200 3538 
Q 1034 3413 939 3194 
Q 844 2975 809 2681 
Q 775 2388 775 2050 
Q 775 1597 822 1280 
Q 869 963 970 763 
Q 1072 563 1230 472 
Q 1388 381 1613 381 
Q 1788 381 1920 437 
Q 2053 494 2148 598 
Q 2244 703 2306 850 
Q 2369 997 2406 1175 
Q 2444 1353 2458 1561 
Q 2472 1769 2472 1994 
z
" id="Calibri-30" transform="scale(0.015625)"/>
       </defs>
       <use xlink:href="#Calibri-31"/>
       <use x="50.683594" xlink:href="#Calibri-30"/>
      </g>
     </g>
    </g>
    <g id="xtick_7">
     <g id="line2d_13">
      <path clip-path="url(#p53ca731883)" d="M 397.620739 362.964706 
L 397.620739 7.2 
" style="fill:none;stroke:#b0b0b0;stroke-linecap:square;stroke-width:0.8;"/>
     </g>
     <g id="line2d_14">
      <g>
       <use style="stroke:#000000;stroke-width:0.8;" x="397.620739" xlink:href="#m39ff637f9a" y="362.964706"/>
      </g>
     </g>
     <g id="text_7">
      <!-- 14 -->
      <g transform="translate(391.538239 378.126581)scale(0.12 -0.12)">
       <defs>
        <path d="M 3059 1150 
Q 3059 1047 3028 987 
Q 2997 928 2941 928 
L 2484 928 
L 2484 78 
Q 2484 53 2471 36 
Q 2459 19 2428 6 
Q 2397 -6 2347 -12 
Q 2297 -19 2219 -19 
Q 2144 -19 2094 -12 
Q 2044 -6 2014 6 
Q 1984 19 1973 36 
Q 1963 53 1963 78 
L 1963 928 
L 294 928 
Q 256 928 231 937 
Q 206 947 186 972 
Q 166 997 158 1044 
Q 150 1091 150 1166 
Q 150 1225 153 1272 
Q 156 1319 165 1358 
Q 175 1397 190 1433 
Q 206 1469 228 1509 
L 1684 3966 
Q 1700 3991 1729 4009 
Q 1759 4028 1806 4040 
Q 1853 4053 1922 4058 
Q 1991 4063 2084 4063 
Q 2188 4063 2264 4055 
Q 2341 4047 2387 4034 
Q 2434 4022 2459 4001 
Q 2484 3981 2484 3953 
L 2484 1372 
L 2941 1372 
Q 2994 1372 3026 1317 
Q 3059 1263 3059 1150 
z
M 1963 3591 
L 1956 3591 
L 641 1372 
L 1963 1372 
L 1963 3591 
z
" id="Calibri-34" transform="scale(0.015625)"/>
       </defs>
       <use xlink:href="#Calibri-31"/>
       <use x="50.683594" xlink:href="#Calibri-34"/>
      </g>
     </g>
    </g>
    <g id="xtick_8">
     <g id="line2d_15">
      <path clip-path="url(#p53ca731883)" d="M 452.43892 362.964706 
L 452.43892 7.2 
" style="fill:none;stroke:#b0b0b0;stroke-linecap:square;stroke-width:0.8;"/>
     </g>
     <g id="line2d_16">
      <g>
       <use style="stroke:#000000;stroke-width:0.8;" x="452.43892" xlink:href="#m39ff637f9a" y="362.964706"/>
      </g>
     </g>
     <g id="text_8">
      <!-- 18 -->
      <g transform="translate(446.35642 378.126581)scale(0.12 -0.12)">
       <use xlink:href="#Calibri-31"/>
       <use x="50.683594" xlink:href="#Calibri-38"/>
      </g>
     </g>
    </g>
    <g id="xtick_9">
     <g id="line2d_17">
      <path clip-path="url(#p53ca731883)" d="M 507.257102 362.964706 
L 507.257102 7.2 
" style="fill:none;stroke:#b0b0b0;stroke-linecap:square;stroke-width:0.8;"/>
     </g>
     <g id="line2d_18">
      <g>
       <use style="stroke:#000000;stroke-width:0.8;" x="507.257102" xlink:href="#m39ff637f9a" y="362.964706"/>
      </g>
     </g>
     <g id="text_9">
      <!-- 22 -->
      <g transform="translate(501.174602 378.126581)scale(0.12 -0.12)">
       <use xlink:href="#Calibri-32"/>
       <use x="50.683594" xlink:href="#Calibri-32"/>
      </g>
     </g>
    </g>
    <g id="text_10">
     <!-- cumulative reward -->
     <g transform="translate(242.173438 392.422206)scale(0.12 -0.12)">
      <defs>
       <path d="M 2500 506 
Q 2500 453 2497 414 
Q 2494 375 2486 348 
Q 2478 322 2467 301 
Q 2456 281 2417 242 
Q 2378 203 2284 145 
Q 2191 88 2073 42 
Q 1956 -3 1818 -31 
Q 1681 -59 1534 -59 
Q 1231 -59 997 41 
Q 763 141 605 333 
Q 447 525 364 804 
Q 281 1084 281 1450 
Q 281 1866 382 2164 
Q 484 2463 661 2653 
Q 838 2844 1077 2936 
Q 1316 3028 1594 3028 
Q 1728 3028 1854 3003 
Q 1981 2978 2087 2937 
Q 2194 2897 2276 2844 
Q 2359 2791 2396 2753 
Q 2434 2716 2448 2694 
Q 2463 2672 2472 2642 
Q 2481 2613 2484 2575 
Q 2488 2538 2488 2481 
Q 2488 2359 2459 2311 
Q 2431 2263 2391 2263 
Q 2344 2263 2283 2314 
Q 2222 2366 2128 2428 
Q 2034 2491 1901 2542 
Q 1769 2594 1588 2594 
Q 1216 2594 1017 2308 
Q 819 2022 819 1478 
Q 819 1206 870 1001 
Q 922 797 1022 659 
Q 1122 522 1267 455 
Q 1413 388 1600 388 
Q 1778 388 1912 444 
Q 2047 500 2145 567 
Q 2244 634 2311 689 
Q 2378 744 2416 744 
Q 2438 744 2453 731 
Q 2469 719 2480 689 
Q 2491 659 2495 614 
Q 2500 569 2500 506 
z
" id="Calibri-63" transform="scale(0.015625)"/>
       <path d="M 2888 78 
Q 2888 53 2877 36 
Q 2866 19 2837 6 
Q 2809 -6 2764 -12 
Q 2719 -19 2653 -19 
Q 2581 -19 2536 -12 
Q 2491 -6 2464 6 
Q 2438 19 2428 36 
Q 2419 53 2419 78 
L 2419 450 
Q 2178 184 1943 62 
Q 1709 -59 1469 -59 
Q 1188 -59 995 34 
Q 803 128 684 289 
Q 566 450 514 664 
Q 463 878 463 1184 
L 463 2891 
Q 463 2916 473 2933 
Q 484 2950 515 2964 
Q 547 2978 597 2983 
Q 647 2988 722 2988 
Q 797 2988 847 2983 
Q 897 2978 926 2964 
Q 956 2950 968 2933 
Q 981 2916 981 2891 
L 981 1253 
Q 981 1006 1017 857 
Q 1053 709 1126 604 
Q 1200 500 1312 442 
Q 1425 384 1575 384 
Q 1769 384 1961 521 
Q 2153 659 2369 925 
L 2369 2891 
Q 2369 2916 2380 2933 
Q 2391 2950 2422 2964 
Q 2453 2978 2501 2983 
Q 2550 2988 2628 2988 
Q 2703 2988 2753 2983 
Q 2803 2978 2831 2964 
Q 2859 2950 2873 2933 
Q 2888 2916 2888 2891 
L 2888 78 
z
" id="Calibri-75" transform="scale(0.015625)"/>
       <path d="M 4650 78 
Q 4650 53 4637 36 
Q 4625 19 4597 6 
Q 4569 -6 4519 -12 
Q 4469 -19 4394 -19 
Q 4316 -19 4266 -12 
Q 4216 -6 4186 6 
Q 4156 19 4143 36 
Q 4131 53 4131 78 
L 4131 1788 
Q 4131 1966 4100 2112 
Q 4069 2259 4000 2365 
Q 3931 2472 3825 2528 
Q 3719 2584 3575 2584 
Q 3397 2584 3217 2446 
Q 3038 2309 2822 2044 
L 2822 78 
Q 2822 53 2809 36 
Q 2797 19 2767 6 
Q 2738 -6 2688 -12 
Q 2638 -19 2563 -19 
Q 2491 -19 2439 -12 
Q 2388 -6 2358 6 
Q 2328 19 2317 36 
Q 2306 53 2306 78 
L 2306 1788 
Q 2306 1966 2272 2112 
Q 2238 2259 2169 2365 
Q 2100 2472 1995 2528 
Q 1891 2584 1747 2584 
Q 1569 2584 1387 2446 
Q 1206 2309 994 2044 
L 994 78 
Q 994 53 981 36 
Q 969 19 941 6 
Q 913 -6 863 -12 
Q 813 -19 734 -19 
Q 659 -19 609 -12 
Q 559 -6 529 6 
Q 500 19 489 36 
Q 478 53 478 78 
L 478 2891 
Q 478 2916 487 2933 
Q 497 2950 525 2964 
Q 553 2978 597 2983 
Q 641 2988 713 2988 
Q 781 2988 826 2983 
Q 872 2978 897 2964 
Q 922 2950 933 2933 
Q 944 2916 944 2891 
L 944 2519 
Q 1181 2784 1404 2907 
Q 1628 3031 1856 3031 
Q 2031 3031 2170 2990 
Q 2309 2950 2415 2876 
Q 2522 2803 2597 2701 
Q 2672 2600 2722 2475 
Q 2863 2628 2989 2734 
Q 3116 2841 3233 2906 
Q 3350 2972 3461 3001 
Q 3572 3031 3684 3031 
Q 3956 3031 4140 2936 
Q 4325 2841 4439 2681 
Q 4553 2522 4601 2308 
Q 4650 2094 4650 1856 
L 4650 78 
z
" id="Calibri-6d" transform="scale(0.015625)"/>
       <path d="M 994 78 
Q 994 53 981 36 
Q 969 19 941 6 
Q 913 -6 863 -12 
Q 813 -19 734 -19 
Q 659 -19 609 -12 
Q 559 -6 529 6 
Q 500 19 489 36 
Q 478 53 478 78 
L 478 4253 
Q 478 4278 489 4297 
Q 500 4316 529 4328 
Q 559 4341 609 4347 
Q 659 4353 734 4353 
Q 813 4353 863 4347 
Q 913 4341 941 4328 
Q 969 4316 981 4297 
Q 994 4278 994 4253 
L 994 78 
z
" id="Calibri-6c" transform="scale(0.015625)"/>
       <path d="M 2597 75 
Q 2597 38 2572 19 
Q 2547 0 2503 -9 
Q 2459 -19 2375 -19 
Q 2294 -19 2245 -9 
Q 2197 0 2175 19 
Q 2153 38 2153 75 
L 2153 356 
Q 1969 159 1742 50 
Q 1516 -59 1263 -59 
Q 1041 -59 861 -1 
Q 681 56 554 165 
Q 428 275 358 434 
Q 288 594 288 797 
Q 288 1034 384 1209 
Q 481 1384 662 1500 
Q 844 1616 1106 1673 
Q 1369 1731 1697 1731 
L 2084 1731 
L 2084 1950 
Q 2084 2113 2050 2238 
Q 2016 2363 1939 2445 
Q 1863 2528 1741 2570 
Q 1619 2613 1441 2613 
Q 1250 2613 1098 2567 
Q 947 2522 833 2467 
Q 719 2413 642 2367 
Q 566 2322 528 2322 
Q 503 2322 484 2334 
Q 466 2347 452 2372 
Q 438 2397 431 2436 
Q 425 2475 425 2522 
Q 425 2600 436 2645 
Q 447 2691 489 2731 
Q 531 2772 634 2826 
Q 738 2881 872 2926 
Q 1006 2972 1165 3001 
Q 1325 3031 1488 3031 
Q 1791 3031 2003 2962 
Q 2216 2894 2347 2761 
Q 2478 2628 2537 2431 
Q 2597 2234 2597 1972 
L 2597 75 
z
M 2084 1359 
L 1644 1359 
Q 1431 1359 1275 1323 
Q 1119 1288 1016 1217 
Q 913 1147 864 1048 
Q 816 950 816 822 
Q 816 603 955 473 
Q 1094 344 1344 344 
Q 1547 344 1720 447 
Q 1894 550 2084 763 
L 2084 1359 
z
" id="Calibri-61" transform="scale(0.015625)"/>
       <path d="M 1941 284 
Q 1941 194 1928 141 
Q 1916 88 1891 63 
Q 1866 38 1816 16 
Q 1766 -6 1702 -20 
Q 1638 -34 1566 -43 
Q 1494 -53 1422 -53 
Q 1203 -53 1047 5 
Q 891 63 791 180 
Q 691 297 645 476 
Q 600 656 600 900 
L 600 2544 
L 206 2544 
Q 159 2544 131 2594 
Q 103 2644 103 2756 
Q 103 2816 111 2856 
Q 119 2897 131 2923 
Q 144 2950 164 2961 
Q 184 2972 209 2972 
L 600 2972 
L 600 3641 
Q 600 3663 611 3681 
Q 622 3700 651 3714 
Q 681 3728 731 3734 
Q 781 3741 856 3741 
Q 934 3741 984 3734 
Q 1034 3728 1062 3714 
Q 1091 3700 1103 3681 
Q 1116 3663 1116 3641 
L 1116 2972 
L 1838 2972 
Q 1863 2972 1881 2961 
Q 1900 2950 1914 2923 
Q 1928 2897 1934 2856 
Q 1941 2816 1941 2756 
Q 1941 2644 1912 2594 
Q 1884 2544 1838 2544 
L 1116 2544 
L 1116 975 
Q 1116 684 1202 536 
Q 1288 388 1509 388 
Q 1581 388 1637 402 
Q 1694 416 1737 431 
Q 1781 447 1812 461 
Q 1844 475 1869 475 
Q 1884 475 1898 467 
Q 1913 459 1920 437 
Q 1928 416 1934 378 
Q 1941 341 1941 284 
z
" id="Calibri-74" transform="scale(0.015625)"/>
       <path d="M 994 78 
Q 994 53 981 36 
Q 969 19 941 6 
Q 913 -6 863 -12 
Q 813 -19 734 -19 
Q 659 -19 609 -12 
Q 559 -6 529 6 
Q 500 19 489 36 
Q 478 53 478 78 
L 478 2891 
Q 478 2913 489 2931 
Q 500 2950 529 2962 
Q 559 2975 609 2981 
Q 659 2988 734 2988 
Q 813 2988 863 2981 
Q 913 2975 941 2962 
Q 969 2950 981 2931 
Q 994 2913 994 2891 
L 994 78 
z
M 1053 3841 
Q 1053 3659 984 3593 
Q 916 3528 731 3528 
Q 550 3528 483 3592 
Q 416 3656 416 3834 
Q 416 4016 484 4081 
Q 553 4147 738 4147 
Q 919 4147 986 4083 
Q 1053 4019 1053 3841 
z
" id="Calibri-69" transform="scale(0.015625)"/>
       <path d="M 2784 2897 
Q 2784 2884 2782 2870 
Q 2781 2856 2778 2840 
Q 2775 2825 2770 2806 
Q 2766 2788 2759 2766 
L 1800 94 
Q 1788 59 1767 37 
Q 1747 16 1706 3 
Q 1666 -9 1603 -14 
Q 1541 -19 1447 -19 
Q 1353 -19 1290 -12 
Q 1228 -6 1189 6 
Q 1150 19 1128 41 
Q 1106 63 1094 94 
L 138 2766 
Q 125 2803 117 2831 
Q 109 2859 107 2873 
Q 106 2888 106 2897 
Q 106 2922 118 2940 
Q 131 2959 161 2970 
Q 191 2981 239 2984 
Q 288 2988 359 2988 
Q 450 2988 504 2983 
Q 559 2978 589 2965 
Q 619 2953 633 2934 
Q 647 2916 659 2888 
L 1453 569 
L 1466 531 
L 1475 569 
L 2259 2888 
Q 2266 2916 2281 2934 
Q 2297 2953 2326 2965 
Q 2356 2978 2407 2983 
Q 2459 2988 2544 2988 
Q 2616 2988 2662 2984 
Q 2709 2981 2736 2968 
Q 2763 2956 2773 2939 
Q 2784 2922 2784 2897 
z
" id="Calibri-76" transform="scale(0.015625)"/>
       <path d="M 2878 1606 
Q 2878 1484 2817 1432 
Q 2756 1381 2678 1381 
L 834 1381 
Q 834 1147 881 959 
Q 928 772 1037 637 
Q 1147 503 1322 431 
Q 1497 359 1750 359 
Q 1950 359 2106 392 
Q 2263 425 2377 465 
Q 2491 506 2564 539 
Q 2638 572 2675 572 
Q 2697 572 2714 561 
Q 2731 550 2740 528 
Q 2750 506 2754 467 
Q 2759 428 2759 372 
Q 2759 331 2756 301 
Q 2753 272 2748 248 
Q 2744 225 2733 206 
Q 2722 188 2705 170 
Q 2688 153 2603 114 
Q 2519 75 2384 37 
Q 2250 0 2073 -29 
Q 1897 -59 1697 -59 
Q 1350 -59 1089 37 
Q 828 134 650 325 
Q 472 516 381 803 
Q 291 1091 291 1472 
Q 291 1834 384 2123 
Q 478 2413 654 2614 
Q 831 2816 1081 2923 
Q 1331 3031 1641 3031 
Q 1972 3031 2205 2925 
Q 2438 2819 2588 2639 
Q 2738 2459 2808 2217 
Q 2878 1975 2878 1700 
L 2878 1606 
z
M 2359 1759 
Q 2369 2166 2180 2397 
Q 1991 2628 1619 2628 
Q 1428 2628 1284 2556 
Q 1141 2484 1044 2365 
Q 947 2247 894 2089 
Q 841 1931 834 1759 
L 2359 1759 
z
" id="Calibri-65" transform="scale(0.015625)"/>
       <path id="Calibri-20" transform="scale(0.015625)"/>
       <path d="M 2122 2706 
Q 2122 2638 2119 2591 
Q 2116 2544 2106 2517 
Q 2097 2491 2083 2477 
Q 2069 2463 2044 2463 
Q 2019 2463 1983 2477 
Q 1947 2491 1901 2505 
Q 1856 2519 1800 2531 
Q 1744 2544 1678 2544 
Q 1600 2544 1525 2512 
Q 1450 2481 1367 2409 
Q 1284 2338 1193 2219 
Q 1103 2100 994 1928 
L 994 78 
Q 994 53 981 36 
Q 969 19 941 6 
Q 913 -6 863 -12 
Q 813 -19 734 -19 
Q 659 -19 609 -12 
Q 559 -6 529 6 
Q 500 19 489 36 
Q 478 53 478 78 
L 478 2891 
Q 478 2916 487 2933 
Q 497 2950 525 2964 
Q 553 2978 597 2983 
Q 641 2988 713 2988 
Q 781 2988 826 2983 
Q 872 2978 897 2964 
Q 922 2950 933 2933 
Q 944 2916 944 2891 
L 944 2481 
Q 1059 2650 1161 2756 
Q 1263 2863 1353 2923 
Q 1444 2984 1533 3007 
Q 1622 3031 1713 3031 
Q 1753 3031 1804 3026 
Q 1856 3022 1912 3009 
Q 1969 2997 2014 2981 
Q 2059 2966 2078 2950 
Q 2097 2934 2103 2920 
Q 2109 2906 2114 2884 
Q 2119 2863 2120 2820 
Q 2122 2778 2122 2706 
z
" id="Calibri-72" transform="scale(0.015625)"/>
       <path d="M 4413 2897 
Q 4413 2875 4406 2844 
Q 4400 2813 4384 2766 
L 3556 94 
Q 3547 59 3526 37 
Q 3506 16 3470 3 
Q 3434 -9 3371 -14 
Q 3309 -19 3216 -19 
Q 3119 -19 3053 -12 
Q 2988 -6 2948 6 
Q 2909 19 2890 41 
Q 2872 63 2863 94 
L 2272 2134 
L 2266 2163 
L 2259 2134 
L 1713 94 
Q 1703 59 1683 37 
Q 1663 16 1622 3 
Q 1581 -9 1517 -14 
Q 1453 -19 1359 -19 
Q 1263 -19 1202 -12 
Q 1141 -6 1102 6 
Q 1063 19 1044 41 
Q 1025 63 1016 94 
L 194 2766 
Q 178 2813 172 2844 
Q 166 2875 166 2897 
Q 166 2925 178 2942 
Q 191 2959 220 2970 
Q 250 2981 300 2984 
Q 350 2988 422 2988 
Q 509 2988 562 2983 
Q 616 2978 644 2967 
Q 672 2956 684 2936 
Q 697 2916 706 2888 
L 1384 569 
L 1391 541 
L 1397 569 
L 2019 2888 
Q 2025 2916 2039 2936 
Q 2053 2956 2081 2967 
Q 2109 2978 2157 2983 
Q 2206 2988 2284 2988 
Q 2359 2988 2407 2983 
Q 2456 2978 2484 2967 
Q 2513 2956 2525 2937 
Q 2538 2919 2544 2894 
L 3216 569 
L 3222 541 
L 3225 569 
L 3894 2888 
Q 3900 2916 3914 2936 
Q 3928 2956 3958 2967 
Q 3988 2978 4039 2983 
Q 4091 2988 4172 2988 
Q 4247 2988 4292 2984 
Q 4338 2981 4364 2968 
Q 4391 2956 4402 2940 
Q 4413 2925 4413 2897 
z
" id="Calibri-77" transform="scale(0.015625)"/>
       <path d="M 2888 78 
Q 2888 53 2877 34 
Q 2866 16 2839 5 
Q 2813 -6 2769 -12 
Q 2725 -19 2663 -19 
Q 2597 -19 2553 -12 
Q 2509 -6 2481 5 
Q 2453 16 2440 34 
Q 2428 53 2428 78 
L 2428 450 
Q 2206 209 1967 75 
Q 1728 -59 1444 -59 
Q 1134 -59 915 61 
Q 697 181 561 386 
Q 425 591 362 867 
Q 300 1144 300 1450 
Q 300 1813 378 2105 
Q 456 2397 609 2603 
Q 763 2809 989 2920 
Q 1216 3031 1513 3031 
Q 1759 3031 1964 2923 
Q 2169 2816 2369 2606 
L 2369 4241 
Q 2369 4263 2380 4283 
Q 2391 4303 2422 4314 
Q 2453 4325 2501 4333 
Q 2550 4341 2625 4341 
Q 2703 4341 2753 4333 
Q 2803 4325 2831 4314 
Q 2859 4303 2873 4283 
Q 2888 4263 2888 4241 
L 2888 78 
z
M 2369 2056 
Q 2159 2316 1964 2452 
Q 1769 2588 1556 2588 
Q 1359 2588 1221 2494 
Q 1084 2400 998 2247 
Q 913 2094 873 1900 
Q 834 1706 834 1506 
Q 834 1294 867 1091 
Q 900 888 981 730 
Q 1063 572 1197 476 
Q 1331 381 1534 381 
Q 1638 381 1733 409 
Q 1828 438 1928 503 
Q 2028 569 2137 673 
Q 2247 778 2369 931 
L 2369 2056 
z
" id="Calibri-64" transform="scale(0.015625)"/>
      </defs>
      <use xlink:href="#Calibri-63"/>
      <use x="42.285156" xlink:href="#Calibri-75"/>
      <use x="94.824219" xlink:href="#Calibri-6d"/>
      <use x="174.707031" xlink:href="#Calibri-75"/>
      <use x="227.246094" xlink:href="#Calibri-6c"/>
      <use x="250.195312" xlink:href="#Calibri-61"/>
      <use x="298.095703" xlink:href="#Calibri-74"/>
      <use x="331.591797" xlink:href="#Calibri-69"/>
      <use x="354.541016" xlink:href="#Calibri-76"/>
      <use x="399.707031" xlink:href="#Calibri-65"/>
      <use x="449.462891" xlink:href="#Calibri-20"/>
      <use x="472.070312" xlink:href="#Calibri-72"/>
      <use x="506.933594" xlink:href="#Calibri-65"/>
      <use x="556.689453" xlink:href="#Calibri-77"/>
      <use x="628.173828" xlink:href="#Calibri-61"/>
      <use x="676.074219" xlink:href="#Calibri-72"/>
      <use x="710.9375" xlink:href="#Calibri-64"/>
     </g>
    </g>
   </g>
   <g id="matplotlib.axis_2">
    <g id="ytick_1">
     <g id="line2d_19">
      <path clip-path="url(#p53ca731883)" d="M 46.784375 321.465089 
L 529.184375 321.465089 
" style="fill:none;stroke:#b0b0b0;stroke-linecap:square;stroke-width:0.8;"/>
     </g>
     <g id="line2d_20">
      <defs>
       <path d="M 0 0 
L -3.5 0 
" id="mb37bdc7e2f" style="stroke:#000000;stroke-width:0.8;"/>
      </defs>
      <g>
       <use style="stroke:#000000;stroke-width:0.8;" x="46.784375" xlink:href="#mb37bdc7e2f" y="321.465089"/>
      </g>
     </g>
     <g id="text_11">
      <!-- 40 -->
      <g transform="translate(27.619375 325.546027)scale(0.12 -0.12)">
       <use xlink:href="#Calibri-34"/>
       <use x="50.683594" xlink:href="#Calibri-30"/>
      </g>
     </g>
    </g>
    <g id="ytick_2">
     <g id="line2d_21">
      <path clip-path="url(#p53ca731883)" d="M 46.784375 275.13711 
L 529.184375 275.13711 
" style="fill:none;stroke:#b0b0b0;stroke-linecap:square;stroke-width:0.8;"/>
     </g>
     <g id="line2d_22">
      <g>
       <use style="stroke:#000000;stroke-width:0.8;" x="46.784375" xlink:href="#mb37bdc7e2f" y="275.13711"/>
      </g>
     </g>
     <g id="text_12">
      <!-- 60 -->
      <g transform="translate(27.619375 279.218047)scale(0.12 -0.12)">
       <use xlink:href="#Calibri-36"/>
       <use x="50.683594" xlink:href="#Calibri-30"/>
      </g>
     </g>
    </g>
    <g id="ytick_3">
     <g id="line2d_23">
      <path clip-path="url(#p53ca731883)" d="M 46.784375 228.80913 
L 529.184375 228.80913 
" style="fill:none;stroke:#b0b0b0;stroke-linecap:square;stroke-width:0.8;"/>
     </g>
     <g id="line2d_24">
      <g>
       <use style="stroke:#000000;stroke-width:0.8;" x="46.784375" xlink:href="#mb37bdc7e2f" y="228.80913"/>
      </g>
     </g>
     <g id="text_13">
      <!-- 80 -->
      <g transform="translate(27.619375 232.890068)scale(0.12 -0.12)">
       <use xlink:href="#Calibri-38"/>
       <use x="50.683594" xlink:href="#Calibri-30"/>
      </g>
     </g>
    </g>
    <g id="ytick_4">
     <g id="line2d_25">
      <path clip-path="url(#p53ca731883)" d="M 46.784375 182.481151 
L 529.184375 182.481151 
" style="fill:none;stroke:#b0b0b0;stroke-linecap:square;stroke-width:0.8;"/>
     </g>
     <g id="line2d_26">
      <g>
       <use style="stroke:#000000;stroke-width:0.8;" x="46.784375" xlink:href="#mb37bdc7e2f" y="182.481151"/>
      </g>
     </g>
     <g id="text_14">
      <!-- 100 -->
      <g transform="translate(21.536875 186.562088)scale(0.12 -0.12)">
       <use xlink:href="#Calibri-31"/>
       <use x="50.683594" xlink:href="#Calibri-30"/>
       <use x="101.367188" xlink:href="#Calibri-30"/>
      </g>
     </g>
    </g>
    <g id="ytick_5">
     <g id="line2d_27">
      <path clip-path="url(#p53ca731883)" d="M 46.784375 136.153171 
L 529.184375 136.153171 
" style="fill:none;stroke:#b0b0b0;stroke-linecap:square;stroke-width:0.8;"/>
     </g>
     <g id="line2d_28">
      <g>
       <use style="stroke:#000000;stroke-width:0.8;" x="46.784375" xlink:href="#mb37bdc7e2f" y="136.153171"/>
      </g>
     </g>
     <g id="text_15">
      <!-- 120 -->
      <g transform="translate(21.536875 140.234109)scale(0.12 -0.12)">
       <use xlink:href="#Calibri-31"/>
       <use x="50.683594" xlink:href="#Calibri-32"/>
       <use x="101.367188" xlink:href="#Calibri-30"/>
      </g>
     </g>
    </g>
    <g id="ytick_6">
     <g id="line2d_29">
      <path clip-path="url(#p53ca731883)" d="M 46.784375 89.825192 
L 529.184375 89.825192 
" style="fill:none;stroke:#b0b0b0;stroke-linecap:square;stroke-width:0.8;"/>
     </g>
     <g id="line2d_30">
      <g>
       <use style="stroke:#000000;stroke-width:0.8;" x="46.784375" xlink:href="#mb37bdc7e2f" y="89.825192"/>
      </g>
     </g>
     <g id="text_16">
      <!-- 140 -->
      <g transform="translate(21.536875 93.906129)scale(0.12 -0.12)">
       <use xlink:href="#Calibri-31"/>
       <use x="50.683594" xlink:href="#Calibri-34"/>
       <use x="101.367188" xlink:href="#Calibri-30"/>
      </g>
     </g>
    </g>
    <g id="ytick_7">
     <g id="line2d_31">
      <path clip-path="url(#p53ca731883)" d="M 46.784375 43.497212 
L 529.184375 43.497212 
" style="fill:none;stroke:#b0b0b0;stroke-linecap:square;stroke-width:0.8;"/>
     </g>
     <g id="line2d_32">
      <g>
       <use style="stroke:#000000;stroke-width:0.8;" x="46.784375" xlink:href="#mb37bdc7e2f" y="43.497212"/>
      </g>
     </g>
     <g id="text_17">
      <!-- 160 -->
      <g transform="translate(21.536875 47.57815)scale(0.12 -0.12)">
       <use xlink:href="#Calibri-31"/>
       <use x="50.683594" xlink:href="#Calibri-36"/>
       <use x="101.367188" xlink:href="#Calibri-30"/>
      </g>
     </g>
    </g>
    <g id="text_18">
     <!-- Number of apples collected -->
     <g transform="translate(15.403125 252.209228)rotate(-90)scale(0.12 -0.12)">
      <defs>
       <path d="M 3594 222 
Q 3594 159 3573 115 
Q 3553 72 3520 44 
Q 3488 16 3447 3 
Q 3406 -9 3366 -9 
L 3194 -9 
Q 3113 -9 3052 8 
Q 2991 25 2936 70 
Q 2881 116 2826 194 
Q 2772 272 2706 394 
L 1431 2694 
Q 1331 2872 1229 3067 
Q 1128 3263 1041 3447 
L 1034 3447 
Q 1041 3222 1044 2987 
Q 1047 2753 1047 2522 
L 1047 81 
Q 1047 59 1034 39 
Q 1022 19 992 8 
Q 963 -3 914 -11 
Q 866 -19 791 -19 
Q 716 -19 667 -11 
Q 619 -3 591 8 
Q 563 19 550 39 
Q 538 59 538 81 
L 538 3813 
Q 538 3938 606 3991 
Q 675 4044 756 4044 
L 1013 4044 
Q 1103 4044 1164 4028 
Q 1225 4013 1273 3977 
Q 1322 3941 1367 3877 
Q 1413 3813 1466 3716 
L 2447 1941 
Q 2538 1778 2622 1623 
Q 2706 1469 2784 1319 
Q 2863 1169 2939 1023 
Q 3016 878 3091 731 
L 3094 731 
Q 3088 978 3086 1245 
Q 3084 1513 3084 1759 
L 3084 3953 
Q 3084 3975 3096 3994 
Q 3109 4013 3139 4027 
Q 3169 4041 3217 4047 
Q 3266 4053 3344 4053 
Q 3413 4053 3463 4047 
Q 3513 4041 3541 4027 
Q 3569 4013 3581 3994 
Q 3594 3975 3594 3953 
L 3594 222 
z
" id="Calibri-4e" transform="scale(0.015625)"/>
       <path d="M 3066 1522 
Q 3066 1156 2986 864 
Q 2906 572 2751 365 
Q 2597 159 2372 50 
Q 2147 -59 1856 -59 
Q 1722 -59 1608 -32 
Q 1494 -6 1384 53 
Q 1275 113 1165 203 
Q 1056 294 934 422 
L 934 78 
Q 934 53 921 34 
Q 909 16 881 5 
Q 853 -6 811 -12 
Q 769 -19 703 -19 
Q 641 -19 597 -12 
Q 553 -6 525 5 
Q 497 16 487 34 
Q 478 53 478 78 
L 478 4253 
Q 478 4278 489 4297 
Q 500 4316 529 4328 
Q 559 4341 609 4347 
Q 659 4353 734 4353 
Q 813 4353 863 4347 
Q 913 4341 941 4328 
Q 969 4316 981 4297 
Q 994 4278 994 4253 
L 994 2569 
Q 1119 2697 1236 2784 
Q 1353 2872 1465 2926 
Q 1578 2981 1690 3006 
Q 1803 3031 1928 3031 
Q 2234 3031 2451 2909 
Q 2669 2788 2805 2583 
Q 2941 2378 3003 2103 
Q 3066 1828 3066 1522 
z
M 2522 1463 
Q 2522 1678 2489 1881 
Q 2456 2084 2375 2240 
Q 2294 2397 2159 2492 
Q 2025 2588 1825 2588 
Q 1725 2588 1628 2559 
Q 1531 2531 1431 2465 
Q 1331 2400 1223 2297 
Q 1116 2194 994 2038 
L 994 916 
Q 1206 656 1400 520 
Q 1594 384 1803 384 
Q 1997 384 2134 478 
Q 2272 572 2358 726 
Q 2444 881 2483 1073 
Q 2522 1266 2522 1463 
z
" id="Calibri-62" transform="scale(0.015625)"/>
       <path d="M 3094 1516 
Q 3094 1172 3003 883 
Q 2913 594 2733 384 
Q 2553 175 2283 58 
Q 2013 -59 1656 -59 
Q 1309 -59 1051 44 
Q 794 147 622 344 
Q 450 541 365 822 
Q 281 1103 281 1459 
Q 281 1803 370 2092 
Q 459 2381 639 2590 
Q 819 2800 1087 2915 
Q 1356 3031 1716 3031 
Q 2063 3031 2320 2928 
Q 2578 2825 2750 2628 
Q 2922 2431 3008 2150 
Q 3094 1869 3094 1516 
z
M 2550 1481 
Q 2550 1709 2508 1912 
Q 2466 2116 2369 2269 
Q 2272 2422 2106 2511 
Q 1941 2600 1694 2600 
Q 1466 2600 1302 2519 
Q 1138 2438 1031 2289 
Q 925 2141 873 1937 
Q 822 1734 822 1494 
Q 822 1263 864 1059 
Q 906 856 1004 704 
Q 1103 553 1268 464 
Q 1434 375 1681 375 
Q 1906 375 2072 456 
Q 2238 538 2344 684 
Q 2450 831 2500 1034 
Q 2550 1238 2550 1481 
z
" id="Calibri-6f" transform="scale(0.015625)"/>
       <path d="M 2019 4047 
Q 2019 3988 2012 3952 
Q 2006 3916 1998 3894 
Q 1991 3872 1978 3864 
Q 1966 3856 1947 3856 
Q 1925 3856 1892 3870 
Q 1859 3884 1812 3901 
Q 1766 3919 1702 3933 
Q 1638 3947 1553 3947 
Q 1438 3947 1356 3909 
Q 1275 3872 1225 3792 
Q 1175 3713 1153 3586 
Q 1131 3459 1131 3278 
L 1131 2972 
L 1759 2972 
Q 1784 2972 1801 2961 
Q 1819 2950 1833 2923 
Q 1847 2897 1855 2856 
Q 1863 2816 1863 2756 
Q 1863 2644 1834 2594 
Q 1806 2544 1759 2544 
L 1131 2544 
L 1131 78 
Q 1131 53 1118 36 
Q 1106 19 1076 6 
Q 1047 -6 997 -12 
Q 947 -19 872 -19 
Q 797 -19 747 -12 
Q 697 -6 667 6 
Q 638 19 625 36 
Q 613 53 613 78 
L 613 2544 
L 216 2544 
Q 166 2544 141 2594 
Q 116 2644 116 2756 
Q 116 2816 122 2856 
Q 128 2897 140 2923 
Q 153 2950 172 2961 
Q 191 2972 216 2972 
L 613 2972 
L 613 3263 
Q 613 3556 667 3767 
Q 722 3978 834 4112 
Q 947 4247 1117 4311 
Q 1288 4375 1519 4375 
Q 1628 4375 1731 4354 
Q 1834 4334 1890 4311 
Q 1947 4288 1965 4269 
Q 1984 4250 1996 4220 
Q 2009 4191 2014 4148 
Q 2019 4106 2019 4047 
z
" id="Calibri-66" transform="scale(0.015625)"/>
       <path d="M 3066 1528 
Q 3066 1159 2986 865 
Q 2906 572 2751 367 
Q 2597 163 2369 52 
Q 2141 -59 1847 -59 
Q 1722 -59 1615 -34 
Q 1509 -9 1407 44 
Q 1306 97 1206 178 
Q 1106 259 994 369 
L 994 -1038 
Q 994 -1063 981 -1081 
Q 969 -1100 941 -1112 
Q 913 -1125 863 -1131 
Q 813 -1138 734 -1138 
Q 659 -1138 609 -1131 
Q 559 -1125 529 -1112 
Q 500 -1100 489 -1081 
Q 478 -1063 478 -1038 
L 478 2891 
Q 478 2919 487 2936 
Q 497 2953 525 2965 
Q 553 2978 597 2983 
Q 641 2988 703 2988 
Q 769 2988 811 2983 
Q 853 2978 881 2965 
Q 909 2953 920 2936 
Q 931 2919 931 2891 
L 931 2513 
Q 1059 2644 1178 2741 
Q 1297 2838 1417 2902 
Q 1538 2966 1664 2998 
Q 1791 3031 1931 3031 
Q 2238 3031 2453 2912 
Q 2669 2794 2805 2587 
Q 2941 2381 3003 2107 
Q 3066 1834 3066 1528 
z
M 2522 1469 
Q 2522 1684 2489 1886 
Q 2456 2088 2376 2244 
Q 2297 2400 2162 2494 
Q 2028 2588 1828 2588 
Q 1728 2588 1631 2558 
Q 1534 2528 1434 2464 
Q 1334 2400 1225 2295 
Q 1116 2191 994 2038 
L 994 919 
Q 1206 659 1397 521 
Q 1588 384 1797 384 
Q 1991 384 2130 478 
Q 2269 572 2355 728 
Q 2441 884 2481 1078 
Q 2522 1272 2522 1469 
z
" id="Calibri-70" transform="scale(0.015625)"/>
       <path d="M 2244 844 
Q 2244 628 2164 459 
Q 2084 291 1937 175 
Q 1791 59 1587 0 
Q 1384 -59 1141 -59 
Q 991 -59 855 -36 
Q 719 -13 611 23 
Q 503 59 428 98 
Q 353 138 318 169 
Q 284 200 268 256 
Q 253 313 253 409 
Q 253 469 259 509 
Q 266 550 275 575 
Q 284 600 301 611 
Q 319 622 341 622 
Q 375 622 442 580 
Q 509 538 607 488 
Q 706 438 840 395 
Q 975 353 1150 353 
Q 1281 353 1387 381 
Q 1494 409 1572 464 
Q 1650 519 1692 603 
Q 1734 688 1734 803 
Q 1734 922 1673 1003 
Q 1613 1084 1513 1146 
Q 1413 1209 1288 1257 
Q 1163 1306 1030 1359 
Q 897 1413 770 1480 
Q 644 1547 544 1644 
Q 444 1741 383 1875 
Q 322 2009 322 2197 
Q 322 2363 386 2514 
Q 450 2666 578 2780 
Q 706 2894 898 2962 
Q 1091 3031 1347 3031 
Q 1459 3031 1571 3012 
Q 1684 2994 1775 2966 
Q 1866 2938 1930 2905 
Q 1994 2872 2026 2847 
Q 2059 2822 2070 2803 
Q 2081 2784 2086 2761 
Q 2091 2738 2095 2703 
Q 2100 2669 2100 2619 
Q 2100 2566 2095 2527 
Q 2091 2488 2080 2463 
Q 2069 2438 2053 2427 
Q 2038 2416 2019 2416 
Q 1991 2416 1937 2450 
Q 1884 2484 1800 2523 
Q 1716 2563 1602 2597 
Q 1488 2631 1341 2631 
Q 1209 2631 1109 2601 
Q 1009 2572 945 2517 
Q 881 2463 848 2388 
Q 816 2313 816 2225 
Q 816 2103 878 2020 
Q 941 1938 1041 1875 
Q 1141 1813 1269 1763 
Q 1397 1713 1530 1659 
Q 1663 1606 1792 1540 
Q 1922 1475 2022 1381 
Q 2122 1288 2183 1156 
Q 2244 1025 2244 844 
z
" id="Calibri-73" transform="scale(0.015625)"/>
      </defs>
      <use xlink:href="#Calibri-4e"/>
      <use x="64.550781" xlink:href="#Calibri-75"/>
      <use x="117.089844" xlink:href="#Calibri-6d"/>
      <use x="196.972656" xlink:href="#Calibri-62"/>
      <use x="249.511719" xlink:href="#Calibri-65"/>
      <use x="299.267578" xlink:href="#Calibri-72"/>
      <use x="334.130859" xlink:href="#Calibri-20"/>
      <use x="356.738281" xlink:href="#Calibri-6f"/>
      <use x="409.472656" xlink:href="#Calibri-66"/>
      <use x="439.990234" xlink:href="#Calibri-20"/>
      <use x="462.597656" xlink:href="#Calibri-61"/>
      <use x="510.498047" xlink:href="#Calibri-70"/>
      <use x="563.037109" xlink:href="#Calibri-70"/>
      <use x="615.576172" xlink:href="#Calibri-6c"/>
      <use x="638.525391" xlink:href="#Calibri-65"/>
      <use x="688.28125" xlink:href="#Calibri-73"/>
      <use x="727.392578" xlink:href="#Calibri-20"/>
      <use x="750" xlink:href="#Calibri-63"/>
      <use x="792.285156" xlink:href="#Calibri-6f"/>
      <use x="845.019531" xlink:href="#Calibri-6c"/>
      <use x="867.96875" xlink:href="#Calibri-6c"/>
      <use x="890.917969" xlink:href="#Calibri-65"/>
      <use x="940.673828" xlink:href="#Calibri-63"/>
      <use x="982.958984" xlink:href="#Calibri-74"/>
      <use x="1016.455078" xlink:href="#Calibri-65"/>
      <use x="1066.210938" xlink:href="#Calibri-64"/>
     </g>
    </g>
   </g>
   <g id="line2d_33">
    <path clip-path="url(#p53ca731883)" d="M 68.711648 215.2525 
L 123.52983 190.151849 
L 178.348011 196.949151 
L 233.166193 231.885004 
L 287.984375 258.238789 
L 342.802557 280.871147 
L 397.620739 328.338339 
L 452.43892 335.135641 
L 507.257102 346.793583 
" style="fill:none;stroke:#ff8c00;stroke-linecap:square;stroke-width:1.5;"/>
    <defs>
     <path d="M 0 -3 
L -3 3 
L 3 3 
z
" id="md46570aff1" style="stroke:#ff8c00;stroke-linejoin:miter;"/>
    </defs>
    <g clip-path="url(#p53ca731883)">
     <use style="fill:#ff8c00;stroke:#ff8c00;stroke-linejoin:miter;" x="68.711648" xlink:href="#md46570aff1" y="215.2525"/>
     <use style="fill:#ff8c00;stroke:#ff8c00;stroke-linejoin:miter;" x="123.52983" xlink:href="#md46570aff1" y="190.151849"/>
     <use style="fill:#ff8c00;stroke:#ff8c00;stroke-linejoin:miter;" x="178.348011" xlink:href="#md46570aff1" y="196.949151"/>
     <use style="fill:#ff8c00;stroke:#ff8c00;stroke-linejoin:miter;" x="233.166193" xlink:href="#md46570aff1" y="231.885004"/>
     <use style="fill:#ff8c00;stroke:#ff8c00;stroke-linejoin:miter;" x="287.984375" xlink:href="#md46570aff1" y="258.238789"/>
     <use style="fill:#ff8c00;stroke:#ff8c00;stroke-linejoin:miter;" x="342.802557" xlink:href="#md46570aff1" y="280.871147"/>
     <use style="fill:#ff8c00;stroke:#ff8c00;stroke-linejoin:miter;" x="397.620739" xlink:href="#md46570aff1" y="328.338339"/>
     <use style="fill:#ff8c00;stroke:#ff8c00;stroke-linejoin:miter;" x="452.43892" xlink:href="#md46570aff1" y="335.135641"/>
     <use style="fill:#ff8c00;stroke:#ff8c00;stroke-linejoin:miter;" x="507.257102" xlink:href="#md46570aff1" y="346.793583"/>
    </g>
   </g>
   <g id="line2d_34">
    <path clip-path="url(#p53ca731883)" d="M 68.711648 143.330211 
L 123.52983 117.963743 
L 178.348011 85.989843 
L 233.166193 104.786851 
L 287.984375 200.860448 
L 342.802557 222.809277 
L 397.620739 285.314076 
L 452.43892 311.098254 
L 507.257102 319.110716 
" style="fill:none;stroke:#ff0000;stroke-linecap:square;stroke-width:1.5;"/>
    <defs>
     <path d="M -3 3 
L 3 3 
L 3 -3 
L -3 -3 
z
" id="me7b5366ed6" style="stroke:#ff0000;stroke-linejoin:miter;"/>
    </defs>
    <g clip-path="url(#p53ca731883)">
     <use style="fill:#ff0000;stroke:#ff0000;stroke-linejoin:miter;" x="68.711648" xlink:href="#me7b5366ed6" y="143.330211"/>
     <use style="fill:#ff0000;stroke:#ff0000;stroke-linejoin:miter;" x="123.52983" xlink:href="#me7b5366ed6" y="117.963743"/>
     <use style="fill:#ff0000;stroke:#ff0000;stroke-linejoin:miter;" x="178.348011" xlink:href="#me7b5366ed6" y="85.989843"/>
     <use style="fill:#ff0000;stroke:#ff0000;stroke-linejoin:miter;" x="233.166193" xlink:href="#me7b5366ed6" y="104.786851"/>
     <use style="fill:#ff0000;stroke:#ff0000;stroke-linejoin:miter;" x="287.984375" xlink:href="#me7b5366ed6" y="200.860448"/>
     <use style="fill:#ff0000;stroke:#ff0000;stroke-linejoin:miter;" x="342.802557" xlink:href="#me7b5366ed6" y="222.809277"/>
     <use style="fill:#ff0000;stroke:#ff0000;stroke-linejoin:miter;" x="397.620739" xlink:href="#me7b5366ed6" y="285.314076"/>
     <use style="fill:#ff0000;stroke:#ff0000;stroke-linejoin:miter;" x="452.43892" xlink:href="#me7b5366ed6" y="311.098254"/>
     <use style="fill:#ff0000;stroke:#ff0000;stroke-linejoin:miter;" x="507.257102" xlink:href="#me7b5366ed6" y="319.110716"/>
    </g>
   </g>
   <g id="line2d_35">
    <path clip-path="url(#p53ca731883)" d="M 68.711648 117.166295 
L 123.52983 84.318998 
L 178.348011 38.446703 
L 233.166193 85.572131 
L 287.984375 124.039544 
L 342.802557 188.367083 
L 397.620739 270.618233 
L 452.43892 283.453362 
L 507.257102 297.921362 
" style="fill:none;stroke:#0000ff;stroke-linecap:square;stroke-width:1.5;"/>
    <defs>
     <path d="M 0 3 
C 0.795609 3 1.55874 2.683901 2.12132 2.12132 
C 2.683901 1.55874 3 0.795609 3 0 
C 3 -0.795609 2.683901 -1.55874 2.12132 -2.12132 
C 1.55874 -2.683901 0.795609 -3 0 -3 
C -0.795609 -3 -1.55874 -2.683901 -2.12132 -2.12132 
C -2.683901 -1.55874 -3 -0.795609 -3 0 
C -3 0.795609 -2.683901 1.55874 -2.12132 2.12132 
C -1.55874 2.683901 -0.795609 3 0 3 
z
" id="m44ddd7cbbf" style="stroke:#0000ff;"/>
    </defs>
    <g clip-path="url(#p53ca731883)">
     <use style="fill:#0000ff;stroke:#0000ff;" x="68.711648" xlink:href="#m44ddd7cbbf" y="117.166295"/>
     <use style="fill:#0000ff;stroke:#0000ff;" x="123.52983" xlink:href="#m44ddd7cbbf" y="84.318998"/>
     <use style="fill:#0000ff;stroke:#0000ff;" x="178.348011" xlink:href="#m44ddd7cbbf" y="38.446703"/>
     <use style="fill:#0000ff;stroke:#0000ff;" x="233.166193" xlink:href="#m44ddd7cbbf" y="85.572131"/>
     <use style="fill:#0000ff;stroke:#0000ff;" x="287.984375" xlink:href="#m44ddd7cbbf" y="124.039544"/>
     <use style="fill:#0000ff;stroke:#0000ff;" x="342.802557" xlink:href="#m44ddd7cbbf" y="188.367083"/>
     <use style="fill:#0000ff;stroke:#0000ff;" x="397.620739" xlink:href="#m44ddd7cbbf" y="270.618233"/>
     <use style="fill:#0000ff;stroke:#0000ff;" x="452.43892" xlink:href="#m44ddd7cbbf" y="283.453362"/>
     <use style="fill:#0000ff;stroke:#0000ff;" x="507.257102" xlink:href="#m44ddd7cbbf" y="297.921362"/>
    </g>
   </g>
   <g id="line2d_36">
    <path clip-path="url(#p53ca731883)" d="M 68.711648 148.950326 
L 123.52983 61.230955 
L 178.348011 44.750346 
L 233.166193 48.547722 
L 287.984375 134.254484 
L 342.802557 203.442663 
L 397.620739 267.086674 
L 452.43892 253.719913 
L 507.257102 273.92195 
" style="fill:none;stroke:#008000;stroke-linecap:square;stroke-width:1.5;"/>
    <defs>
     <path d="M 0 4.242641 
L 2.545584 0 
L 0 -4.242641 
L -2.545584 0 
z
" id="m4a655002b6" style="stroke:#008000;stroke-linejoin:miter;"/>
    </defs>
    <g clip-path="url(#p53ca731883)">
     <use style="fill:#008000;stroke:#008000;stroke-linejoin:miter;" x="68.711648" xlink:href="#m4a655002b6" y="148.950326"/>
     <use style="fill:#008000;stroke:#008000;stroke-linejoin:miter;" x="123.52983" xlink:href="#m4a655002b6" y="61.230955"/>
     <use style="fill:#008000;stroke:#008000;stroke-linejoin:miter;" x="178.348011" xlink:href="#m4a655002b6" y="44.750346"/>
     <use style="fill:#008000;stroke:#008000;stroke-linejoin:miter;" x="233.166193" xlink:href="#m4a655002b6" y="48.547722"/>
     <use style="fill:#008000;stroke:#008000;stroke-linejoin:miter;" x="287.984375" xlink:href="#m4a655002b6" y="134.254484"/>
     <use style="fill:#008000;stroke:#008000;stroke-linejoin:miter;" x="342.802557" xlink:href="#m4a655002b6" y="203.442663"/>
     <use style="fill:#008000;stroke:#008000;stroke-linejoin:miter;" x="397.620739" xlink:href="#m4a655002b6" y="267.086674"/>
     <use style="fill:#008000;stroke:#008000;stroke-linejoin:miter;" x="452.43892" xlink:href="#m4a655002b6" y="253.719913"/>
     <use style="fill:#008000;stroke:#008000;stroke-linejoin:miter;" x="507.257102" xlink:href="#m4a655002b6" y="273.92195"/>
    </g>
   </g>
   <g id="line2d_37">
    <path clip-path="url(#p53ca731883)" d="M 68.711648 113.48284 
L 123.52983 60.851218 
L 178.348011 23.371123 
L 233.166193 32.978483 
L 287.984375 120.96367 
L 342.802557 204.619849 
L 397.620739 223.986464 
L 452.43892 263.479167 
L 507.257102 260.896952 
" style="fill:none;stroke:#800080;stroke-linecap:square;stroke-width:1.5;"/>
    <defs>
     <path d="M -1.5 3 
L 0 1.5 
L 1.5 3 
L 3 1.5 
L 1.5 0 
L 3 -1.5 
L 1.5 -3 
L 0 -1.5 
L -1.5 -3 
L -3 -1.5 
L -1.5 0 
L -3 1.5 
z
" id="m3d83280e6d" style="stroke:#800080;stroke-linejoin:miter;"/>
    </defs>
    <g clip-path="url(#p53ca731883)">
     <use style="fill:#800080;stroke:#800080;stroke-linejoin:miter;" x="68.711648" xlink:href="#m3d83280e6d" y="113.48284"/>
     <use style="fill:#800080;stroke:#800080;stroke-linejoin:miter;" x="123.52983" xlink:href="#m3d83280e6d" y="60.851218"/>
     <use style="fill:#800080;stroke:#800080;stroke-linejoin:miter;" x="178.348011" xlink:href="#m3d83280e6d" y="23.371123"/>
     <use style="fill:#800080;stroke:#800080;stroke-linejoin:miter;" x="233.166193" xlink:href="#m3d83280e6d" y="32.978483"/>
     <use style="fill:#800080;stroke:#800080;stroke-linejoin:miter;" x="287.984375" xlink:href="#m3d83280e6d" y="120.96367"/>
     <use style="fill:#800080;stroke:#800080;stroke-linejoin:miter;" x="342.802557" xlink:href="#m3d83280e6d" y="204.619849"/>
     <use style="fill:#800080;stroke:#800080;stroke-linejoin:miter;" x="397.620739" xlink:href="#m3d83280e6d" y="223.986464"/>
     <use style="fill:#800080;stroke:#800080;stroke-linejoin:miter;" x="452.43892" xlink:href="#m3d83280e6d" y="263.479167"/>
     <use style="fill:#800080;stroke:#800080;stroke-linejoin:miter;" x="507.257102" xlink:href="#m3d83280e6d" y="260.896952"/>
    </g>
   </g>
   <g id="line2d_38">
    <path clip-path="url(#p53ca731883)" d="M 68.711648 125.026862 
L 123.52983 165.392962 
L 178.348011 45.206031 
L 233.166193 151.874305 
L 287.984375 131.444426 
L 342.802557 166.380279 
L 397.620739 201.847765 
L 452.43892 210.239965 
L 507.257102 224.138359 
" style="fill:none;stroke:#bfbf00;stroke-linecap:square;stroke-width:1.5;"/>
    <defs>
     <path d="M 0 1.5 
C 0.397805 1.5 0.77937 1.341951 1.06066 1.06066 
C 1.341951 0.77937 1.5 0.397805 1.5 0 
C 1.5 -0.397805 1.341951 -0.77937 1.06066 -1.06066 
C 0.77937 -1.341951 0.397805 -1.5 0 -1.5 
C -0.397805 -1.5 -0.77937 -1.341951 -1.06066 -1.06066 
C -1.341951 -0.77937 -1.5 -0.397805 -1.5 0 
C -1.5 0.397805 -1.341951 0.77937 -1.06066 1.06066 
C -0.77937 1.341951 -0.397805 1.5 0 1.5 
z
" id="m28b2b7c009" style="stroke:#bfbf00;"/>
    </defs>
    <g clip-path="url(#p53ca731883)">
     <use style="fill:#bfbf00;stroke:#bfbf00;" x="68.711648" xlink:href="#m28b2b7c009" y="125.026862"/>
     <use style="fill:#bfbf00;stroke:#bfbf00;" x="123.52983" xlink:href="#m28b2b7c009" y="165.392962"/>
     <use style="fill:#bfbf00;stroke:#bfbf00;" x="178.348011" xlink:href="#m28b2b7c009" y="45.206031"/>
     <use style="fill:#bfbf00;stroke:#bfbf00;" x="233.166193" xlink:href="#m28b2b7c009" y="151.874305"/>
     <use style="fill:#bfbf00;stroke:#bfbf00;" x="287.984375" xlink:href="#m28b2b7c009" y="131.444426"/>
     <use style="fill:#bfbf00;stroke:#bfbf00;" x="342.802557" xlink:href="#m28b2b7c009" y="166.380279"/>
     <use style="fill:#bfbf00;stroke:#bfbf00;" x="397.620739" xlink:href="#m28b2b7c009" y="201.847765"/>
     <use style="fill:#bfbf00;stroke:#bfbf00;" x="452.43892" xlink:href="#m28b2b7c009" y="210.239965"/>
     <use style="fill:#bfbf00;stroke:#bfbf00;" x="507.257102" xlink:href="#m28b2b7c009" y="224.138359"/>
    </g>
   </g>
   <g id="patch_3">
    <path d="M 46.784375 362.964706 
L 46.784375 7.2 
" style="fill:none;stroke:#000000;stroke-linecap:square;stroke-linejoin:miter;stroke-width:0.8;"/>
   </g>
   <g id="patch_4">
    <path d="M 529.184375 362.964706 
L 529.184375 7.2 
" style="fill:none;stroke:#000000;stroke-linecap:square;stroke-linejoin:miter;stroke-width:0.8;"/>
   </g>
   <g id="patch_5">
    <path d="M 46.784375 362.964706 
L 529.184375 362.964706 
" style="fill:none;stroke:#000000;stroke-linecap:square;stroke-linejoin:miter;stroke-width:0.8;"/>
   </g>
   <g id="patch_6">
    <path d="M 46.784375 7.2 
L 529.184375 7.2 
" style="fill:none;stroke:#000000;stroke-linecap:square;stroke-linejoin:miter;stroke-width:0.8;"/>
   </g>
   <g id="legend_1">
    <g id="patch_7">
     <path d="M 536.008375 362.964706 
L 639.819313 362.964706 
Q 641.819313 362.964706 641.819313 360.964706 
L 641.819313 279.267831 
Q 641.819313 277.267831 639.819313 277.267831 
L 536.008375 277.267831 
Q 534.008375 277.267831 534.008375 279.267831 
L 534.008375 360.964706 
Q 534.008375 362.964706 536.008375 362.964706 
z
" style="fill:#ffffff;opacity:0.8;stroke:#cccccc;stroke-linejoin:miter;"/>
    </g>
    <g id="line2d_39">
     <path d="M 538.008375 284.767831 
L 558.008375 284.767831 
" style="fill:none;stroke:#ff8c00;stroke-linecap:square;stroke-width:1.5;"/>
    </g>
    <g id="line2d_40">
     <g>
      <use style="fill:#ff8c00;stroke:#ff8c00;stroke-linejoin:miter;" x="548.008375" xlink:href="#md46570aff1" y="284.767831"/>
     </g>
    </g>
    <g id="text_19">
     <!-- apple_reward=1 -->
     <g transform="translate(566.008375 288.267831)scale(0.1 -0.1)">
      <defs>
       <path d="M 3200 -931 
Q 3200 -1041 3175 -1091 
Q 3150 -1141 3097 -1141 
L 88 -1141 
Q 34 -1141 6 -1094 
Q -22 -1047 -22 -938 
Q -22 -831 6 -778 
Q 34 -725 88 -725 
L 3097 -725 
Q 3147 -725 3173 -775 
Q 3200 -825 3200 -931 
z
" id="Calibri-5f" transform="scale(0.015625)"/>
       <path d="M 2891 2409 
Q 2891 2284 2855 2236 
Q 2819 2188 2772 2188 
L 409 2188 
Q 363 2188 328 2236 
Q 294 2284 294 2409 
Q 294 2522 325 2575 
Q 356 2628 409 2628 
L 2772 2628 
Q 2828 2628 2859 2575 
Q 2891 2522 2891 2409 
z
M 2891 1194 
Q 2891 1069 2855 1022 
Q 2819 975 2772 975 
L 409 975 
Q 363 975 328 1022 
Q 294 1069 294 1194 
Q 294 1309 325 1362 
Q 356 1416 409 1416 
L 2772 1416 
Q 2828 1416 2859 1362 
Q 2891 1309 2891 1194 
z
" id="Calibri-3d" transform="scale(0.015625)"/>
      </defs>
      <use xlink:href="#Calibri-61"/>
      <use x="47.900391" xlink:href="#Calibri-70"/>
      <use x="100.439453" xlink:href="#Calibri-70"/>
      <use x="152.978516" xlink:href="#Calibri-6c"/>
      <use x="175.927734" xlink:href="#Calibri-65"/>
      <use x="225.683594" xlink:href="#Calibri-5f"/>
      <use x="275.488281" xlink:href="#Calibri-72"/>
      <use x="310.351562" xlink:href="#Calibri-65"/>
      <use x="360.107422" xlink:href="#Calibri-77"/>
      <use x="431.591797" xlink:href="#Calibri-61"/>
      <use x="479.492188" xlink:href="#Calibri-72"/>
      <use x="514.355469" xlink:href="#Calibri-64"/>
      <use x="566.894531" xlink:href="#Calibri-3d"/>
      <use x="616.699219" xlink:href="#Calibri-31"/>
     </g>
    </g>
    <g id="line2d_41">
     <path d="M 538.008375 298.550643 
L 558.008375 298.550643 
" style="fill:none;stroke:#ff0000;stroke-linecap:square;stroke-width:1.5;"/>
    </g>
    <g id="line2d_42">
     <g>
      <use style="fill:#ff0000;stroke:#ff0000;stroke-linejoin:miter;" x="548.008375" xlink:href="#me7b5366ed6" y="298.550643"/>
     </g>
    </g>
    <g id="text_20">
     <!-- apple_reward=4 -->
     <g transform="translate(566.008375 302.050643)scale(0.1 -0.1)">
      <use xlink:href="#Calibri-61"/>
      <use x="47.900391" xlink:href="#Calibri-70"/>
      <use x="100.439453" xlink:href="#Calibri-70"/>
      <use x="152.978516" xlink:href="#Calibri-6c"/>
      <use x="175.927734" xlink:href="#Calibri-65"/>
      <use x="225.683594" xlink:href="#Calibri-5f"/>
      <use x="275.488281" xlink:href="#Calibri-72"/>
      <use x="310.351562" xlink:href="#Calibri-65"/>
      <use x="360.107422" xlink:href="#Calibri-77"/>
      <use x="431.591797" xlink:href="#Calibri-61"/>
      <use x="479.492188" xlink:href="#Calibri-72"/>
      <use x="514.355469" xlink:href="#Calibri-64"/>
      <use x="566.894531" xlink:href="#Calibri-3d"/>
      <use x="616.699219" xlink:href="#Calibri-34"/>
     </g>
    </g>
    <g id="line2d_43">
     <path d="M 538.008375 312.333456 
L 558.008375 312.333456 
" style="fill:none;stroke:#0000ff;stroke-linecap:square;stroke-width:1.5;"/>
    </g>
    <g id="line2d_44">
     <g>
      <use style="fill:#0000ff;stroke:#0000ff;" x="548.008375" xlink:href="#m44ddd7cbbf" y="312.333456"/>
     </g>
    </g>
    <g id="text_21">
     <!-- apple_reward=8 -->
     <g transform="translate(566.008375 315.833456)scale(0.1 -0.1)">
      <use xlink:href="#Calibri-61"/>
      <use x="47.900391" xlink:href="#Calibri-70"/>
      <use x="100.439453" xlink:href="#Calibri-70"/>
      <use x="152.978516" xlink:href="#Calibri-6c"/>
      <use x="175.927734" xlink:href="#Calibri-65"/>
      <use x="225.683594" xlink:href="#Calibri-5f"/>
      <use x="275.488281" xlink:href="#Calibri-72"/>
      <use x="310.351562" xlink:href="#Calibri-65"/>
      <use x="360.107422" xlink:href="#Calibri-77"/>
      <use x="431.591797" xlink:href="#Calibri-61"/>
      <use x="479.492188" xlink:href="#Calibri-72"/>
      <use x="514.355469" xlink:href="#Calibri-64"/>
      <use x="566.894531" xlink:href="#Calibri-3d"/>
      <use x="616.699219" xlink:href="#Calibri-38"/>
     </g>
    </g>
    <g id="line2d_45">
     <path d="M 538.008375 326.116268 
L 558.008375 326.116268 
" style="fill:none;stroke:#008000;stroke-linecap:square;stroke-width:1.5;"/>
    </g>
    <g id="line2d_46">
     <g>
      <use style="fill:#008000;stroke:#008000;stroke-linejoin:miter;" x="548.008375" xlink:href="#m4a655002b6" y="326.116268"/>
     </g>
    </g>
    <g id="text_22">
     <!-- apple_reward=10 -->
     <g transform="translate(566.008375 329.616268)scale(0.1 -0.1)">
      <use xlink:href="#Calibri-61"/>
      <use x="47.900391" xlink:href="#Calibri-70"/>
      <use x="100.439453" xlink:href="#Calibri-70"/>
      <use x="152.978516" xlink:href="#Calibri-6c"/>
      <use x="175.927734" xlink:href="#Calibri-65"/>
      <use x="225.683594" xlink:href="#Calibri-5f"/>
      <use x="275.488281" xlink:href="#Calibri-72"/>
      <use x="310.351562" xlink:href="#Calibri-65"/>
      <use x="360.107422" xlink:href="#Calibri-77"/>
      <use x="431.591797" xlink:href="#Calibri-61"/>
      <use x="479.492188" xlink:href="#Calibri-72"/>
      <use x="514.355469" xlink:href="#Calibri-64"/>
      <use x="566.894531" xlink:href="#Calibri-3d"/>
      <use x="616.699219" xlink:href="#Calibri-31"/>
      <use x="667.382812" xlink:href="#Calibri-30"/>
     </g>
    </g>
    <g id="line2d_47">
     <path d="M 538.008375 339.899081 
L 558.008375 339.899081 
" style="fill:none;stroke:#800080;stroke-linecap:square;stroke-width:1.5;"/>
    </g>
    <g id="line2d_48">
     <g>
      <use style="fill:#800080;stroke:#800080;stroke-linejoin:miter;" x="548.008375" xlink:href="#m3d83280e6d" y="339.899081"/>
     </g>
    </g>
    <g id="text_23">
     <!-- apple_reward=14 -->
     <g transform="translate(566.008375 343.399081)scale(0.1 -0.1)">
      <use xlink:href="#Calibri-61"/>
      <use x="47.900391" xlink:href="#Calibri-70"/>
      <use x="100.439453" xlink:href="#Calibri-70"/>
      <use x="152.978516" xlink:href="#Calibri-6c"/>
      <use x="175.927734" xlink:href="#Calibri-65"/>
      <use x="225.683594" xlink:href="#Calibri-5f"/>
      <use x="275.488281" xlink:href="#Calibri-72"/>
      <use x="310.351562" xlink:href="#Calibri-65"/>
      <use x="360.107422" xlink:href="#Calibri-77"/>
      <use x="431.591797" xlink:href="#Calibri-61"/>
      <use x="479.492188" xlink:href="#Calibri-72"/>
      <use x="514.355469" xlink:href="#Calibri-64"/>
      <use x="566.894531" xlink:href="#Calibri-3d"/>
      <use x="616.699219" xlink:href="#Calibri-31"/>
      <use x="667.382812" xlink:href="#Calibri-34"/>
     </g>
    </g>
    <g id="line2d_49">
     <path d="M 538.008375 353.681893 
L 558.008375 353.681893 
" style="fill:none;stroke:#bfbf00;stroke-linecap:square;stroke-width:1.5;"/>
    </g>
    <g id="line2d_50">
     <g>
      <use style="fill:#bfbf00;stroke:#bfbf00;" x="548.008375" xlink:href="#m28b2b7c009" y="353.681893"/>
     </g>
    </g>
    <g id="text_24">
     <!-- apple_reward=16 -->
     <g transform="translate(566.008375 357.181893)scale(0.1 -0.1)">
      <use xlink:href="#Calibri-61"/>
      <use x="47.900391" xlink:href="#Calibri-70"/>
      <use x="100.439453" xlink:href="#Calibri-70"/>
      <use x="152.978516" xlink:href="#Calibri-6c"/>
      <use x="175.927734" xlink:href="#Calibri-65"/>
      <use x="225.683594" xlink:href="#Calibri-5f"/>
      <use x="275.488281" xlink:href="#Calibri-72"/>
      <use x="310.351562" xlink:href="#Calibri-65"/>
      <use x="360.107422" xlink:href="#Calibri-77"/>
      <use x="431.591797" xlink:href="#Calibri-61"/>
      <use x="479.492188" xlink:href="#Calibri-72"/>
      <use x="514.355469" xlink:href="#Calibri-64"/>
      <use x="566.894531" xlink:href="#Calibri-3d"/>
      <use x="616.699219" xlink:href="#Calibri-31"/>
      <use x="667.382812" xlink:href="#Calibri-36"/>
     </g>
    </g>
   </g>
  </g>
 </g>
 <defs>
  <clipPath id="p53ca731883">
   <rect height="355.764706" width="482.4" x="46.784375" y="7.2"/>
  </clipPath>
 </defs>
</svg>
