<?xml version="1.0" encoding="utf-8" standalone="no"?>
<!DOCTYPE svg PUBLIC "-//W3C//DTD SVG 1.1//EN"
  "http://www.w3.org/Graphics/SVG/1.1/DTD/svg11.dtd">
<svg height="348.39125pt" version="1.1" viewBox="0 0 537.078 348.39125" width="537.078pt" xmlns="http://www.w3.org/2000/svg" xmlns:xlink="http://www.w3.org/1999/xlink">
 <metadata>
  <rdf:RDF xmlns:cc="http://creativecommons.org/ns#" xmlns:dc="http://purl.org/dc/elements/1.1/" xmlns:rdf="http://www.w3.org/1999/02/22-rdf-syntax-ns#">
   <cc:Work>
    <dc:type rdf:resource="http://purl.org/dc/dcmitype/StillImage"/>
    <dc:date>2021-11-08T10:53:25.691100</dc:date>
    <dc:format>image/svg+xml</dc:format>
    <dc:creator>
     <cc:Agent>
      <dc:title>Matplotlib v3.4.2, https://matplotlib.org/</dc:title>
     </cc:Agent>
    </dc:creator>
   </cc:Work>
  </rdf:RDF>
 </metadata>
 <defs>
  <style type="text/css">*{stroke-linecap:butt;stroke-linejoin:round;}</style>
 </defs>
 <g id="figure_1">
  <g id="patch_1">
   <path d="M 0 348.39125 
L 537.078 348.39125 
L 537.078 0 
L 0 0 
z
" style="fill:#ffffff;"/>
  </g>
  <g id="axes_1">
   <g id="patch_2">
    <path d="M 52.825625 309.6 
L 414.625625 309.6 
L 414.625625 7.2 
L 52.825625 7.2 
z
" style="fill:#ffffff;"/>
   </g>
   <g id="PolyCollection_1">
    <path clip-path="url(#pb9761e4103)" d="M 69.27108 227.299522 
L 69.27108 268.639234 
L 74.752898 257.730144 
L 80.234716 253.02201 
L 85.716534 247.854545 
L 91.198352 185.385646 
L 96.68017 182.4 
L 102.161989 166.438278 
L 107.643807 160.811483 
L 113.125625 137.270813 
L 118.607443 125.213397 
L 124.089261 114.074641 
L 129.57108 104.313876 
L 135.052898 117.289952 
L 140.534716 117.978947 
L 146.016534 106.495694 
L 151.498352 119.127273 
L 156.98017 116.256459 
L 162.461989 128.888038 
L 167.943807 159.663158 
L 173.425625 115.911962 
L 178.907443 124.8689 
L 184.389261 113.615311 
L 189.87108 113.155981 
L 195.352898 114.648804 
L 200.834716 94.897608 
L 206.316534 91.911962 
L 211.798352 127.854545 
L 217.28017 86.285167 
L 222.761989 94.323445 
L 228.243807 107.758852 
L 233.725625 123.835407 
L 239.207443 104.773206 
L 244.689261 100.524402 
L 250.17108 96.160766 
L 255.652898 78.476555 
L 261.134716 74.342584 
L 266.616534 93.289952 
L 272.098352 94.55311 
L 277.58017 75.720574 
L 283.061989 72.849761 
L 288.543807 83.184689 
L 294.025625 105.691866 
L 299.507443 71.9311 
L 304.989261 89.041148 
L 310.47108 83.069856 
L 315.952898 92.371292 
L 321.434716 91.337799 
L 326.916534 87.77799 
L 332.398352 75.376077 
L 337.88017 81.806699 
L 343.361989 73.768421 
L 348.843807 101.672727 
L 354.325625 94.897608 
L 359.807443 82.840191 
L 365.289261 62.285167 
L 370.77108 73.998086 
L 376.252898 85.366507 
L 381.734716 81.347368 
L 387.216534 84.333014 
L 392.698352 81.577033 
L 398.18017 70.782775 
L 398.18017 29.443062 
L 398.18017 29.443062 
L 392.698352 40.237321 
L 387.216534 42.993301 
L 381.734716 40.007656 
L 376.252898 44.026794 
L 370.77108 32.658373 
L 365.289261 20.945455 
L 359.807443 41.500478 
L 354.325625 53.557895 
L 348.843807 60.333014 
L 343.361989 32.428708 
L 337.88017 40.466986 
L 332.398352 34.036364 
L 326.916534 46.438278 
L 321.434716 49.998086 
L 315.952898 51.031579 
L 310.47108 41.730144 
L 304.989261 47.701435 
L 299.507443 30.591388 
L 294.025625 64.352153 
L 288.543807 41.844976 
L 283.061989 31.510048 
L 277.58017 34.380861 
L 272.098352 53.213397 
L 266.616534 51.950239 
L 261.134716 33.002871 
L 255.652898 37.136842 
L 250.17108 54.821053 
L 244.689261 59.184689 
L 239.207443 63.433493 
L 233.725625 82.495694 
L 228.243807 66.419139 
L 222.761989 52.983732 
L 217.28017 44.945455 
L 211.798352 86.514833 
L 206.316534 50.572249 
L 200.834716 53.557895 
L 195.352898 73.309091 
L 189.87108 71.816268 
L 184.389261 72.275598 
L 178.907443 83.529187 
L 173.425625 74.572249 
L 167.943807 118.323445 
L 162.461989 87.548325 
L 156.98017 74.916746 
L 151.498352 77.78756 
L 146.016534 65.155981 
L 140.534716 76.639234 
L 135.052898 75.950239 
L 129.57108 62.974163 
L 124.089261 72.734928 
L 118.607443 83.873684 
L 113.125625 95.9311 
L 107.643807 119.47177 
L 102.161989 125.098565 
L 96.68017 141.060287 
L 91.198352 144.045933 
L 85.716534 206.514833 
L 80.234716 211.682297 
L 74.752898 216.390431 
L 69.27108 227.299522 
z
" style="fill:#4169e1;fill-opacity:0.3;"/>
   </g>
   <g id="PolyCollection_2">
    <path clip-path="url(#pb9761e4103)" d="M 69.27108 254.514833 
L 69.27108 295.854545 
L 74.752898 270.476555 
L 80.234716 243.146411 
L 85.716534 230.629665 
L 91.198352 193.653589 
L 96.68017 154.380861 
L 102.161989 155.414354 
L 107.643807 195.031579 
L 113.125625 192.964593 
L 118.607443 171.261244 
L 124.089261 155.529187 
L 129.57108 153.232536 
L 135.052898 204.677512 
L 140.534716 176.199043 
L 146.016534 158.629665 
L 151.498352 177.691866 
L 156.98017 193.998086 
L 162.461989 139.108134 
L 167.943807 207.31866 
L 173.425625 169.653589 
L 178.907443 180.103349 
L 184.389261 192.160766 
L 189.87108 148.983732 
L 195.352898 177.691866 
L 200.834716 152.773206 
L 206.316534 182.055502 
L 211.798352 185.844976 
L 217.28017 153.921531 
L 222.761989 178.840191 
L 228.243807 162.189474 
L 233.725625 173.672727 
L 239.207443 170.112919 
L 244.689261 167.701435 
L 250.17108 175.739713 
L 255.652898 166.782775 
L 261.134716 183.088995 
L 266.616534 187.911962 
L 272.098352 188.486124 
L 277.58017 174.24689 
L 283.061989 174.132057 
L 288.543807 165.519617 
L 294.025625 181.48134 
L 299.507443 177.232536 
L 304.989261 173.213397 
L 310.47108 180.562679 
L 315.952898 178.955024 
L 321.434716 164.256459 
L 326.916534 168.734928 
L 332.398352 167.242105 
L 337.88017 173.32823 
L 343.361989 168.505263 
L 348.843807 174.132057 
L 354.325625 164.945455 
L 359.807443 177.232536 
L 365.289261 177.921531 
L 370.77108 181.251675 
L 376.252898 182.85933 
L 381.734716 166.323445 
L 387.216534 176.084211 
L 392.698352 185.844976 
L 398.18017 164.715789 
L 398.18017 123.376077 
L 398.18017 123.376077 
L 392.698352 144.505263 
L 387.216534 134.744498 
L 381.734716 124.983732 
L 376.252898 141.519617 
L 370.77108 139.911962 
L 365.289261 136.581818 
L 359.807443 135.892823 
L 354.325625 123.605742 
L 348.843807 132.792344 
L 343.361989 127.16555 
L 337.88017 131.988517 
L 332.398352 125.902392 
L 326.916534 127.395215 
L 321.434716 122.916746 
L 315.952898 137.615311 
L 310.47108 139.222967 
L 304.989261 131.873684 
L 299.507443 135.892823 
L 294.025625 140.141627 
L 288.543807 124.179904 
L 283.061989 132.792344 
L 277.58017 132.907177 
L 272.098352 147.146411 
L 266.616534 146.572249 
L 261.134716 141.749282 
L 255.652898 125.443062 
L 250.17108 134.4 
L 244.689261 126.361722 
L 239.207443 128.773206 
L 233.725625 132.333014 
L 228.243807 120.849761 
L 222.761989 137.500478 
L 217.28017 112.581818 
L 211.798352 144.505263 
L 206.316534 140.715789 
L 200.834716 111.433493 
L 195.352898 136.352153 
L 189.87108 107.644019 
L 184.389261 150.821053 
L 178.907443 138.763636 
L 173.425625 128.313876 
L 167.943807 165.978947 
L 162.461989 97.768421 
L 156.98017 152.658373 
L 151.498352 136.352153 
L 146.016534 117.289952 
L 140.534716 134.85933 
L 135.052898 163.337799 
L 129.57108 111.892823 
L 124.089261 114.189474 
L 118.607443 129.921531 
L 113.125625 151.62488 
L 107.643807 153.691866 
L 102.161989 114.074641 
L 96.68017 113.041148 
L 91.198352 152.313876 
L 85.716534 189.289952 
L 80.234716 201.806699 
L 74.752898 229.136842 
L 69.27108 254.514833 
z
" style="fill:#ee82ee;fill-opacity:0.3;"/>
   </g>
   <g id="PolyCollection_3">
    <path clip-path="url(#pb9761e4103)" d="M 69.27108 205.48134 
L 69.27108 246.821053 
L 74.752898 237.289952 
L 80.234716 248.199043 
L 85.716534 249.462201 
L 91.198352 263.47177 
L 96.68017 244.8689 
L 102.161989 253.825837 
L 107.643807 236.830622 
L 113.125625 249.806699 
L 118.607443 241.768421 
L 124.089261 229.02201 
L 129.57108 223.62488 
L 135.052898 235.337799 
L 140.534716 247.050718 
L 146.016534 247.16555 
L 151.498352 238.323445 
L 156.98017 235.452632 
L 162.461989 237.749282 
L 167.943807 258.878469 
L 173.425625 246.935885 
L 178.907443 238.438278 
L 184.389261 223.62488 
L 189.87108 247.739713 
L 195.352898 246.821053 
L 200.834716 249.347368 
L 206.316534 254.514833 
L 211.798352 243.376077 
L 217.28017 246.017225 
L 222.761989 255.663158 
L 228.243807 241.653589 
L 233.725625 247.510048 
L 239.207443 225.117703 
L 244.689261 239.242105 
L 250.17108 257.385646 
L 255.652898 232.352153 
L 261.134716 244.983732 
L 266.616534 253.711005 
L 272.098352 240.275598 
L 277.58017 247.050718 
L 283.061989 238.667943 
L 288.543807 234.419139 
L 294.025625 254.055502 
L 299.507443 231.77799 
L 304.989261 236.715789 
L 310.47108 238.438278 
L 315.952898 247.510048 
L 321.434716 251.529187 
L 326.916534 221.78756 
L 332.398352 246.591388 
L 337.88017 234.648804 
L 343.361989 249.691866 
L 348.843807 249.806699 
L 354.325625 247.280383 
L 359.807443 247.16555 
L 365.289261 241.309091 
L 370.77108 242.801914 
L 376.252898 230.4 
L 381.734716 244.524402 
L 387.216534 240.275598 
L 392.698352 258.419139 
L 398.18017 243.720574 
L 398.18017 202.380861 
L 398.18017 202.380861 
L 392.698352 217.079426 
L 387.216534 198.935885 
L 381.734716 203.184689 
L 376.252898 189.060287 
L 370.77108 201.462201 
L 365.289261 199.969378 
L 359.807443 205.825837 
L 354.325625 205.94067 
L 348.843807 208.466986 
L 343.361989 208.352153 
L 337.88017 193.309091 
L 332.398352 205.251675 
L 326.916534 180.447847 
L 321.434716 210.189474 
L 315.952898 206.170335 
L 310.47108 197.098565 
L 304.989261 195.376077 
L 299.507443 190.438278 
L 294.025625 212.715789 
L 288.543807 193.079426 
L 283.061989 197.32823 
L 277.58017 205.711005 
L 272.098352 198.935885 
L 266.616534 212.371292 
L 261.134716 203.644019 
L 255.652898 191.01244 
L 250.17108 216.045933 
L 244.689261 197.902392 
L 239.207443 183.77799 
L 233.725625 206.170335 
L 228.243807 200.313876 
L 222.761989 214.323445 
L 217.28017 204.677512 
L 211.798352 202.036364 
L 206.316534 213.17512 
L 200.834716 208.007656 
L 195.352898 205.48134 
L 189.87108 206.4 
L 184.389261 182.285167 
L 178.907443 197.098565 
L 173.425625 205.596172 
L 167.943807 217.538756 
L 162.461989 196.409569 
L 156.98017 194.112919 
L 151.498352 196.983732 
L 146.016534 205.825837 
L 140.534716 205.711005 
L 135.052898 193.998086 
L 129.57108 182.285167 
L 124.089261 187.682297 
L 118.607443 200.428708 
L 113.125625 208.466986 
L 107.643807 195.490909 
L 102.161989 212.486124 
L 96.68017 203.529187 
L 91.198352 222.132057 
L 85.716534 208.122488 
L 80.234716 206.85933 
L 74.752898 195.950239 
L 69.27108 205.48134 
z
" style="fill:#008b8b;fill-opacity:0.3;"/>
   </g>
   <g id="matplotlib.axis_1">
    <g id="xtick_1">
     <g id="line2d_1">
      <path clip-path="url(#pb9761e4103)" d="M 69.27108 309.6 
L 69.27108 7.2 
" style="fill:none;stroke:#b0b0b0;stroke-linecap:square;stroke-width:0.8;"/>
     </g>
     <g id="line2d_2">
      <defs>
       <path d="M 0 0 
L 0 3.5 
" id="m181b2cfe13" style="stroke:#000000;stroke-width:0.8;"/>
      </defs>
      <g>
       <use style="stroke:#000000;stroke-width:0.8;" x="69.27108" xlink:href="#m181b2cfe13" y="309.6"/>
      </g>
     </g>
     <g id="text_1">
      <!-- 0 -->
      <g transform="translate(66.22983 324.761875)scale(0.12 -0.12)">
       <defs>
        <path d="M 3022 2031 
Q 3022 1566 2948 1181 
Q 2875 797 2704 520 
Q 2534 244 2259 92 
Q 1984 -59 1581 -59 
Q 1200 -59 939 77 
Q 678 213 518 477 
Q 359 741 292 1127 
Q 225 1513 225 2013 
Q 225 2475 300 2861 
Q 375 3247 544 3523 
Q 713 3800 988 3951 
Q 1263 4103 1663 4103 
Q 2047 4103 2308 3967 
Q 2569 3831 2728 3567 
Q 2888 3303 2955 2917 
Q 3022 2531 3022 2031 
z
M 2472 1994 
Q 2472 2297 2450 2537 
Q 2428 2778 2386 2962 
Q 2344 3147 2276 3280 
Q 2209 3413 2115 3498 
Q 2022 3584 1901 3623 
Q 1781 3663 1631 3663 
Q 1366 3663 1200 3538 
Q 1034 3413 939 3194 
Q 844 2975 809 2681 
Q 775 2388 775 2050 
Q 775 1597 822 1280 
Q 869 963 970 763 
Q 1072 563 1230 472 
Q 1388 381 1613 381 
Q 1788 381 1920 437 
Q 2053 494 2148 598 
Q 2244 703 2306 850 
Q 2369 997 2406 1175 
Q 2444 1353 2458 1561 
Q 2472 1769 2472 1994 
z
" id="Calibri-30" transform="scale(0.015625)"/>
       </defs>
       <use xlink:href="#Calibri-30"/>
      </g>
     </g>
    </g>
    <g id="xtick_2">
     <g id="line2d_3">
      <path clip-path="url(#pb9761e4103)" d="M 124.089261 309.6 
L 124.089261 7.2 
" style="fill:none;stroke:#b0b0b0;stroke-linecap:square;stroke-width:0.8;"/>
     </g>
     <g id="line2d_4">
      <g>
       <use style="stroke:#000000;stroke-width:0.8;" x="124.089261" xlink:href="#m181b2cfe13" y="309.6"/>
      </g>
     </g>
     <g id="text_2">
      <!-- 10 -->
      <g transform="translate(118.006761 324.761875)scale(0.12 -0.12)">
       <defs>
        <path d="M 2897 213 
Q 2897 153 2887 112 
Q 2878 72 2862 47 
Q 2847 22 2826 11 
Q 2806 0 2784 0 
L 672 0 
Q 650 0 631 11 
Q 613 22 595 47 
Q 578 72 568 112 
Q 559 153 559 213 
Q 559 269 568 309 
Q 578 350 592 376 
Q 606 403 626 417 
Q 647 431 672 431 
L 1516 431 
L 1516 3506 
L 734 3041 
Q 675 3009 639 3003 
Q 603 2997 581 3017 
Q 559 3038 551 3084 
Q 544 3131 544 3203 
Q 544 3256 548 3293 
Q 553 3331 562 3356 
Q 572 3381 589 3400 
Q 606 3419 634 3438 
L 1566 4034 
Q 1578 4044 1597 4050 
Q 1616 4056 1644 4062 
Q 1672 4069 1709 4070 
Q 1747 4072 1803 4072 
Q 1878 4072 1928 4065 
Q 1978 4059 2006 4048 
Q 2034 4038 2043 4020 
Q 2053 4003 2053 3984 
L 2053 431 
L 2784 431 
Q 2809 431 2831 417 
Q 2853 403 2867 376 
Q 2881 350 2889 309 
Q 2897 269 2897 213 
z
" id="Calibri-31" transform="scale(0.015625)"/>
       </defs>
       <use xlink:href="#Calibri-31"/>
       <use x="50.683594" xlink:href="#Calibri-30"/>
      </g>
     </g>
    </g>
    <g id="xtick_3">
     <g id="line2d_5">
      <path clip-path="url(#pb9761e4103)" d="M 178.907443 309.6 
L 178.907443 7.2 
" style="fill:none;stroke:#b0b0b0;stroke-linecap:square;stroke-width:0.8;"/>
     </g>
     <g id="line2d_6">
      <g>
       <use style="stroke:#000000;stroke-width:0.8;" x="178.907443" xlink:href="#m181b2cfe13" y="309.6"/>
      </g>
     </g>
     <g id="text_3">
      <!-- 20 -->
      <g transform="translate(172.824943 324.761875)scale(0.12 -0.12)">
       <defs>
        <path d="M 2888 231 
Q 2888 175 2880 131 
Q 2872 88 2858 58 
Q 2844 28 2820 14 
Q 2797 0 2769 0 
L 534 0 
Q 491 0 458 11 
Q 425 22 401 47 
Q 378 72 367 119 
Q 356 166 356 234 
Q 356 297 361 344 
Q 366 391 381 427 
Q 397 463 420 498 
Q 444 534 481 575 
L 1266 1406 
Q 1538 1694 1702 1922 
Q 1866 2150 1955 2337 
Q 2044 2525 2072 2678 
Q 2100 2831 2100 2966 
Q 2100 3100 2056 3220 
Q 2013 3341 1930 3431 
Q 1847 3522 1722 3575 
Q 1597 3628 1434 3628 
Q 1244 3628 1092 3575 
Q 941 3522 827 3459 
Q 713 3397 636 3344 
Q 559 3291 522 3291 
Q 500 3291 483 3303 
Q 466 3316 455 3344 
Q 444 3372 437 3419 
Q 431 3466 431 3531 
Q 431 3578 434 3612 
Q 438 3647 445 3672 
Q 453 3697 465 3719 
Q 478 3741 515 3773 
Q 553 3806 645 3862 
Q 738 3919 877 3973 
Q 1016 4028 1183 4065 
Q 1350 4103 1534 4103 
Q 1828 4103 2048 4020 
Q 2269 3938 2414 3794 
Q 2559 3650 2631 3459 
Q 2703 3269 2703 3053 
Q 2703 2859 2668 2667 
Q 2634 2475 2523 2251 
Q 2413 2028 2203 1754 
Q 1994 1481 1647 1125 
L 1006 456 
L 2766 456 
Q 2791 456 2814 442 
Q 2838 428 2855 400 
Q 2872 372 2880 330 
Q 2888 288 2888 231 
z
" id="Calibri-32" transform="scale(0.015625)"/>
       </defs>
       <use xlink:href="#Calibri-32"/>
       <use x="50.683594" xlink:href="#Calibri-30"/>
      </g>
     </g>
    </g>
    <g id="xtick_4">
     <g id="line2d_7">
      <path clip-path="url(#pb9761e4103)" d="M 233.725625 309.6 
L 233.725625 7.2 
" style="fill:none;stroke:#b0b0b0;stroke-linecap:square;stroke-width:0.8;"/>
     </g>
     <g id="line2d_8">
      <g>
       <use style="stroke:#000000;stroke-width:0.8;" x="233.725625" xlink:href="#m181b2cfe13" y="309.6"/>
      </g>
     </g>
     <g id="text_4">
      <!-- 30 -->
      <g transform="translate(227.643125 324.761875)scale(0.12 -0.12)">
       <defs>
        <path d="M 2856 1156 
Q 2856 878 2759 654 
Q 2663 431 2481 272 
Q 2300 113 2034 27 
Q 1769 -59 1434 -59 
Q 1231 -59 1054 -26 
Q 878 6 740 51 
Q 603 97 512 145 
Q 422 194 398 216 
Q 375 238 362 259 
Q 350 281 340 312 
Q 331 344 326 389 
Q 322 434 322 500 
Q 322 613 344 656 
Q 366 700 406 700 
Q 434 700 517 650 
Q 600 600 729 542 
Q 859 484 1032 434 
Q 1206 384 1419 384 
Q 1625 384 1781 437 
Q 1938 491 2044 587 
Q 2150 684 2203 817 
Q 2256 950 2256 1106 
Q 2256 1278 2189 1415 
Q 2122 1553 1992 1653 
Q 1863 1753 1673 1806 
Q 1484 1859 1244 1859 
L 859 1859 
Q 834 1859 811 1870 
Q 788 1881 770 1906 
Q 753 1931 742 1972 
Q 731 2013 731 2078 
Q 731 2138 740 2177 
Q 750 2216 767 2239 
Q 784 2263 806 2273 
Q 828 2284 856 2284 
L 1209 2284 
Q 1416 2284 1580 2337 
Q 1744 2391 1858 2491 
Q 1972 2591 2033 2730 
Q 2094 2869 2094 3041 
Q 2094 3166 2053 3280 
Q 2013 3394 1931 3478 
Q 1850 3563 1723 3611 
Q 1597 3659 1431 3659 
Q 1250 3659 1098 3604 
Q 947 3550 828 3487 
Q 709 3425 631 3370 
Q 553 3316 522 3316 
Q 500 3316 483 3323 
Q 466 3331 455 3354 
Q 444 3378 439 3420 
Q 434 3463 434 3531 
Q 434 3578 437 3614 
Q 441 3650 450 3676 
Q 459 3703 471 3725 
Q 484 3747 514 3776 
Q 544 3806 634 3862 
Q 725 3919 858 3973 
Q 991 4028 1164 4065 
Q 1338 4103 1538 4103 
Q 1819 4103 2031 4031 
Q 2244 3959 2386 3828 
Q 2528 3697 2598 3514 
Q 2669 3331 2669 3109 
Q 2669 2919 2619 2755 
Q 2569 2591 2472 2464 
Q 2375 2338 2234 2248 
Q 2094 2159 1909 2125 
L 1909 2119 
Q 2119 2097 2292 2014 
Q 2466 1931 2591 1806 
Q 2716 1681 2786 1514 
Q 2856 1347 2856 1156 
z
" id="Calibri-33" transform="scale(0.015625)"/>
       </defs>
       <use xlink:href="#Calibri-33"/>
       <use x="50.683594" xlink:href="#Calibri-30"/>
      </g>
     </g>
    </g>
    <g id="xtick_5">
     <g id="line2d_9">
      <path clip-path="url(#pb9761e4103)" d="M 288.543807 309.6 
L 288.543807 7.2 
" style="fill:none;stroke:#b0b0b0;stroke-linecap:square;stroke-width:0.8;"/>
     </g>
     <g id="line2d_10">
      <g>
       <use style="stroke:#000000;stroke-width:0.8;" x="288.543807" xlink:href="#m181b2cfe13" y="309.6"/>
      </g>
     </g>
     <g id="text_5">
      <!-- 40 -->
      <g transform="translate(282.461307 324.761875)scale(0.12 -0.12)">
       <defs>
        <path d="M 3059 1150 
Q 3059 1047 3028 987 
Q 2997 928 2941 928 
L 2484 928 
L 2484 78 
Q 2484 53 2471 36 
Q 2459 19 2428 6 
Q 2397 -6 2347 -12 
Q 2297 -19 2219 -19 
Q 2144 -19 2094 -12 
Q 2044 -6 2014 6 
Q 1984 19 1973 36 
Q 1963 53 1963 78 
L 1963 928 
L 294 928 
Q 256 928 231 937 
Q 206 947 186 972 
Q 166 997 158 1044 
Q 150 1091 150 1166 
Q 150 1225 153 1272 
Q 156 1319 165 1358 
Q 175 1397 190 1433 
Q 206 1469 228 1509 
L 1684 3966 
Q 1700 3991 1729 4009 
Q 1759 4028 1806 4040 
Q 1853 4053 1922 4058 
Q 1991 4063 2084 4063 
Q 2188 4063 2264 4055 
Q 2341 4047 2387 4034 
Q 2434 4022 2459 4001 
Q 2484 3981 2484 3953 
L 2484 1372 
L 2941 1372 
Q 2994 1372 3026 1317 
Q 3059 1263 3059 1150 
z
M 1963 3591 
L 1956 3591 
L 641 1372 
L 1963 1372 
L 1963 3591 
z
" id="Calibri-34" transform="scale(0.015625)"/>
       </defs>
       <use xlink:href="#Calibri-34"/>
       <use x="50.683594" xlink:href="#Calibri-30"/>
      </g>
     </g>
    </g>
    <g id="xtick_6">
     <g id="line2d_11">
      <path clip-path="url(#pb9761e4103)" d="M 343.361989 309.6 
L 343.361989 7.2 
" style="fill:none;stroke:#b0b0b0;stroke-linecap:square;stroke-width:0.8;"/>
     </g>
     <g id="line2d_12">
      <g>
       <use style="stroke:#000000;stroke-width:0.8;" x="343.361989" xlink:href="#m181b2cfe13" y="309.6"/>
      </g>
     </g>
     <g id="text_6">
      <!-- 50 -->
      <g transform="translate(337.279489 324.761875)scale(0.12 -0.12)">
       <defs>
        <path d="M 2869 1300 
Q 2869 975 2759 722 
Q 2650 469 2450 295 
Q 2250 122 1973 31 
Q 1697 -59 1359 -59 
Q 1172 -59 1003 -32 
Q 834 -6 703 33 
Q 572 72 487 109 
Q 403 147 379 169 
Q 356 191 347 209 
Q 338 228 330 254 
Q 322 281 319 322 
Q 316 363 316 419 
Q 316 472 320 514 
Q 325 556 337 582 
Q 350 609 367 621 
Q 384 634 406 634 
Q 438 634 503 595 
Q 569 556 680 511 
Q 791 466 955 425 
Q 1119 384 1344 384 
Q 1553 384 1728 434 
Q 1903 484 2029 590 
Q 2156 697 2228 858 
Q 2300 1019 2300 1250 
Q 2300 1444 2239 1592 
Q 2178 1741 2051 1839 
Q 1925 1938 1731 1986 
Q 1538 2034 1269 2034 
Q 1078 2034 940 2015 
Q 803 1997 684 1997 
Q 597 1997 559 2037 
Q 522 2078 522 2194 
L 522 3841 
Q 522 3944 570 3994 
Q 619 4044 709 4044 
L 2500 4044 
Q 2525 4044 2548 4030 
Q 2572 4016 2587 3987 
Q 2603 3959 2611 3915 
Q 2619 3872 2619 3813 
Q 2619 3700 2587 3637 
Q 2556 3575 2500 3575 
L 991 3575 
L 991 2441 
Q 1100 2456 1214 2459 
Q 1328 2463 1478 2463 
Q 1825 2463 2084 2380 
Q 2344 2297 2517 2145 
Q 2691 1994 2780 1778 
Q 2869 1563 2869 1300 
z
" id="Calibri-35" transform="scale(0.015625)"/>
       </defs>
       <use xlink:href="#Calibri-35"/>
       <use x="50.683594" xlink:href="#Calibri-30"/>
      </g>
     </g>
    </g>
    <g id="xtick_7">
     <g id="line2d_13">
      <path clip-path="url(#pb9761e4103)" d="M 398.18017 309.6 
L 398.18017 7.2 
" style="fill:none;stroke:#b0b0b0;stroke-linecap:square;stroke-width:0.8;"/>
     </g>
     <g id="line2d_14">
      <g>
       <use style="stroke:#000000;stroke-width:0.8;" x="398.18017" xlink:href="#m181b2cfe13" y="309.6"/>
      </g>
     </g>
     <g id="text_7">
      <!-- 60 -->
      <g transform="translate(392.09767 324.761875)scale(0.12 -0.12)">
       <defs>
        <path d="M 2991 1309 
Q 2991 1044 2909 795 
Q 2828 547 2659 358 
Q 2491 169 2231 55 
Q 1972 -59 1619 -59 
Q 1366 -59 1172 3 
Q 978 66 834 181 
Q 691 297 595 465 
Q 500 634 442 850 
Q 384 1066 359 1322 
Q 334 1578 334 1872 
Q 334 2131 362 2397 
Q 391 2663 462 2909 
Q 534 3156 657 3373 
Q 781 3591 967 3752 
Q 1153 3913 1412 4006 
Q 1672 4100 2016 4100 
Q 2131 4100 2250 4086 
Q 2369 4072 2469 4048 
Q 2569 4025 2637 3997 
Q 2706 3969 2728 3951 
Q 2750 3934 2761 3914 
Q 2772 3894 2778 3870 
Q 2784 3847 2787 3817 
Q 2791 3788 2791 3744 
Q 2791 3688 2789 3647 
Q 2788 3606 2777 3581 
Q 2766 3556 2748 3543 
Q 2731 3531 2703 3531 
Q 2669 3531 2609 3553 
Q 2550 3575 2465 3601 
Q 2381 3628 2261 3650 
Q 2141 3672 1981 3672 
Q 1691 3672 1481 3553 
Q 1272 3434 1139 3234 
Q 1006 3034 942 2770 
Q 878 2506 869 2219 
Q 950 2266 1051 2312 
Q 1153 2359 1273 2396 
Q 1394 2434 1528 2457 
Q 1663 2481 1816 2481 
Q 2144 2481 2369 2392 
Q 2594 2303 2733 2145 
Q 2872 1988 2931 1773 
Q 2991 1559 2991 1309 
z
M 2447 1259 
Q 2447 1441 2411 1589 
Q 2375 1738 2290 1841 
Q 2206 1944 2065 2000 
Q 1925 2056 1719 2056 
Q 1603 2056 1487 2036 
Q 1372 2016 1264 1980 
Q 1156 1944 1057 1895 
Q 959 1847 878 1791 
Q 878 1388 929 1116 
Q 981 844 1079 680 
Q 1178 516 1325 445 
Q 1472 375 1669 375 
Q 1869 375 2016 450 
Q 2163 525 2259 651 
Q 2356 778 2401 936 
Q 2447 1094 2447 1259 
z
" id="Calibri-36" transform="scale(0.015625)"/>
       </defs>
       <use xlink:href="#Calibri-36"/>
       <use x="50.683594" xlink:href="#Calibri-30"/>
      </g>
     </g>
    </g>
    <g id="text_8">
     <!-- Episode -->
     <g transform="translate(214.6175 339.0575)scale(0.12 -0.12)">
      <defs>
       <path d="M 2788 222 
Q 2788 166 2781 123 
Q 2775 81 2759 53 
Q 2744 25 2723 12 
Q 2703 0 2678 0 
L 738 0 
Q 666 0 602 48 
Q 538 97 538 219 
L 538 3825 
Q 538 3947 602 3995 
Q 666 4044 738 4044 
L 2656 4044 
Q 2681 4044 2701 4031 
Q 2722 4019 2734 3991 
Q 2747 3963 2755 3920 
Q 2763 3878 2763 3816 
Q 2763 3759 2755 3717 
Q 2747 3675 2734 3648 
Q 2722 3622 2701 3609 
Q 2681 3597 2656 3597 
L 1075 3597 
L 1075 2328 
L 2431 2328 
Q 2456 2328 2476 2314 
Q 2497 2300 2511 2275 
Q 2525 2250 2531 2206 
Q 2538 2163 2538 2103 
Q 2538 2047 2531 2006 
Q 2525 1966 2511 1941 
Q 2497 1916 2476 1905 
Q 2456 1894 2431 1894 
L 1075 1894 
L 1075 447 
L 2678 447 
Q 2703 447 2723 434 
Q 2744 422 2759 395 
Q 2775 369 2781 326 
Q 2788 284 2788 222 
z
" id="Calibri-45" transform="scale(0.015625)"/>
       <path d="M 3066 1528 
Q 3066 1159 2986 865 
Q 2906 572 2751 367 
Q 2597 163 2369 52 
Q 2141 -59 1847 -59 
Q 1722 -59 1615 -34 
Q 1509 -9 1407 44 
Q 1306 97 1206 178 
Q 1106 259 994 369 
L 994 -1038 
Q 994 -1063 981 -1081 
Q 969 -1100 941 -1112 
Q 913 -1125 863 -1131 
Q 813 -1138 734 -1138 
Q 659 -1138 609 -1131 
Q 559 -1125 529 -1112 
Q 500 -1100 489 -1081 
Q 478 -1063 478 -1038 
L 478 2891 
Q 478 2919 487 2936 
Q 497 2953 525 2965 
Q 553 2978 597 2983 
Q 641 2988 703 2988 
Q 769 2988 811 2983 
Q 853 2978 881 2965 
Q 909 2953 920 2936 
Q 931 2919 931 2891 
L 931 2513 
Q 1059 2644 1178 2741 
Q 1297 2838 1417 2902 
Q 1538 2966 1664 2998 
Q 1791 3031 1931 3031 
Q 2238 3031 2453 2912 
Q 2669 2794 2805 2587 
Q 2941 2381 3003 2107 
Q 3066 1834 3066 1528 
z
M 2522 1469 
Q 2522 1684 2489 1886 
Q 2456 2088 2376 2244 
Q 2297 2400 2162 2494 
Q 2028 2588 1828 2588 
Q 1728 2588 1631 2558 
Q 1534 2528 1434 2464 
Q 1334 2400 1225 2295 
Q 1116 2191 994 2038 
L 994 919 
Q 1206 659 1397 521 
Q 1588 384 1797 384 
Q 1991 384 2130 478 
Q 2269 572 2355 728 
Q 2441 884 2481 1078 
Q 2522 1272 2522 1469 
z
" id="Calibri-70" transform="scale(0.015625)"/>
       <path d="M 994 78 
Q 994 53 981 36 
Q 969 19 941 6 
Q 913 -6 863 -12 
Q 813 -19 734 -19 
Q 659 -19 609 -12 
Q 559 -6 529 6 
Q 500 19 489 36 
Q 478 53 478 78 
L 478 2891 
Q 478 2913 489 2931 
Q 500 2950 529 2962 
Q 559 2975 609 2981 
Q 659 2988 734 2988 
Q 813 2988 863 2981 
Q 913 2975 941 2962 
Q 969 2950 981 2931 
Q 994 2913 994 2891 
L 994 78 
z
M 1053 3841 
Q 1053 3659 984 3593 
Q 916 3528 731 3528 
Q 550 3528 483 3592 
Q 416 3656 416 3834 
Q 416 4016 484 4081 
Q 553 4147 738 4147 
Q 919 4147 986 4083 
Q 1053 4019 1053 3841 
z
" id="Calibri-69" transform="scale(0.015625)"/>
       <path d="M 2244 844 
Q 2244 628 2164 459 
Q 2084 291 1937 175 
Q 1791 59 1587 0 
Q 1384 -59 1141 -59 
Q 991 -59 855 -36 
Q 719 -13 611 23 
Q 503 59 428 98 
Q 353 138 318 169 
Q 284 200 268 256 
Q 253 313 253 409 
Q 253 469 259 509 
Q 266 550 275 575 
Q 284 600 301 611 
Q 319 622 341 622 
Q 375 622 442 580 
Q 509 538 607 488 
Q 706 438 840 395 
Q 975 353 1150 353 
Q 1281 353 1387 381 
Q 1494 409 1572 464 
Q 1650 519 1692 603 
Q 1734 688 1734 803 
Q 1734 922 1673 1003 
Q 1613 1084 1513 1146 
Q 1413 1209 1288 1257 
Q 1163 1306 1030 1359 
Q 897 1413 770 1480 
Q 644 1547 544 1644 
Q 444 1741 383 1875 
Q 322 2009 322 2197 
Q 322 2363 386 2514 
Q 450 2666 578 2780 
Q 706 2894 898 2962 
Q 1091 3031 1347 3031 
Q 1459 3031 1571 3012 
Q 1684 2994 1775 2966 
Q 1866 2938 1930 2905 
Q 1994 2872 2026 2847 
Q 2059 2822 2070 2803 
Q 2081 2784 2086 2761 
Q 2091 2738 2095 2703 
Q 2100 2669 2100 2619 
Q 2100 2566 2095 2527 
Q 2091 2488 2080 2463 
Q 2069 2438 2053 2427 
Q 2038 2416 2019 2416 
Q 1991 2416 1937 2450 
Q 1884 2484 1800 2523 
Q 1716 2563 1602 2597 
Q 1488 2631 1341 2631 
Q 1209 2631 1109 2601 
Q 1009 2572 945 2517 
Q 881 2463 848 2388 
Q 816 2313 816 2225 
Q 816 2103 878 2020 
Q 941 1938 1041 1875 
Q 1141 1813 1269 1763 
Q 1397 1713 1530 1659 
Q 1663 1606 1792 1540 
Q 1922 1475 2022 1381 
Q 2122 1288 2183 1156 
Q 2244 1025 2244 844 
z
" id="Calibri-73" transform="scale(0.015625)"/>
       <path d="M 3094 1516 
Q 3094 1172 3003 883 
Q 2913 594 2733 384 
Q 2553 175 2283 58 
Q 2013 -59 1656 -59 
Q 1309 -59 1051 44 
Q 794 147 622 344 
Q 450 541 365 822 
Q 281 1103 281 1459 
Q 281 1803 370 2092 
Q 459 2381 639 2590 
Q 819 2800 1087 2915 
Q 1356 3031 1716 3031 
Q 2063 3031 2320 2928 
Q 2578 2825 2750 2628 
Q 2922 2431 3008 2150 
Q 3094 1869 3094 1516 
z
M 2550 1481 
Q 2550 1709 2508 1912 
Q 2466 2116 2369 2269 
Q 2272 2422 2106 2511 
Q 1941 2600 1694 2600 
Q 1466 2600 1302 2519 
Q 1138 2438 1031 2289 
Q 925 2141 873 1937 
Q 822 1734 822 1494 
Q 822 1263 864 1059 
Q 906 856 1004 704 
Q 1103 553 1268 464 
Q 1434 375 1681 375 
Q 1906 375 2072 456 
Q 2238 538 2344 684 
Q 2450 831 2500 1034 
Q 2550 1238 2550 1481 
z
" id="Calibri-6f" transform="scale(0.015625)"/>
       <path d="M 2888 78 
Q 2888 53 2877 34 
Q 2866 16 2839 5 
Q 2813 -6 2769 -12 
Q 2725 -19 2663 -19 
Q 2597 -19 2553 -12 
Q 2509 -6 2481 5 
Q 2453 16 2440 34 
Q 2428 53 2428 78 
L 2428 450 
Q 2206 209 1967 75 
Q 1728 -59 1444 -59 
Q 1134 -59 915 61 
Q 697 181 561 386 
Q 425 591 362 867 
Q 300 1144 300 1450 
Q 300 1813 378 2105 
Q 456 2397 609 2603 
Q 763 2809 989 2920 
Q 1216 3031 1513 3031 
Q 1759 3031 1964 2923 
Q 2169 2816 2369 2606 
L 2369 4241 
Q 2369 4263 2380 4283 
Q 2391 4303 2422 4314 
Q 2453 4325 2501 4333 
Q 2550 4341 2625 4341 
Q 2703 4341 2753 4333 
Q 2803 4325 2831 4314 
Q 2859 4303 2873 4283 
Q 2888 4263 2888 4241 
L 2888 78 
z
M 2369 2056 
Q 2159 2316 1964 2452 
Q 1769 2588 1556 2588 
Q 1359 2588 1221 2494 
Q 1084 2400 998 2247 
Q 913 2094 873 1900 
Q 834 1706 834 1506 
Q 834 1294 867 1091 
Q 900 888 981 730 
Q 1063 572 1197 476 
Q 1331 381 1534 381 
Q 1638 381 1733 409 
Q 1828 438 1928 503 
Q 2028 569 2137 673 
Q 2247 778 2369 931 
L 2369 2056 
z
" id="Calibri-64" transform="scale(0.015625)"/>
       <path d="M 2878 1606 
Q 2878 1484 2817 1432 
Q 2756 1381 2678 1381 
L 834 1381 
Q 834 1147 881 959 
Q 928 772 1037 637 
Q 1147 503 1322 431 
Q 1497 359 1750 359 
Q 1950 359 2106 392 
Q 2263 425 2377 465 
Q 2491 506 2564 539 
Q 2638 572 2675 572 
Q 2697 572 2714 561 
Q 2731 550 2740 528 
Q 2750 506 2754 467 
Q 2759 428 2759 372 
Q 2759 331 2756 301 
Q 2753 272 2748 248 
Q 2744 225 2733 206 
Q 2722 188 2705 170 
Q 2688 153 2603 114 
Q 2519 75 2384 37 
Q 2250 0 2073 -29 
Q 1897 -59 1697 -59 
Q 1350 -59 1089 37 
Q 828 134 650 325 
Q 472 516 381 803 
Q 291 1091 291 1472 
Q 291 1834 384 2123 
Q 478 2413 654 2614 
Q 831 2816 1081 2923 
Q 1331 3031 1641 3031 
Q 1972 3031 2205 2925 
Q 2438 2819 2588 2639 
Q 2738 2459 2808 2217 
Q 2878 1975 2878 1700 
L 2878 1606 
z
M 2359 1759 
Q 2369 2166 2180 2397 
Q 1991 2628 1619 2628 
Q 1428 2628 1284 2556 
Q 1141 2484 1044 2365 
Q 947 2247 894 2089 
Q 841 1931 834 1759 
L 2359 1759 
z
" id="Calibri-65" transform="scale(0.015625)"/>
      </defs>
      <use xlink:href="#Calibri-45"/>
      <use x="48.828125" xlink:href="#Calibri-70"/>
      <use x="101.367188" xlink:href="#Calibri-69"/>
      <use x="124.316406" xlink:href="#Calibri-73"/>
      <use x="163.427734" xlink:href="#Calibri-6f"/>
      <use x="216.162109" xlink:href="#Calibri-64"/>
      <use x="268.701172" xlink:href="#Calibri-65"/>
     </g>
    </g>
   </g>
   <g id="matplotlib.axis_2">
    <g id="ytick_1">
     <g id="line2d_15">
      <path clip-path="url(#pb9761e4103)" d="M 52.825625 266.687081 
L 414.625625 266.687081 
" style="fill:none;stroke:#b0b0b0;stroke-linecap:square;stroke-width:0.8;"/>
     </g>
     <g id="line2d_16">
      <defs>
       <path d="M 0 0 
L -3.5 0 
" id="m22dbc604db" style="stroke:#000000;stroke-width:0.8;"/>
      </defs>
      <g>
       <use style="stroke:#000000;stroke-width:0.8;" x="52.825625" xlink:href="#m22dbc604db" y="266.687081"/>
      </g>
     </g>
     <g id="text_9">
      <!-- 500 -->
      <g transform="translate(27.578125 270.768019)scale(0.12 -0.12)">
       <use xlink:href="#Calibri-35"/>
       <use x="50.683594" xlink:href="#Calibri-30"/>
       <use x="101.367188" xlink:href="#Calibri-30"/>
      </g>
     </g>
    </g>
    <g id="ytick_2">
     <g id="line2d_17">
      <path clip-path="url(#pb9761e4103)" d="M 52.825625 209.270813 
L 414.625625 209.270813 
" style="fill:none;stroke:#b0b0b0;stroke-linecap:square;stroke-width:0.8;"/>
     </g>
     <g id="line2d_18">
      <g>
       <use style="stroke:#000000;stroke-width:0.8;" x="52.825625" xlink:href="#m22dbc604db" y="209.270813"/>
      </g>
     </g>
     <g id="text_10">
      <!-- 1000 -->
      <g transform="translate(21.495625 213.351751)scale(0.12 -0.12)">
       <use xlink:href="#Calibri-31"/>
       <use x="50.683594" xlink:href="#Calibri-30"/>
       <use x="101.367188" xlink:href="#Calibri-30"/>
       <use x="152.050781" xlink:href="#Calibri-30"/>
      </g>
     </g>
    </g>
    <g id="ytick_3">
     <g id="line2d_19">
      <path clip-path="url(#pb9761e4103)" d="M 52.825625 151.854545 
L 414.625625 151.854545 
" style="fill:none;stroke:#b0b0b0;stroke-linecap:square;stroke-width:0.8;"/>
     </g>
     <g id="line2d_20">
      <g>
       <use style="stroke:#000000;stroke-width:0.8;" x="52.825625" xlink:href="#m22dbc604db" y="151.854545"/>
      </g>
     </g>
     <g id="text_11">
      <!-- 1500 -->
      <g transform="translate(21.495625 155.935483)scale(0.12 -0.12)">
       <use xlink:href="#Calibri-31"/>
       <use x="50.683594" xlink:href="#Calibri-35"/>
       <use x="101.367188" xlink:href="#Calibri-30"/>
       <use x="152.050781" xlink:href="#Calibri-30"/>
      </g>
     </g>
    </g>
    <g id="ytick_4">
     <g id="line2d_21">
      <path clip-path="url(#pb9761e4103)" d="M 52.825625 94.438278 
L 414.625625 94.438278 
" style="fill:none;stroke:#b0b0b0;stroke-linecap:square;stroke-width:0.8;"/>
     </g>
     <g id="line2d_22">
      <g>
       <use style="stroke:#000000;stroke-width:0.8;" x="52.825625" xlink:href="#m22dbc604db" y="94.438278"/>
      </g>
     </g>
     <g id="text_12">
      <!-- 2000 -->
      <g transform="translate(21.495625 98.519215)scale(0.12 -0.12)">
       <use xlink:href="#Calibri-32"/>
       <use x="50.683594" xlink:href="#Calibri-30"/>
       <use x="101.367188" xlink:href="#Calibri-30"/>
       <use x="152.050781" xlink:href="#Calibri-30"/>
      </g>
     </g>
    </g>
    <g id="ytick_5">
     <g id="line2d_23">
      <path clip-path="url(#pb9761e4103)" d="M 52.825625 37.02201 
L 414.625625 37.02201 
" style="fill:none;stroke:#b0b0b0;stroke-linecap:square;stroke-width:0.8;"/>
     </g>
     <g id="line2d_24">
      <g>
       <use style="stroke:#000000;stroke-width:0.8;" x="52.825625" xlink:href="#m22dbc604db" y="37.02201"/>
      </g>
     </g>
     <g id="text_13">
      <!-- 2500 -->
      <g transform="translate(21.495625 41.102947)scale(0.12 -0.12)">
       <use xlink:href="#Calibri-32"/>
       <use x="50.683594" xlink:href="#Calibri-35"/>
       <use x="101.367188" xlink:href="#Calibri-30"/>
       <use x="152.050781" xlink:href="#Calibri-30"/>
      </g>
     </g>
    </g>
    <g id="text_14">
     <!-- Collective return -->
     <g transform="translate(15.361875 198.962812)rotate(-90)scale(0.12 -0.12)">
      <defs>
       <path d="M 3238 572 
Q 3238 522 3234 484 
Q 3231 447 3223 419 
Q 3216 391 3203 369 
Q 3191 347 3159 315 
Q 3128 284 3028 220 
Q 2928 156 2779 95 
Q 2631 34 2439 -8 
Q 2247 -50 2019 -50 
Q 1625 -50 1308 81 
Q 991 213 767 469 
Q 544 725 423 1101 
Q 303 1478 303 1969 
Q 303 2472 433 2865 
Q 563 3259 797 3532 
Q 1031 3806 1357 3950 
Q 1684 4094 2081 4094 
Q 2256 4094 2422 4061 
Q 2588 4028 2728 3978 
Q 2869 3928 2978 3862 
Q 3088 3797 3130 3755 
Q 3172 3713 3184 3691 
Q 3197 3669 3205 3639 
Q 3213 3609 3217 3568 
Q 3222 3528 3222 3472 
Q 3222 3409 3215 3365 
Q 3209 3322 3196 3292 
Q 3184 3263 3167 3248 
Q 3150 3234 3125 3234 
Q 3081 3234 3003 3295 
Q 2925 3356 2801 3429 
Q 2678 3503 2501 3564 
Q 2325 3625 2078 3625 
Q 1809 3625 1589 3517 
Q 1369 3409 1212 3200 
Q 1056 2991 970 2689 
Q 884 2388 884 2000 
Q 884 1616 967 1320 
Q 1050 1025 1204 826 
Q 1359 628 1584 526 
Q 1809 425 2094 425 
Q 2334 425 2514 484 
Q 2694 544 2820 617 
Q 2947 691 3028 750 
Q 3109 809 3156 809 
Q 3178 809 3193 800 
Q 3209 791 3218 764 
Q 3228 738 3233 691 
Q 3238 644 3238 572 
z
" id="Calibri-43" transform="scale(0.015625)"/>
       <path d="M 994 78 
Q 994 53 981 36 
Q 969 19 941 6 
Q 913 -6 863 -12 
Q 813 -19 734 -19 
Q 659 -19 609 -12 
Q 559 -6 529 6 
Q 500 19 489 36 
Q 478 53 478 78 
L 478 4253 
Q 478 4278 489 4297 
Q 500 4316 529 4328 
Q 559 4341 609 4347 
Q 659 4353 734 4353 
Q 813 4353 863 4347 
Q 913 4341 941 4328 
Q 969 4316 981 4297 
Q 994 4278 994 4253 
L 994 78 
z
" id="Calibri-6c" transform="scale(0.015625)"/>
       <path d="M 2500 506 
Q 2500 453 2497 414 
Q 2494 375 2486 348 
Q 2478 322 2467 301 
Q 2456 281 2417 242 
Q 2378 203 2284 145 
Q 2191 88 2073 42 
Q 1956 -3 1818 -31 
Q 1681 -59 1534 -59 
Q 1231 -59 997 41 
Q 763 141 605 333 
Q 447 525 364 804 
Q 281 1084 281 1450 
Q 281 1866 382 2164 
Q 484 2463 661 2653 
Q 838 2844 1077 2936 
Q 1316 3028 1594 3028 
Q 1728 3028 1854 3003 
Q 1981 2978 2087 2937 
Q 2194 2897 2276 2844 
Q 2359 2791 2396 2753 
Q 2434 2716 2448 2694 
Q 2463 2672 2472 2642 
Q 2481 2613 2484 2575 
Q 2488 2538 2488 2481 
Q 2488 2359 2459 2311 
Q 2431 2263 2391 2263 
Q 2344 2263 2283 2314 
Q 2222 2366 2128 2428 
Q 2034 2491 1901 2542 
Q 1769 2594 1588 2594 
Q 1216 2594 1017 2308 
Q 819 2022 819 1478 
Q 819 1206 870 1001 
Q 922 797 1022 659 
Q 1122 522 1267 455 
Q 1413 388 1600 388 
Q 1778 388 1912 444 
Q 2047 500 2145 567 
Q 2244 634 2311 689 
Q 2378 744 2416 744 
Q 2438 744 2453 731 
Q 2469 719 2480 689 
Q 2491 659 2495 614 
Q 2500 569 2500 506 
z
" id="Calibri-63" transform="scale(0.015625)"/>
       <path d="M 1941 284 
Q 1941 194 1928 141 
Q 1916 88 1891 63 
Q 1866 38 1816 16 
Q 1766 -6 1702 -20 
Q 1638 -34 1566 -43 
Q 1494 -53 1422 -53 
Q 1203 -53 1047 5 
Q 891 63 791 180 
Q 691 297 645 476 
Q 600 656 600 900 
L 600 2544 
L 206 2544 
Q 159 2544 131 2594 
Q 103 2644 103 2756 
Q 103 2816 111 2856 
Q 119 2897 131 2923 
Q 144 2950 164 2961 
Q 184 2972 209 2972 
L 600 2972 
L 600 3641 
Q 600 3663 611 3681 
Q 622 3700 651 3714 
Q 681 3728 731 3734 
Q 781 3741 856 3741 
Q 934 3741 984 3734 
Q 1034 3728 1062 3714 
Q 1091 3700 1103 3681 
Q 1116 3663 1116 3641 
L 1116 2972 
L 1838 2972 
Q 1863 2972 1881 2961 
Q 1900 2950 1914 2923 
Q 1928 2897 1934 2856 
Q 1941 2816 1941 2756 
Q 1941 2644 1912 2594 
Q 1884 2544 1838 2544 
L 1116 2544 
L 1116 975 
Q 1116 684 1202 536 
Q 1288 388 1509 388 
Q 1581 388 1637 402 
Q 1694 416 1737 431 
Q 1781 447 1812 461 
Q 1844 475 1869 475 
Q 1884 475 1898 467 
Q 1913 459 1920 437 
Q 1928 416 1934 378 
Q 1941 341 1941 284 
z
" id="Calibri-74" transform="scale(0.015625)"/>
       <path d="M 2784 2897 
Q 2784 2884 2782 2870 
Q 2781 2856 2778 2840 
Q 2775 2825 2770 2806 
Q 2766 2788 2759 2766 
L 1800 94 
Q 1788 59 1767 37 
Q 1747 16 1706 3 
Q 1666 -9 1603 -14 
Q 1541 -19 1447 -19 
Q 1353 -19 1290 -12 
Q 1228 -6 1189 6 
Q 1150 19 1128 41 
Q 1106 63 1094 94 
L 138 2766 
Q 125 2803 117 2831 
Q 109 2859 107 2873 
Q 106 2888 106 2897 
Q 106 2922 118 2940 
Q 131 2959 161 2970 
Q 191 2981 239 2984 
Q 288 2988 359 2988 
Q 450 2988 504 2983 
Q 559 2978 589 2965 
Q 619 2953 633 2934 
Q 647 2916 659 2888 
L 1453 569 
L 1466 531 
L 1475 569 
L 2259 2888 
Q 2266 2916 2281 2934 
Q 2297 2953 2326 2965 
Q 2356 2978 2407 2983 
Q 2459 2988 2544 2988 
Q 2616 2988 2662 2984 
Q 2709 2981 2736 2968 
Q 2763 2956 2773 2939 
Q 2784 2922 2784 2897 
z
" id="Calibri-76" transform="scale(0.015625)"/>
       <path id="Calibri-20" transform="scale(0.015625)"/>
       <path d="M 2122 2706 
Q 2122 2638 2119 2591 
Q 2116 2544 2106 2517 
Q 2097 2491 2083 2477 
Q 2069 2463 2044 2463 
Q 2019 2463 1983 2477 
Q 1947 2491 1901 2505 
Q 1856 2519 1800 2531 
Q 1744 2544 1678 2544 
Q 1600 2544 1525 2512 
Q 1450 2481 1367 2409 
Q 1284 2338 1193 2219 
Q 1103 2100 994 1928 
L 994 78 
Q 994 53 981 36 
Q 969 19 941 6 
Q 913 -6 863 -12 
Q 813 -19 734 -19 
Q 659 -19 609 -12 
Q 559 -6 529 6 
Q 500 19 489 36 
Q 478 53 478 78 
L 478 2891 
Q 478 2916 487 2933 
Q 497 2950 525 2964 
Q 553 2978 597 2983 
Q 641 2988 713 2988 
Q 781 2988 826 2983 
Q 872 2978 897 2964 
Q 922 2950 933 2933 
Q 944 2916 944 2891 
L 944 2481 
Q 1059 2650 1161 2756 
Q 1263 2863 1353 2923 
Q 1444 2984 1533 3007 
Q 1622 3031 1713 3031 
Q 1753 3031 1804 3026 
Q 1856 3022 1912 3009 
Q 1969 2997 2014 2981 
Q 2059 2966 2078 2950 
Q 2097 2934 2103 2920 
Q 2109 2906 2114 2884 
Q 2119 2863 2120 2820 
Q 2122 2778 2122 2706 
z
" id="Calibri-72" transform="scale(0.015625)"/>
       <path d="M 2888 78 
Q 2888 53 2877 36 
Q 2866 19 2837 6 
Q 2809 -6 2764 -12 
Q 2719 -19 2653 -19 
Q 2581 -19 2536 -12 
Q 2491 -6 2464 6 
Q 2438 19 2428 36 
Q 2419 53 2419 78 
L 2419 450 
Q 2178 184 1943 62 
Q 1709 -59 1469 -59 
Q 1188 -59 995 34 
Q 803 128 684 289 
Q 566 450 514 664 
Q 463 878 463 1184 
L 463 2891 
Q 463 2916 473 2933 
Q 484 2950 515 2964 
Q 547 2978 597 2983 
Q 647 2988 722 2988 
Q 797 2988 847 2983 
Q 897 2978 926 2964 
Q 956 2950 968 2933 
Q 981 2916 981 2891 
L 981 1253 
Q 981 1006 1017 857 
Q 1053 709 1126 604 
Q 1200 500 1312 442 
Q 1425 384 1575 384 
Q 1769 384 1961 521 
Q 2153 659 2369 925 
L 2369 2891 
Q 2369 2916 2380 2933 
Q 2391 2950 2422 2964 
Q 2453 2978 2501 2983 
Q 2550 2988 2628 2988 
Q 2703 2988 2753 2983 
Q 2803 2978 2831 2964 
Q 2859 2950 2873 2933 
Q 2888 2916 2888 2891 
L 2888 78 
z
" id="Calibri-75" transform="scale(0.015625)"/>
       <path d="M 2900 78 
Q 2900 53 2887 36 
Q 2875 19 2847 6 
Q 2819 -6 2769 -12 
Q 2719 -19 2644 -19 
Q 2566 -19 2516 -12 
Q 2466 -6 2437 6 
Q 2409 19 2396 36 
Q 2384 53 2384 78 
L 2384 1725 
Q 2384 1966 2346 2112 
Q 2309 2259 2237 2365 
Q 2166 2472 2052 2528 
Q 1938 2584 1788 2584 
Q 1594 2584 1400 2446 
Q 1206 2309 994 2044 
L 994 78 
Q 994 53 981 36 
Q 969 19 941 6 
Q 913 -6 863 -12 
Q 813 -19 734 -19 
Q 659 -19 609 -12 
Q 559 -6 529 6 
Q 500 19 489 36 
Q 478 53 478 78 
L 478 2891 
Q 478 2916 487 2933 
Q 497 2950 525 2964 
Q 553 2978 597 2983 
Q 641 2988 713 2988 
Q 781 2988 826 2983 
Q 872 2978 897 2964 
Q 922 2950 933 2933 
Q 944 2916 944 2891 
L 944 2519 
Q 1181 2784 1417 2907 
Q 1653 3031 1894 3031 
Q 2175 3031 2367 2936 
Q 2559 2841 2678 2681 
Q 2797 2522 2848 2308 
Q 2900 2094 2900 1794 
L 2900 78 
z
" id="Calibri-6e" transform="scale(0.015625)"/>
      </defs>
      <use xlink:href="#Calibri-43"/>
      <use x="53.320312" xlink:href="#Calibri-6f"/>
      <use x="106.054688" xlink:href="#Calibri-6c"/>
      <use x="129.003906" xlink:href="#Calibri-6c"/>
      <use x="151.953125" xlink:href="#Calibri-65"/>
      <use x="201.708984" xlink:href="#Calibri-63"/>
      <use x="243.994141" xlink:href="#Calibri-74"/>
      <use x="277.490234" xlink:href="#Calibri-69"/>
      <use x="300.439453" xlink:href="#Calibri-76"/>
      <use x="345.605469" xlink:href="#Calibri-65"/>
      <use x="395.361328" xlink:href="#Calibri-20"/>
      <use x="417.96875" xlink:href="#Calibri-72"/>
      <use x="452.832031" xlink:href="#Calibri-65"/>
      <use x="502.587891" xlink:href="#Calibri-74"/>
      <use x="536.083984" xlink:href="#Calibri-75"/>
      <use x="588.623047" xlink:href="#Calibri-72"/>
      <use x="623.486328" xlink:href="#Calibri-6e"/>
     </g>
    </g>
   </g>
   <g id="line2d_25">
    <path clip-path="url(#pb9761e4103)" d="M 69.27108 247.969378 
L 74.752898 237.060287 
L 80.234716 232.352153 
L 85.716534 227.184689 
L 91.198352 164.715789 
L 96.68017 161.730144 
L 102.161989 145.768421 
L 107.643807 140.141627 
L 113.125625 116.600957 
L 118.607443 104.543541 
L 124.089261 93.404785 
L 129.57108 83.644019 
L 135.052898 96.620096 
L 140.534716 97.309091 
L 146.016534 85.825837 
L 151.498352 98.457416 
L 156.98017 95.586603 
L 162.461989 108.218182 
L 167.943807 138.993301 
L 173.425625 95.242105 
L 178.907443 104.199043 
L 184.389261 92.945455 
L 189.87108 92.486124 
L 195.352898 93.978947 
L 200.834716 74.227751 
L 206.316534 71.242105 
L 211.798352 107.184689 
L 217.28017 65.615311 
L 222.761989 73.653589 
L 228.243807 87.088995 
L 233.725625 103.16555 
L 239.207443 84.103349 
L 244.689261 79.854545 
L 250.17108 75.490909 
L 255.652898 57.806699 
L 261.134716 53.672727 
L 266.616534 72.620096 
L 272.098352 73.883254 
L 277.58017 55.050718 
L 283.061989 52.179904 
L 288.543807 62.514833 
L 294.025625 85.02201 
L 299.507443 51.261244 
L 304.989261 68.371292 
L 310.47108 62.4 
L 315.952898 71.701435 
L 321.434716 70.667943 
L 326.916534 67.108134 
L 332.398352 54.70622 
L 337.88017 61.136842 
L 343.361989 53.098565 
L 348.843807 81.002871 
L 354.325625 74.227751 
L 359.807443 62.170335 
L 365.289261 41.615311 
L 370.77108 53.32823 
L 376.252898 64.696651 
L 381.734716 60.677512 
L 387.216534 63.663158 
L 392.698352 60.907177 
L 398.18017 50.112919 
" style="fill:none;stroke:#0000ff;stroke-linecap:square;stroke-width:1.1;"/>
   </g>
   <g id="line2d_26">
    <path clip-path="url(#pb9761e4103)" d="M 69.27108 275.184689 
L 74.752898 249.806699 
L 80.234716 222.476555 
L 85.716534 209.959809 
L 91.198352 172.983732 
L 96.68017 133.711005 
L 102.161989 134.744498 
L 107.643807 174.361722 
L 113.125625 172.294737 
L 118.607443 150.591388 
L 124.089261 134.85933 
L 129.57108 132.562679 
L 135.052898 184.007656 
L 140.534716 155.529187 
L 146.016534 137.959809 
L 151.498352 157.02201 
L 156.98017 173.32823 
L 162.461989 118.438278 
L 167.943807 186.648804 
L 173.425625 148.983732 
L 178.907443 159.433493 
L 184.389261 171.490909 
L 189.87108 128.313876 
L 195.352898 157.02201 
L 200.834716 132.103349 
L 206.316534 161.385646 
L 211.798352 165.17512 
L 217.28017 133.251675 
L 222.761989 158.170335 
L 228.243807 141.519617 
L 233.725625 153.002871 
L 239.207443 149.443062 
L 244.689261 147.031579 
L 250.17108 155.069856 
L 255.652898 146.112919 
L 261.134716 162.419139 
L 266.616534 167.242105 
L 272.098352 167.816268 
L 277.58017 153.577033 
L 283.061989 153.462201 
L 288.543807 144.849761 
L 294.025625 160.811483 
L 299.507443 156.562679 
L 304.989261 152.543541 
L 310.47108 159.892823 
L 315.952898 158.285167 
L 321.434716 143.586603 
L 326.916534 148.065072 
L 332.398352 146.572249 
L 337.88017 152.658373 
L 343.361989 147.835407 
L 348.843807 153.462201 
L 354.325625 144.275598 
L 359.807443 156.562679 
L 365.289261 157.251675 
L 370.77108 160.581818 
L 376.252898 162.189474 
L 381.734716 145.653589 
L 387.216534 155.414354 
L 392.698352 165.17512 
L 398.18017 144.045933 
" style="fill:none;stroke:#800080;stroke-linecap:square;stroke-width:1.1;"/>
   </g>
   <g id="line2d_27">
    <path clip-path="url(#pb9761e4103)" d="M 69.27108 226.151196 
L 74.752898 216.620096 
L 80.234716 227.529187 
L 85.716534 228.792344 
L 91.198352 242.801914 
L 96.68017 224.199043 
L 102.161989 233.155981 
L 107.643807 216.160766 
L 113.125625 229.136842 
L 118.607443 221.098565 
L 124.089261 208.352153 
L 129.57108 202.955024 
L 135.052898 214.667943 
L 140.534716 226.380861 
L 146.016534 226.495694 
L 151.498352 217.653589 
L 156.98017 214.782775 
L 162.461989 217.079426 
L 167.943807 238.208612 
L 173.425625 226.266029 
L 178.907443 217.768421 
L 184.389261 202.955024 
L 189.87108 227.069856 
L 195.352898 226.151196 
L 200.834716 228.677512 
L 206.316534 233.844976 
L 211.798352 222.70622 
L 217.28017 225.347368 
L 222.761989 234.993301 
L 228.243807 220.983732 
L 233.725625 226.840191 
L 239.207443 204.447847 
L 244.689261 218.572249 
L 250.17108 236.715789 
L 255.652898 211.682297 
L 261.134716 224.313876 
L 266.616534 233.041148 
L 272.098352 219.605742 
L 277.58017 226.380861 
L 283.061989 217.998086 
L 288.543807 213.749282 
L 294.025625 233.385646 
L 299.507443 211.108134 
L 304.989261 216.045933 
L 310.47108 217.768421 
L 315.952898 226.840191 
L 321.434716 230.85933 
L 326.916534 201.117703 
L 332.398352 225.921531 
L 337.88017 213.978947 
L 343.361989 229.02201 
L 348.843807 229.136842 
L 354.325625 226.610526 
L 359.807443 226.495694 
L 365.289261 220.639234 
L 370.77108 222.132057 
L 376.252898 209.730144 
L 381.734716 223.854545 
L 387.216534 219.605742 
L 392.698352 237.749282 
L 398.18017 223.050718 
" style="fill:none;stroke:#2f4f4f;stroke-linecap:square;stroke-width:1.1;"/>
   </g>
   <g id="patch_3">
    <path d="M 52.825625 309.6 
L 52.825625 7.2 
" style="fill:none;stroke:#000000;stroke-linecap:square;stroke-linejoin:miter;stroke-width:0.8;"/>
   </g>
   <g id="patch_4">
    <path d="M 414.625625 309.6 
L 414.625625 7.2 
" style="fill:none;stroke:#000000;stroke-linecap:square;stroke-linejoin:miter;stroke-width:0.8;"/>
   </g>
   <g id="patch_5">
    <path d="M 52.825625 309.6 
L 414.625625 309.6 
" style="fill:none;stroke:#000000;stroke-linecap:square;stroke-linejoin:miter;stroke-width:0.8;"/>
   </g>
   <g id="patch_6">
    <path d="M 52.825625 7.2 
L 414.625625 7.2 
" style="fill:none;stroke:#000000;stroke-linecap:square;stroke-linejoin:miter;stroke-width:0.8;"/>
   </g>
   <g id="legend_1">
    <g id="patch_7">
     <path d="M 420.243625 309.6 
L 527.878 309.6 
Q 529.878 309.6 529.878 307.6 
L 529.878 267.25625 
Q 529.878 265.25625 527.878 265.25625 
L 420.243625 265.25625 
Q 418.243625 265.25625 418.243625 267.25625 
L 418.243625 307.6 
Q 418.243625 309.6 420.243625 309.6 
z
" style="fill:#ffffff;opacity:0.8;stroke:#cccccc;stroke-linejoin:miter;"/>
    </g>
    <g id="line2d_28">
     <path d="M 422.243625 272.75625 
L 442.243625 272.75625 
" style="fill:none;stroke:#0000ff;stroke-linecap:square;stroke-width:1.1;"/>
    </g>
    <g id="line2d_29"/>
    <g id="text_15">
     <!-- Heterogeneous -->
     <g transform="translate(450.243625 276.25625)scale(0.1 -0.1)">
      <defs>
       <path d="M 3450 81 
Q 3450 56 3437 37 
Q 3425 19 3394 8 
Q 3363 -3 3311 -11 
Q 3259 -19 3184 -19 
Q 3103 -19 3053 -11 
Q 3003 -3 2972 8 
Q 2941 19 2928 37 
Q 2916 56 2916 81 
L 2916 1875 
L 1075 1875 
L 1075 81 
Q 1075 56 1062 37 
Q 1050 19 1019 8 
Q 988 -3 936 -11 
Q 884 -19 806 -19 
Q 731 -19 678 -11 
Q 625 -3 594 8 
Q 563 19 550 37 
Q 538 56 538 81 
L 538 3963 
Q 538 3988 550 4006 
Q 563 4025 594 4036 
Q 625 4047 678 4055 
Q 731 4063 806 4063 
Q 884 4063 936 4055 
Q 988 4047 1019 4036 
Q 1050 4025 1062 4006 
Q 1075 3988 1075 3963 
L 1075 2344 
L 2916 2344 
L 2916 3963 
Q 2916 3988 2928 4006 
Q 2941 4025 2972 4036 
Q 3003 4047 3053 4055 
Q 3103 4063 3184 4063 
Q 3259 4063 3311 4055 
Q 3363 4047 3394 4036 
Q 3425 4025 3437 4006 
Q 3450 3988 3450 3963 
L 3450 81 
z
" id="Calibri-48" transform="scale(0.015625)"/>
       <path d="M 2828 2763 
Q 2828 2653 2798 2604 
Q 2769 2556 2722 2556 
L 2319 2556 
Q 2428 2444 2472 2308 
Q 2516 2172 2516 2025 
Q 2516 1781 2437 1593 
Q 2359 1406 2214 1276 
Q 2069 1147 1869 1078 
Q 1669 1009 1425 1009 
Q 1253 1009 1098 1054 
Q 944 1100 859 1169 
Q 803 1113 767 1041 
Q 731 969 731 875 
Q 731 766 832 694 
Q 934 622 1103 616 
L 1838 584 
Q 2047 578 2222 526 
Q 2397 475 2525 379 
Q 2653 284 2725 145 
Q 2797 6 2797 -178 
Q 2797 -372 2715 -547 
Q 2634 -722 2467 -855 
Q 2300 -988 2040 -1064 
Q 1781 -1141 1428 -1141 
Q 1088 -1141 848 -1083 
Q 609 -1025 456 -925 
Q 303 -825 234 -686 
Q 166 -547 166 -384 
Q 166 -281 191 -184 
Q 216 -88 267 0 
Q 319 88 395 167 
Q 472 247 572 325 
Q 419 403 345 522 
Q 272 641 272 778 
Q 272 969 350 1119 
Q 428 1269 544 1388 
Q 447 1503 390 1648 
Q 334 1794 334 2000 
Q 334 2241 415 2431 
Q 497 2622 640 2753 
Q 784 2884 986 2954 
Q 1188 3025 1425 3025 
Q 1553 3025 1664 3011 
Q 1775 2997 1872 2972 
L 2722 2972 
Q 2775 2972 2801 2920 
Q 2828 2869 2828 2763 
z
M 2022 2022 
Q 2022 2309 1864 2470 
Q 1706 2631 1416 2631 
Q 1266 2631 1155 2581 
Q 1044 2531 970 2443 
Q 897 2356 861 2242 
Q 825 2128 825 2003 
Q 825 1725 983 1565 
Q 1141 1406 1425 1406 
Q 1578 1406 1690 1454 
Q 1803 1503 1876 1589 
Q 1950 1675 1986 1787 
Q 2022 1900 2022 2022 
z
M 2281 -206 
Q 2281 -25 2132 73 
Q 1984 172 1731 178 
L 1003 203 
Q 903 125 839 54 
Q 775 -16 737 -80 
Q 700 -144 686 -206 
Q 672 -269 672 -334 
Q 672 -538 878 -642 
Q 1084 -747 1453 -747 
Q 1688 -747 1845 -701 
Q 2003 -656 2100 -581 
Q 2197 -506 2239 -409 
Q 2281 -313 2281 -206 
z
" id="Calibri-67" transform="scale(0.015625)"/>
      </defs>
      <use xlink:href="#Calibri-48"/>
      <use x="62.304688" xlink:href="#Calibri-65"/>
      <use x="112.060547" xlink:href="#Calibri-74"/>
      <use x="145.556641" xlink:href="#Calibri-65"/>
      <use x="195.3125" xlink:href="#Calibri-72"/>
      <use x="230.175781" xlink:href="#Calibri-6f"/>
      <use x="282.910156" xlink:href="#Calibri-67"/>
      <use x="329.980469" xlink:href="#Calibri-65"/>
      <use x="379.736328" xlink:href="#Calibri-6e"/>
      <use x="432.275391" xlink:href="#Calibri-65"/>
      <use x="482.03125" xlink:href="#Calibri-6f"/>
      <use x="534.765625" xlink:href="#Calibri-75"/>
      <use x="587.304688" xlink:href="#Calibri-73"/>
     </g>
    </g>
    <g id="line2d_30">
     <path d="M 422.243625 286.539062 
L 442.243625 286.539062 
" style="fill:none;stroke:#800080;stroke-linecap:square;stroke-width:1.1;"/>
    </g>
    <g id="line2d_31"/>
    <g id="text_16">
     <!-- Fixed learning rate -->
     <g transform="translate(450.243625 290.039062)scale(0.1 -0.1)">
      <defs>
       <path d="M 2663 3813 
Q 2663 3753 2656 3709 
Q 2650 3666 2634 3639 
Q 2619 3613 2598 3600 
Q 2578 3588 2556 3588 
L 1075 3588 
L 1075 2213 
L 2475 2213 
Q 2497 2213 2517 2202 
Q 2538 2191 2553 2166 
Q 2569 2141 2575 2098 
Q 2581 2056 2581 1991 
Q 2581 1931 2575 1889 
Q 2569 1847 2553 1820 
Q 2538 1794 2517 1780 
Q 2497 1766 2475 1766 
L 1075 1766 
L 1075 81 
Q 1075 59 1062 39 
Q 1050 19 1019 8 
Q 988 -3 938 -11 
Q 888 -19 806 -19 
Q 731 -19 678 -11 
Q 625 -3 594 8 
Q 563 19 550 39 
Q 538 59 538 81 
L 538 3825 
Q 538 3947 602 3995 
Q 666 4044 738 4044 
L 2556 4044 
Q 2578 4044 2598 4031 
Q 2619 4019 2634 3991 
Q 2650 3963 2656 3917 
Q 2663 3872 2663 3813 
z
" id="Calibri-46" transform="scale(0.015625)"/>
       <path d="M 2609 138 
Q 2634 94 2634 64 
Q 2634 34 2604 15 
Q 2575 -3 2514 -11 
Q 2453 -19 2356 -19 
Q 2263 -19 2208 -14 
Q 2153 -9 2120 2 
Q 2088 13 2070 30 
Q 2053 47 2041 69 
L 1366 1184 
L 694 69 
Q 681 47 664 30 
Q 647 13 614 2 
Q 581 -9 528 -14 
Q 475 -19 388 -19 
Q 297 -19 239 -11 
Q 181 -3 154 15 
Q 128 34 129 64 
Q 131 94 159 138 
L 1034 1509 
L 206 2831 
Q 181 2875 179 2904 
Q 178 2934 208 2954 
Q 238 2975 298 2981 
Q 359 2988 459 2988 
Q 550 2988 604 2983 
Q 659 2978 690 2968 
Q 722 2959 737 2943 
Q 753 2928 766 2906 
L 1406 1859 
L 2056 2906 
Q 2069 2925 2084 2940 
Q 2100 2956 2126 2967 
Q 2153 2978 2201 2983 
Q 2250 2988 2334 2988 
Q 2425 2988 2483 2981 
Q 2541 2975 2569 2958 
Q 2597 2941 2594 2909 
Q 2591 2878 2563 2831 
L 1741 1525 
L 2609 138 
z
" id="Calibri-78" transform="scale(0.015625)"/>
       <path d="M 2597 75 
Q 2597 38 2572 19 
Q 2547 0 2503 -9 
Q 2459 -19 2375 -19 
Q 2294 -19 2245 -9 
Q 2197 0 2175 19 
Q 2153 38 2153 75 
L 2153 356 
Q 1969 159 1742 50 
Q 1516 -59 1263 -59 
Q 1041 -59 861 -1 
Q 681 56 554 165 
Q 428 275 358 434 
Q 288 594 288 797 
Q 288 1034 384 1209 
Q 481 1384 662 1500 
Q 844 1616 1106 1673 
Q 1369 1731 1697 1731 
L 2084 1731 
L 2084 1950 
Q 2084 2113 2050 2238 
Q 2016 2363 1939 2445 
Q 1863 2528 1741 2570 
Q 1619 2613 1441 2613 
Q 1250 2613 1098 2567 
Q 947 2522 833 2467 
Q 719 2413 642 2367 
Q 566 2322 528 2322 
Q 503 2322 484 2334 
Q 466 2347 452 2372 
Q 438 2397 431 2436 
Q 425 2475 425 2522 
Q 425 2600 436 2645 
Q 447 2691 489 2731 
Q 531 2772 634 2826 
Q 738 2881 872 2926 
Q 1006 2972 1165 3001 
Q 1325 3031 1488 3031 
Q 1791 3031 2003 2962 
Q 2216 2894 2347 2761 
Q 2478 2628 2537 2431 
Q 2597 2234 2597 1972 
L 2597 75 
z
M 2084 1359 
L 1644 1359 
Q 1431 1359 1275 1323 
Q 1119 1288 1016 1217 
Q 913 1147 864 1048 
Q 816 950 816 822 
Q 816 603 955 473 
Q 1094 344 1344 344 
Q 1547 344 1720 447 
Q 1894 550 2084 763 
L 2084 1359 
z
" id="Calibri-61" transform="scale(0.015625)"/>
      </defs>
      <use xlink:href="#Calibri-46"/>
      <use x="45.947266" xlink:href="#Calibri-69"/>
      <use x="68.896484" xlink:href="#Calibri-78"/>
      <use x="112.207031" xlink:href="#Calibri-65"/>
      <use x="161.962891" xlink:href="#Calibri-64"/>
      <use x="214.501953" xlink:href="#Calibri-20"/>
      <use x="237.109375" xlink:href="#Calibri-6c"/>
      <use x="260.058594" xlink:href="#Calibri-65"/>
      <use x="309.814453" xlink:href="#Calibri-61"/>
      <use x="357.714844" xlink:href="#Calibri-72"/>
      <use x="392.578125" xlink:href="#Calibri-6e"/>
      <use x="445.117188" xlink:href="#Calibri-69"/>
      <use x="468.066406" xlink:href="#Calibri-6e"/>
      <use x="520.605469" xlink:href="#Calibri-67"/>
      <use x="567.675781" xlink:href="#Calibri-20"/>
      <use x="590.283203" xlink:href="#Calibri-72"/>
      <use x="625.146484" xlink:href="#Calibri-61"/>
      <use x="673.046875" xlink:href="#Calibri-74"/>
      <use x="706.542969" xlink:href="#Calibri-65"/>
     </g>
    </g>
    <g id="line2d_32">
     <path d="M 422.243625 300.321875 
L 442.243625 300.321875 
" style="fill:none;stroke:#2f4f4f;stroke-linecap:square;stroke-width:1.1;"/>
    </g>
    <g id="line2d_33"/>
    <g id="text_17">
     <!-- Random action -->
     <g transform="translate(450.243625 303.821875)scale(0.1 -0.1)">
      <defs>
       <path d="M 3234 81 
Q 3234 56 3225 37 
Q 3216 19 3184 6 
Q 3153 -6 3097 -12 
Q 3041 -19 2947 -19 
Q 2866 -19 2814 -12 
Q 2763 -6 2731 8 
Q 2700 22 2683 47 
Q 2666 72 2653 109 
L 2281 1063 
Q 2216 1225 2145 1361 
Q 2075 1497 1978 1595 
Q 1881 1694 1750 1748 
Q 1619 1803 1434 1803 
L 1075 1803 
L 1075 81 
Q 1075 56 1061 37 
Q 1047 19 1017 8 
Q 988 -3 936 -11 
Q 884 -19 806 -19 
Q 728 -19 676 -11 
Q 625 -3 594 8 
Q 563 19 550 37 
Q 538 56 538 81 
L 538 3825 
Q 538 3947 602 3995 
Q 666 4044 738 4044 
L 1597 4044 
Q 1750 4044 1851 4036 
Q 1953 4028 2034 4019 
Q 2269 3978 2448 3890 
Q 2628 3803 2750 3668 
Q 2872 3534 2933 3361 
Q 2994 3188 2994 2978 
Q 2994 2775 2939 2614 
Q 2884 2453 2781 2329 
Q 2678 2206 2534 2115 
Q 2391 2025 2213 1963 
Q 2313 1919 2394 1851 
Q 2475 1784 2545 1690 
Q 2616 1597 2678 1475 
Q 2741 1353 2803 1200 
L 3166 309 
Q 3209 197 3221 151 
Q 3234 106 3234 81 
z
M 2425 2922 
Q 2425 3159 2319 3323 
Q 2213 3488 1963 3559 
Q 1884 3581 1786 3590 
Q 1688 3600 1528 3600 
L 1075 3600 
L 1075 2238 
L 1600 2238 
Q 1813 2238 1967 2289 
Q 2122 2341 2225 2433 
Q 2328 2525 2376 2650 
Q 2425 2775 2425 2922 
z
" id="Calibri-52" transform="scale(0.015625)"/>
       <path d="M 4650 78 
Q 4650 53 4637 36 
Q 4625 19 4597 6 
Q 4569 -6 4519 -12 
Q 4469 -19 4394 -19 
Q 4316 -19 4266 -12 
Q 4216 -6 4186 6 
Q 4156 19 4143 36 
Q 4131 53 4131 78 
L 4131 1788 
Q 4131 1966 4100 2112 
Q 4069 2259 4000 2365 
Q 3931 2472 3825 2528 
Q 3719 2584 3575 2584 
Q 3397 2584 3217 2446 
Q 3038 2309 2822 2044 
L 2822 78 
Q 2822 53 2809 36 
Q 2797 19 2767 6 
Q 2738 -6 2688 -12 
Q 2638 -19 2563 -19 
Q 2491 -19 2439 -12 
Q 2388 -6 2358 6 
Q 2328 19 2317 36 
Q 2306 53 2306 78 
L 2306 1788 
Q 2306 1966 2272 2112 
Q 2238 2259 2169 2365 
Q 2100 2472 1995 2528 
Q 1891 2584 1747 2584 
Q 1569 2584 1387 2446 
Q 1206 2309 994 2044 
L 994 78 
Q 994 53 981 36 
Q 969 19 941 6 
Q 913 -6 863 -12 
Q 813 -19 734 -19 
Q 659 -19 609 -12 
Q 559 -6 529 6 
Q 500 19 489 36 
Q 478 53 478 78 
L 478 2891 
Q 478 2916 487 2933 
Q 497 2950 525 2964 
Q 553 2978 597 2983 
Q 641 2988 713 2988 
Q 781 2988 826 2983 
Q 872 2978 897 2964 
Q 922 2950 933 2933 
Q 944 2916 944 2891 
L 944 2519 
Q 1181 2784 1404 2907 
Q 1628 3031 1856 3031 
Q 2031 3031 2170 2990 
Q 2309 2950 2415 2876 
Q 2522 2803 2597 2701 
Q 2672 2600 2722 2475 
Q 2863 2628 2989 2734 
Q 3116 2841 3233 2906 
Q 3350 2972 3461 3001 
Q 3572 3031 3684 3031 
Q 3956 3031 4140 2936 
Q 4325 2841 4439 2681 
Q 4553 2522 4601 2308 
Q 4650 2094 4650 1856 
L 4650 78 
z
" id="Calibri-6d" transform="scale(0.015625)"/>
      </defs>
      <use xlink:href="#Calibri-52"/>
      <use x="54.296875" xlink:href="#Calibri-61"/>
      <use x="102.197266" xlink:href="#Calibri-6e"/>
      <use x="154.736328" xlink:href="#Calibri-64"/>
      <use x="207.275391" xlink:href="#Calibri-6f"/>
      <use x="260.009766" xlink:href="#Calibri-6d"/>
      <use x="339.892578" xlink:href="#Calibri-20"/>
      <use x="362.5" xlink:href="#Calibri-61"/>
      <use x="410.400391" xlink:href="#Calibri-63"/>
      <use x="452.685547" xlink:href="#Calibri-74"/>
      <use x="486.181641" xlink:href="#Calibri-69"/>
      <use x="509.130859" xlink:href="#Calibri-6f"/>
      <use x="561.865234" xlink:href="#Calibri-6e"/>
     </g>
    </g>
   </g>
  </g>
 </g>
 <defs>
  <clipPath id="pb9761e4103">
   <rect height="302.4" width="361.8" x="52.825625" y="7.2"/>
  </clipPath>
 </defs>
</svg>
