<?xml version="1.0" encoding="utf-8" standalone="no"?>
<!DOCTYPE svg PUBLIC "-//W3C//DTD SVG 1.1//EN"
  "http://www.w3.org/Graphics/SVG/1.1/DTD/svg11.dtd">
<svg height="357.065pt" version="1.1" viewBox="0 0 563.762375 357.065" width="563.762375pt" xmlns="http://www.w3.org/2000/svg" xmlns:xlink="http://www.w3.org/1999/xlink">
 <metadata>
  <rdf:RDF xmlns:cc="http://creativecommons.org/ns#" xmlns:dc="http://purl.org/dc/elements/1.1/" xmlns:rdf="http://www.w3.org/1999/02/22-rdf-syntax-ns#">
   <cc:Work>
    <dc:type rdf:resource="http://purl.org/dc/dcmitype/StillImage"/>
    <dc:date>2021-11-10T15:17:33.221118</dc:date>
    <dc:format>image/svg+xml</dc:format>
    <dc:creator>
     <cc:Agent>
      <dc:title>Matplotlib v3.4.2, https://matplotlib.org/</dc:title>
     </cc:Agent>
    </dc:creator>
   </cc:Work>
  </rdf:RDF>
 </metadata>
 <defs>
  <style type="text/css">*{stroke-linecap:butt;stroke-linejoin:round;}</style>
 </defs>
 <g id="figure_1">
  <g id="patch_1">
   <path d="M 0 357.065 
L 563.762375 357.065 
L 563.762375 0 
L 0 0 
z
" style="fill:#ffffff;"/>
  </g>
  <g id="axes_1">
   <g id="patch_2">
    <path d="M 68.4225 309.6 
L 430.2225 309.6 
L 430.2225 7.2 
L 68.4225 7.2 
z
" style="fill:#ffffff;"/>
   </g>
   <g id="PolyCollection_1">
    <path clip-path="url(#pf7d6d5d51b)" d="M 84.867955 240.94404 
L 84.867955 283.731447 
L 90.349773 285.633109 
L 95.831591 295.854545 
L 101.313409 287.653626 
L 106.795227 278.97729 
L 112.277045 273.985426 
L 117.758864 269.706686 
L 123.240682 264.952529 
L 128.7225 272.915741 
L 134.204318 264.952529 
L 139.686136 264.35826 
L 145.167955 237.378422 
L 150.649773 240.706332 
L 156.131591 243.202264 
L 161.613409 235.001344 
L 167.095227 226.206155 
L 172.577045 237.259568 
L 178.058864 224.5422 
L 183.540682 241.776017 
L 189.0225 233.575097 
L 194.504318 224.779908 
L 199.986136 238.448108 
L 205.467955 218.718359 
L 210.949773 194.591015 
L 216.431591 189.718005 
L 221.913409 189.242589 
L 227.395227 193.996746 
L 232.877045 182.111355 
L 238.358864 207.546091 
L 243.840682 225.611885 
L 249.3225 207.783799 
L 254.804318 217.52982 
L 260.286136 216.341281 
L 265.767955 191.738521 
L 271.249773 167.254616 
L 276.731591 183.894163 
L 282.213409 240.34977 
L 287.695227 214.20191 
L 293.177045 224.185638 
L 298.658864 199.582879 
L 304.140682 203.86162 
L 309.6225 193.164768 
L 315.104318 206.357552 
L 320.586136 192.095083 
L 326.067955 187.935196 
L 331.549773 191.976229 
L 337.031591 168.562009 
L 342.513409 184.844995 
L 347.995227 189.480297 
L 353.477045 155.963495 
L 358.958864 161.074213 
L 364.440682 168.324301 
L 369.9225 201.841104 
L 375.404318 167.37347 
L 380.886136 185.558118 
L 386.367955 181.635939 
L 391.849773 174.148143 
L 397.331591 166.422639 
L 402.813409 175.336682 
L 408.295227 168.799717 
L 413.777045 175.930952 
L 413.777045 133.143544 
L 413.777045 133.143544 
L 408.295227 126.01231 
L 402.813409 132.549275 
L 397.331591 123.635232 
L 391.849773 131.360736 
L 386.367955 138.848532 
L 380.886136 142.770711 
L 375.404318 124.586063 
L 369.9225 159.053696 
L 364.440682 125.536894 
L 358.958864 118.286806 
L 353.477045 113.176088 
L 347.995227 146.69289 
L 342.513409 142.057588 
L 337.031591 125.774602 
L 331.549773 149.188822 
L 326.067955 145.147789 
L 320.586136 149.307676 
L 315.104318 163.570145 
L 309.6225 150.377361 
L 304.140682 161.074213 
L 298.658864 156.795472 
L 293.177045 181.398231 
L 287.695227 171.414503 
L 282.213409 197.562363 
L 276.731591 141.106756 
L 271.249773 124.467209 
L 265.767955 148.951114 
L 260.286136 173.553873 
L 254.804318 174.742412 
L 249.3225 164.996392 
L 243.840682 182.824478 
L 238.358864 164.758684 
L 232.877045 139.323948 
L 227.395227 151.209339 
L 221.913409 146.455182 
L 216.431591 146.930598 
L 210.949773 151.803608 
L 205.467955 175.930952 
L 199.986136 195.6607 
L 194.504318 181.992501 
L 189.0225 190.78769 
L 183.540682 198.98861 
L 178.058864 181.754793 
L 172.577045 194.472161 
L 167.095227 183.418748 
L 161.613409 192.213937 
L 156.131591 200.414857 
L 150.649773 197.918925 
L 145.167955 194.591015 
L 139.686136 221.570852 
L 134.204318 222.165122 
L 128.7225 230.128334 
L 123.240682 222.165122 
L 117.758864 226.919278 
L 112.277045 231.198019 
L 106.795227 236.189883 
L 101.313409 244.866219 
L 95.831591 253.067138 
L 90.349773 242.845702 
L 84.867955 240.94404 
z
" style="fill:#d2b48c;fill-opacity:0.3;"/>
   </g>
   <g id="PolyCollection_2">
    <path clip-path="url(#pf7d6d5d51b)" d="M 84.867955 248.788398 
L 84.867955 291.575805 
L 90.349773 273.866572 
L 95.831591 255.56307 
L 101.313409 227.038132 
L 106.795227 206.59526 
L 112.277045 204.099328 
L 117.758864 194.947577 
L 123.240682 175.693244 
L 128.7225 156.676618 
L 134.204318 171.176795 
L 139.686136 174.504705 
L 145.167955 176.049805 
L 150.649773 160.479943 
L 156.131591 158.815989 
L 161.613409 172.959604 
L 167.095227 187.578635 
L 172.577045 152.397878 
L 178.058864 163.807853 
L 183.540682 187.935196 
L 189.0225 178.545738 
L 194.504318 172.721896 
L 199.986136 158.221719 
L 205.467955 154.061832 
L 210.949773 156.320057 
L 216.431591 161.668482 
L 221.913409 168.324301 
L 227.395227 156.557764 
L 232.877045 169.156279 
L 238.358864 157.746304 
L 243.840682 164.164415 
L 249.3225 184.488433 
L 254.804318 153.111001 
L 260.286136 174.266997 
L 265.767955 183.77531 
L 271.249773 193.164768 
L 276.731591 165.352954 
L 282.213409 169.869402 
L 287.695227 168.324301 
L 293.177045 165.115246 
L 298.658864 190.668836 
L 304.140682 159.053696 
L 309.6225 177.357198 
L 315.104318 155.131518 
L 320.586136 165.590661 
L 326.067955 139.918217 
L 331.549773 151.922462 
L 337.031591 158.102865 
L 342.513409 163.570145 
L 347.995227 172.484188 
L 353.477045 173.791581 
L 358.958864 164.402122 
L 364.440682 157.984011 
L 369.9225 161.787336 
L 375.404318 155.012664 
L 380.886136 160.361089 
L 386.367955 160.836505 
L 391.849773 167.730032 
L 397.331591 175.217828 
L 402.813409 131.360736 
L 408.295227 161.787336 
L 413.777045 201.009126 
L 413.777045 158.221719 
L 413.777045 158.221719 
L 408.295227 118.999929 
L 402.813409 88.573329 
L 397.331591 132.430421 
L 391.849773 124.942625 
L 386.367955 118.049098 
L 380.886136 117.573682 
L 375.404318 112.225256 
L 369.9225 118.999929 
L 364.440682 115.196604 
L 358.958864 121.614715 
L 353.477045 131.004174 
L 347.995227 129.696781 
L 342.513409 120.782738 
L 337.031591 115.315458 
L 331.549773 109.135055 
L 326.067955 97.13081 
L 320.586136 122.803254 
L 315.104318 112.34411 
L 309.6225 134.569791 
L 304.140682 116.266289 
L 298.658864 147.881429 
L 293.177045 122.327839 
L 287.695227 125.536894 
L 282.213409 127.081995 
L 276.731591 122.565547 
L 271.249773 150.377361 
L 265.767955 140.987902 
L 260.286136 131.47959 
L 254.804318 110.323594 
L 249.3225 141.701026 
L 243.840682 121.377007 
L 238.358864 114.958896 
L 232.877045 126.368872 
L 227.395227 113.770357 
L 221.913409 125.536894 
L 216.431591 118.881075 
L 210.949773 113.532649 
L 205.467955 111.274425 
L 199.986136 115.434312 
L 194.504318 129.934489 
L 189.0225 135.75833 
L 183.540682 145.147789 
L 178.058864 121.020446 
L 172.577045 109.61047 
L 167.095227 144.791227 
L 161.613409 130.172197 
L 156.131591 116.028582 
L 150.649773 117.692536 
L 145.167955 133.262398 
L 139.686136 131.717297 
L 134.204318 128.389388 
L 128.7225 113.889211 
L 123.240682 132.905837 
L 117.758864 152.16017 
L 112.277045 161.311921 
L 106.795227 163.807853 
L 101.313409 184.250725 
L 95.831591 212.775663 
L 90.349773 231.079165 
L 84.867955 248.788398 
z
" style="fill:#f08080;fill-opacity:0.3;"/>
   </g>
   <g id="PolyCollection_3">
    <path clip-path="url(#pf7d6d5d51b)" d="M 84.867955 234.525929 
L 84.867955 277.313336 
L 90.349773 266.022214 
L 95.831591 261.149204 
L 101.313409 255.800778 
L 106.795227 191.144252 
L 112.277045 188.05405 
L 117.758864 171.533357 
L 123.240682 165.709515 
L 128.7225 141.344464 
L 134.204318 128.864804 
L 139.686136 117.335975 
L 145.167955 107.233392 
L 150.649773 120.663884 
L 156.131591 121.377007 
L 161.613409 109.491617 
L 167.095227 122.565547 
L 172.577045 119.594199 
L 178.058864 132.668129 
L 183.540682 164.520976 
L 189.0225 119.237637 
L 194.504318 128.508242 
L 199.986136 116.860559 
L 205.467955 116.385143 
L 210.949773 117.930244 
L 216.431591 97.487372 
L 221.913409 94.39717 
L 227.395227 131.598444 
L 232.877045 88.573329 
L 238.358864 96.893102 
L 243.840682 110.79901 
L 249.3225 127.438557 
L 254.804318 107.708808 
L 260.286136 103.311213 
L 265.767955 98.794765 
L 271.249773 80.491263 
L 276.731591 76.212522 
L 282.213409 95.823417 
L 287.695227 97.13081 
L 293.177045 77.638769 
L 298.658864 74.667421 
L 304.140682 85.364273 
L 309.6225 108.659639 
L 315.104318 73.71659 
L 320.586136 91.425822 
L 326.067955 85.245419 
L 331.549773 94.872586 
L 337.031591 93.802901 
L 342.513409 90.118429 
L 347.995227 77.282207 
L 353.477045 83.938026 
L 358.958864 75.618253 
L 364.440682 104.499752 
L 369.9225 97.487372 
L 375.404318 85.007711 
L 380.886136 63.732862 
L 386.367955 75.85596 
L 391.849773 87.622497 
L 397.331591 83.462611 
L 402.813409 86.552812 
L 408.295227 83.700318 
L 413.777045 72.528051 
L 413.777045 29.740644 
L 413.777045 29.740644 
L 408.295227 40.912911 
L 402.813409 43.765405 
L 397.331591 40.675203 
L 391.849773 44.83509 
L 386.367955 33.068553 
L 380.886136 20.945455 
L 375.404318 42.220304 
L 369.9225 54.699965 
L 364.440682 61.712345 
L 358.958864 32.830845 
L 353.477045 41.150619 
L 347.995227 34.4948 
L 342.513409 47.331022 
L 337.031591 51.015493 
L 331.549773 52.085179 
L 326.067955 42.458012 
L 320.586136 48.638415 
L 315.104318 30.929183 
L 309.6225 65.872232 
L 304.140682 42.576866 
L 298.658864 31.880014 
L 293.177045 34.851362 
L 287.695227 54.343403 
L 282.213409 53.03601 
L 276.731591 33.425115 
L 271.249773 37.703856 
L 265.767955 56.007358 
L 260.286136 60.523806 
L 254.804318 64.921401 
L 249.3225 84.65115 
L 243.840682 68.011602 
L 238.358864 54.105695 
L 232.877045 45.785921 
L 227.395227 88.811036 
L 221.913409 51.609763 
L 216.431591 54.699965 
L 210.949773 75.142837 
L 205.467955 73.597736 
L 199.986136 74.073152 
L 194.504318 85.720835 
L 189.0225 76.45023 
L 183.540682 121.733569 
L 178.058864 89.880722 
L 172.577045 76.806792 
L 167.095227 79.778139 
L 161.613409 66.704209 
L 156.131591 78.5896 
L 150.649773 77.876477 
L 145.167955 64.445985 
L 139.686136 74.548567 
L 134.204318 86.077397 
L 128.7225 98.557057 
L 123.240682 122.922108 
L 117.758864 128.74595 
L 112.277045 145.266643 
L 106.795227 148.356845 
L 101.313409 213.013371 
L 95.831591 218.361797 
L 90.349773 223.234807 
L 84.867955 234.525929 
z
" style="fill:#4169e1;fill-opacity:0.3;"/>
   </g>
   <g id="PolyCollection_4">
    <path clip-path="url(#pf7d6d5d51b)" d="M 84.867955 211.943686 
L 84.867955 254.731093 
L 90.349773 244.866219 
L 95.831591 256.15734 
L 101.313409 257.464733 
L 106.795227 271.96491 
L 112.277045 252.710577 
L 117.758864 261.981181 
L 123.240682 244.390803 
L 128.7225 257.821295 
L 134.204318 249.501521 
L 139.686136 236.308737 
L 145.167955 230.722603 
L 150.649773 242.845702 
L 156.131591 254.968801 
L 161.613409 255.087655 
L 167.095227 245.935904 
L 172.577045 242.964556 
L 178.058864 245.341634 
L 183.540682 267.210753 
L 189.0225 254.849947 
L 194.504318 246.054758 
L 199.986136 230.722603 
L 205.467955 255.681924 
L 210.949773 254.731093 
L 216.431591 257.345879 
L 221.913409 262.694305 
L 227.395227 251.165476 
L 232.877045 253.899116 
L 238.358864 263.882844 
L 243.840682 249.382667 
L 249.3225 255.444216 
L 254.804318 232.267704 
L 260.286136 246.886735 
L 265.767955 265.665653 
L 271.249773 239.755501 
L 276.731591 252.82943 
L 282.213409 261.862328 
L 287.695227 247.95642 
L 293.177045 254.968801 
L 298.658864 246.292466 
L 304.140682 241.894871 
L 309.6225 262.218889 
L 315.104318 239.161231 
L 320.586136 244.271949 
L 326.067955 246.054758 
L 331.549773 255.444216 
L 337.031591 259.604103 
L 342.513409 228.820941 
L 347.995227 254.493385 
L 353.477045 242.132579 
L 358.958864 257.702441 
L 364.440682 257.821295 
L 369.9225 255.206509 
L 375.404318 255.087655 
L 380.886136 249.026105 
L 386.367955 250.571206 
L 391.849773 237.734984 
L 397.331591 252.354015 
L 402.813409 247.95642 
L 408.295227 266.735338 
L 413.777045 251.522037 
L 413.777045 208.73463 
L 413.777045 208.73463 
L 408.295227 223.947931 
L 402.813409 205.169013 
L 397.331591 209.566608 
L 391.849773 194.947577 
L 386.367955 207.783799 
L 380.886136 206.238698 
L 375.404318 212.300248 
L 369.9225 212.419102 
L 364.440682 215.033888 
L 358.958864 214.915034 
L 353.477045 199.345172 
L 347.995227 211.705978 
L 342.513409 186.033534 
L 337.031591 216.816696 
L 331.549773 212.656809 
L 326.067955 203.267351 
L 320.586136 201.484542 
L 315.104318 196.373824 
L 309.6225 219.431482 
L 304.140682 199.107464 
L 298.658864 203.505058 
L 293.177045 212.181394 
L 287.695227 205.169013 
L 282.213409 219.07492 
L 276.731591 210.042023 
L 271.249773 196.968093 
L 265.767955 222.878245 
L 260.286136 204.099328 
L 254.804318 189.480297 
L 249.3225 212.656809 
L 243.840682 206.59526 
L 238.358864 221.095437 
L 232.877045 211.111709 
L 227.395227 208.378069 
L 221.913409 219.906898 
L 216.431591 214.558472 
L 210.949773 211.943686 
L 205.467955 212.894517 
L 199.986136 187.935196 
L 194.504318 203.267351 
L 189.0225 212.06254 
L 183.540682 224.423346 
L 178.058864 202.554227 
L 172.577045 200.177149 
L 167.095227 203.148497 
L 161.613409 212.300248 
L 156.131591 212.181394 
L 150.649773 200.058295 
L 145.167955 187.935196 
L 139.686136 193.52133 
L 134.204318 206.714114 
L 128.7225 215.033888 
L 123.240682 201.603396 
L 117.758864 219.193774 
L 112.277045 209.923169 
L 106.795227 229.177503 
L 101.313409 214.677326 
L 95.831591 213.369933 
L 90.349773 202.078811 
L 84.867955 211.943686 
z
" style="fill:#008b8b;fill-opacity:0.3;"/>
   </g>
   <g id="matplotlib.axis_1">
    <g id="xtick_1">
     <g id="line2d_1">
      <path clip-path="url(#pf7d6d5d51b)" d="M 84.867955 309.6 
L 84.867955 7.2 
" style="fill:none;stroke:#b0b0b0;stroke-linecap:square;stroke-width:0.8;"/>
     </g>
     <g id="line2d_2">
      <defs>
       <path d="M 0 0 
L 0 3.5 
" id="mea5ff4d900" style="stroke:#000000;stroke-width:0.8;"/>
      </defs>
      <g>
       <use style="stroke:#000000;stroke-width:0.8;" x="84.867955" xlink:href="#mea5ff4d900" y="309.6"/>
      </g>
     </g>
     <g id="text_1">
      <!-- 0 -->
      <g transform="translate(80.419205 328.0525)scale(0.16 -0.16)">
       <defs>
        <path d="M 266 2259 
Q 266 3072 433 3567 
Q 600 4063 929 4331 
Q 1259 4600 1759 4600 
Q 2128 4600 2406 4451 
Q 2684 4303 2865 4023 
Q 3047 3744 3150 3342 
Q 3253 2941 3253 2259 
Q 3253 1453 3087 958 
Q 2922 463 2592 192 
Q 2263 -78 1759 -78 
Q 1097 -78 719 397 
Q 266 969 266 2259 
z
M 844 2259 
Q 844 1131 1108 757 
Q 1372 384 1759 384 
Q 2147 384 2411 759 
Q 2675 1134 2675 2259 
Q 2675 3391 2411 3762 
Q 2147 4134 1753 4134 
Q 1366 4134 1134 3806 
Q 844 3388 844 2259 
z
" id="ArialMT-30" transform="scale(0.015625)"/>
       </defs>
       <use xlink:href="#ArialMT-30"/>
      </g>
     </g>
    </g>
    <g id="xtick_2">
     <g id="line2d_3">
      <path clip-path="url(#pf7d6d5d51b)" d="M 139.686136 309.6 
L 139.686136 7.2 
" style="fill:none;stroke:#b0b0b0;stroke-linecap:square;stroke-width:0.8;"/>
     </g>
     <g id="line2d_4">
      <g>
       <use style="stroke:#000000;stroke-width:0.8;" x="139.686136" xlink:href="#mea5ff4d900" y="309.6"/>
      </g>
     </g>
     <g id="text_2">
      <!-- 10 -->
      <g transform="translate(130.788636 328.0525)scale(0.16 -0.16)">
       <defs>
        <path d="M 2384 0 
L 1822 0 
L 1822 3584 
Q 1619 3391 1289 3197 
Q 959 3003 697 2906 
L 697 3450 
Q 1169 3672 1522 3987 
Q 1875 4303 2022 4600 
L 2384 4600 
L 2384 0 
z
" id="ArialMT-31" transform="scale(0.015625)"/>
       </defs>
       <use xlink:href="#ArialMT-31"/>
       <use x="55.615234" xlink:href="#ArialMT-30"/>
      </g>
     </g>
    </g>
    <g id="xtick_3">
     <g id="line2d_5">
      <path clip-path="url(#pf7d6d5d51b)" d="M 194.504318 309.6 
L 194.504318 7.2 
" style="fill:none;stroke:#b0b0b0;stroke-linecap:square;stroke-width:0.8;"/>
     </g>
     <g id="line2d_6">
      <g>
       <use style="stroke:#000000;stroke-width:0.8;" x="194.504318" xlink:href="#mea5ff4d900" y="309.6"/>
      </g>
     </g>
     <g id="text_3">
      <!-- 20 -->
      <g transform="translate(185.606818 328.0525)scale(0.16 -0.16)">
       <defs>
        <path d="M 3222 541 
L 3222 0 
L 194 0 
Q 188 203 259 391 
Q 375 700 629 1000 
Q 884 1300 1366 1694 
Q 2113 2306 2375 2664 
Q 2638 3022 2638 3341 
Q 2638 3675 2398 3904 
Q 2159 4134 1775 4134 
Q 1369 4134 1125 3890 
Q 881 3647 878 3216 
L 300 3275 
Q 359 3922 746 4261 
Q 1134 4600 1788 4600 
Q 2447 4600 2831 4234 
Q 3216 3869 3216 3328 
Q 3216 3053 3103 2787 
Q 2991 2522 2730 2228 
Q 2469 1934 1863 1422 
Q 1356 997 1212 845 
Q 1069 694 975 541 
L 3222 541 
z
" id="ArialMT-32" transform="scale(0.015625)"/>
       </defs>
       <use xlink:href="#ArialMT-32"/>
       <use x="55.615234" xlink:href="#ArialMT-30"/>
      </g>
     </g>
    </g>
    <g id="xtick_4">
     <g id="line2d_7">
      <path clip-path="url(#pf7d6d5d51b)" d="M 249.3225 309.6 
L 249.3225 7.2 
" style="fill:none;stroke:#b0b0b0;stroke-linecap:square;stroke-width:0.8;"/>
     </g>
     <g id="line2d_8">
      <g>
       <use style="stroke:#000000;stroke-width:0.8;" x="249.3225" xlink:href="#mea5ff4d900" y="309.6"/>
      </g>
     </g>
     <g id="text_4">
      <!-- 30 -->
      <g transform="translate(240.425 328.0525)scale(0.16 -0.16)">
       <defs>
        <path d="M 269 1209 
L 831 1284 
Q 928 806 1161 595 
Q 1394 384 1728 384 
Q 2125 384 2398 659 
Q 2672 934 2672 1341 
Q 2672 1728 2419 1979 
Q 2166 2231 1775 2231 
Q 1616 2231 1378 2169 
L 1441 2663 
Q 1497 2656 1531 2656 
Q 1891 2656 2178 2843 
Q 2466 3031 2466 3422 
Q 2466 3731 2256 3934 
Q 2047 4138 1716 4138 
Q 1388 4138 1169 3931 
Q 950 3725 888 3313 
L 325 3413 
Q 428 3978 793 4289 
Q 1159 4600 1703 4600 
Q 2078 4600 2393 4439 
Q 2709 4278 2876 4000 
Q 3044 3722 3044 3409 
Q 3044 3113 2884 2869 
Q 2725 2625 2413 2481 
Q 2819 2388 3044 2092 
Q 3269 1797 3269 1353 
Q 3269 753 2831 336 
Q 2394 -81 1725 -81 
Q 1122 -81 723 278 
Q 325 638 269 1209 
z
" id="ArialMT-33" transform="scale(0.015625)"/>
       </defs>
       <use xlink:href="#ArialMT-33"/>
       <use x="55.615234" xlink:href="#ArialMT-30"/>
      </g>
     </g>
    </g>
    <g id="xtick_5">
     <g id="line2d_9">
      <path clip-path="url(#pf7d6d5d51b)" d="M 304.140682 309.6 
L 304.140682 7.2 
" style="fill:none;stroke:#b0b0b0;stroke-linecap:square;stroke-width:0.8;"/>
     </g>
     <g id="line2d_10">
      <g>
       <use style="stroke:#000000;stroke-width:0.8;" x="304.140682" xlink:href="#mea5ff4d900" y="309.6"/>
      </g>
     </g>
     <g id="text_5">
      <!-- 40 -->
      <g transform="translate(295.243182 328.0525)scale(0.16 -0.16)">
       <defs>
        <path d="M 2069 0 
L 2069 1097 
L 81 1097 
L 81 1613 
L 2172 4581 
L 2631 4581 
L 2631 1613 
L 3250 1613 
L 3250 1097 
L 2631 1097 
L 2631 0 
L 2069 0 
z
M 2069 1613 
L 2069 3678 
L 634 1613 
L 2069 1613 
z
" id="ArialMT-34" transform="scale(0.015625)"/>
       </defs>
       <use xlink:href="#ArialMT-34"/>
       <use x="55.615234" xlink:href="#ArialMT-30"/>
      </g>
     </g>
    </g>
    <g id="xtick_6">
     <g id="line2d_11">
      <path clip-path="url(#pf7d6d5d51b)" d="M 358.958864 309.6 
L 358.958864 7.2 
" style="fill:none;stroke:#b0b0b0;stroke-linecap:square;stroke-width:0.8;"/>
     </g>
     <g id="line2d_12">
      <g>
       <use style="stroke:#000000;stroke-width:0.8;" x="358.958864" xlink:href="#mea5ff4d900" y="309.6"/>
      </g>
     </g>
     <g id="text_6">
      <!-- 50 -->
      <g transform="translate(350.061364 328.0525)scale(0.16 -0.16)">
       <defs>
        <path d="M 266 1200 
L 856 1250 
Q 922 819 1161 601 
Q 1400 384 1738 384 
Q 2144 384 2425 690 
Q 2706 997 2706 1503 
Q 2706 1984 2436 2262 
Q 2166 2541 1728 2541 
Q 1456 2541 1237 2417 
Q 1019 2294 894 2097 
L 366 2166 
L 809 4519 
L 3088 4519 
L 3088 3981 
L 1259 3981 
L 1013 2750 
Q 1425 3038 1878 3038 
Q 2478 3038 2890 2622 
Q 3303 2206 3303 1553 
Q 3303 931 2941 478 
Q 2500 -78 1738 -78 
Q 1113 -78 717 272 
Q 322 622 266 1200 
z
" id="ArialMT-35" transform="scale(0.015625)"/>
       </defs>
       <use xlink:href="#ArialMT-35"/>
       <use x="55.615234" xlink:href="#ArialMT-30"/>
      </g>
     </g>
    </g>
    <g id="xtick_7">
     <g id="line2d_13">
      <path clip-path="url(#pf7d6d5d51b)" d="M 413.777045 309.6 
L 413.777045 7.2 
" style="fill:none;stroke:#b0b0b0;stroke-linecap:square;stroke-width:0.8;"/>
     </g>
     <g id="line2d_14">
      <g>
       <use style="stroke:#000000;stroke-width:0.8;" x="413.777045" xlink:href="#mea5ff4d900" y="309.6"/>
      </g>
     </g>
     <g id="text_7">
      <!-- 60 -->
      <g transform="translate(404.879545 328.0525)scale(0.16 -0.16)">
       <defs>
        <path d="M 3184 3459 
L 2625 3416 
Q 2550 3747 2413 3897 
Q 2184 4138 1850 4138 
Q 1581 4138 1378 3988 
Q 1113 3794 959 3422 
Q 806 3050 800 2363 
Q 1003 2672 1297 2822 
Q 1591 2972 1913 2972 
Q 2475 2972 2870 2558 
Q 3266 2144 3266 1488 
Q 3266 1056 3080 686 
Q 2894 316 2569 119 
Q 2244 -78 1831 -78 
Q 1128 -78 684 439 
Q 241 956 241 2144 
Q 241 3472 731 4075 
Q 1159 4600 1884 4600 
Q 2425 4600 2770 4297 
Q 3116 3994 3184 3459 
z
M 888 1484 
Q 888 1194 1011 928 
Q 1134 663 1356 523 
Q 1578 384 1822 384 
Q 2178 384 2434 671 
Q 2691 959 2691 1453 
Q 2691 1928 2437 2201 
Q 2184 2475 1800 2475 
Q 1419 2475 1153 2201 
Q 888 1928 888 1484 
z
" id="ArialMT-36" transform="scale(0.015625)"/>
       </defs>
       <use xlink:href="#ArialMT-36"/>
       <use x="55.615234" xlink:href="#ArialMT-30"/>
      </g>
     </g>
    </g>
    <g id="text_8">
     <!-- Episode -->
     <g transform="translate(220.41375 346.685)scale(0.16 -0.16)">
      <defs>
       <path d="M 506 0 
L 506 4581 
L 3819 4581 
L 3819 4041 
L 1113 4041 
L 1113 2638 
L 3647 2638 
L 3647 2100 
L 1113 2100 
L 1113 541 
L 3925 541 
L 3925 0 
L 506 0 
z
" id="ArialMT-45" transform="scale(0.015625)"/>
       <path d="M 422 -1272 
L 422 3319 
L 934 3319 
L 934 2888 
Q 1116 3141 1344 3267 
Q 1572 3394 1897 3394 
Q 2322 3394 2647 3175 
Q 2972 2956 3137 2557 
Q 3303 2159 3303 1684 
Q 3303 1175 3120 767 
Q 2938 359 2589 142 
Q 2241 -75 1856 -75 
Q 1575 -75 1351 44 
Q 1128 163 984 344 
L 984 -1272 
L 422 -1272 
z
M 931 1641 
Q 931 1000 1190 694 
Q 1450 388 1819 388 
Q 2194 388 2461 705 
Q 2728 1022 2728 1688 
Q 2728 2322 2467 2637 
Q 2206 2953 1844 2953 
Q 1484 2953 1207 2617 
Q 931 2281 931 1641 
z
" id="ArialMT-70" transform="scale(0.015625)"/>
       <path d="M 425 3934 
L 425 4581 
L 988 4581 
L 988 3934 
L 425 3934 
z
M 425 0 
L 425 3319 
L 988 3319 
L 988 0 
L 425 0 
z
" id="ArialMT-69" transform="scale(0.015625)"/>
       <path d="M 197 991 
L 753 1078 
Q 800 744 1014 566 
Q 1228 388 1613 388 
Q 2000 388 2187 545 
Q 2375 703 2375 916 
Q 2375 1106 2209 1216 
Q 2094 1291 1634 1406 
Q 1016 1563 777 1677 
Q 538 1791 414 1992 
Q 291 2194 291 2438 
Q 291 2659 392 2848 
Q 494 3038 669 3163 
Q 800 3259 1026 3326 
Q 1253 3394 1513 3394 
Q 1903 3394 2198 3281 
Q 2494 3169 2634 2976 
Q 2775 2784 2828 2463 
L 2278 2388 
Q 2241 2644 2061 2787 
Q 1881 2931 1553 2931 
Q 1166 2931 1000 2803 
Q 834 2675 834 2503 
Q 834 2394 903 2306 
Q 972 2216 1119 2156 
Q 1203 2125 1616 2013 
Q 2213 1853 2448 1751 
Q 2684 1650 2818 1456 
Q 2953 1263 2953 975 
Q 2953 694 2789 445 
Q 2625 197 2315 61 
Q 2006 -75 1616 -75 
Q 969 -75 630 194 
Q 291 463 197 991 
z
" id="ArialMT-73" transform="scale(0.015625)"/>
       <path d="M 213 1659 
Q 213 2581 725 3025 
Q 1153 3394 1769 3394 
Q 2453 3394 2887 2945 
Q 3322 2497 3322 1706 
Q 3322 1066 3130 698 
Q 2938 331 2570 128 
Q 2203 -75 1769 -75 
Q 1072 -75 642 372 
Q 213 819 213 1659 
z
M 791 1659 
Q 791 1022 1069 705 
Q 1347 388 1769 388 
Q 2188 388 2466 706 
Q 2744 1025 2744 1678 
Q 2744 2294 2464 2611 
Q 2184 2928 1769 2928 
Q 1347 2928 1069 2612 
Q 791 2297 791 1659 
z
" id="ArialMT-6f" transform="scale(0.015625)"/>
       <path d="M 2575 0 
L 2575 419 
Q 2259 -75 1647 -75 
Q 1250 -75 917 144 
Q 584 363 401 755 
Q 219 1147 219 1656 
Q 219 2153 384 2558 
Q 550 2963 881 3178 
Q 1213 3394 1622 3394 
Q 1922 3394 2156 3267 
Q 2391 3141 2538 2938 
L 2538 4581 
L 3097 4581 
L 3097 0 
L 2575 0 
z
M 797 1656 
Q 797 1019 1065 703 
Q 1334 388 1700 388 
Q 2069 388 2326 689 
Q 2584 991 2584 1609 
Q 2584 2291 2321 2609 
Q 2059 2928 1675 2928 
Q 1300 2928 1048 2622 
Q 797 2316 797 1656 
z
" id="ArialMT-64" transform="scale(0.015625)"/>
       <path d="M 2694 1069 
L 3275 997 
Q 3138 488 2766 206 
Q 2394 -75 1816 -75 
Q 1088 -75 661 373 
Q 234 822 234 1631 
Q 234 2469 665 2931 
Q 1097 3394 1784 3394 
Q 2450 3394 2872 2941 
Q 3294 2488 3294 1666 
Q 3294 1616 3291 1516 
L 816 1516 
Q 847 969 1125 678 
Q 1403 388 1819 388 
Q 2128 388 2347 550 
Q 2566 713 2694 1069 
z
M 847 1978 
L 2700 1978 
Q 2663 2397 2488 2606 
Q 2219 2931 1791 2931 
Q 1403 2931 1139 2672 
Q 875 2413 847 1978 
z
" id="ArialMT-65" transform="scale(0.015625)"/>
      </defs>
      <use xlink:href="#ArialMT-45"/>
      <use x="66.699219" xlink:href="#ArialMT-70"/>
      <use x="122.314453" xlink:href="#ArialMT-69"/>
      <use x="144.53125" xlink:href="#ArialMT-73"/>
      <use x="194.53125" xlink:href="#ArialMT-6f"/>
      <use x="250.146484" xlink:href="#ArialMT-64"/>
      <use x="305.761719" xlink:href="#ArialMT-65"/>
     </g>
    </g>
   </g>
   <g id="matplotlib.axis_2">
    <g id="ytick_1">
     <g id="line2d_15">
      <path clip-path="url(#pf7d6d5d51b)" d="M 68.4225 275.292819 
L 430.2225 275.292819 
" style="fill:none;stroke:#b0b0b0;stroke-linecap:square;stroke-width:0.8;"/>
     </g>
     <g id="line2d_16">
      <defs>
       <path d="M 0 0 
L -3.5 0 
" id="m8d55bdad09" style="stroke:#000000;stroke-width:0.8;"/>
      </defs>
      <g>
       <use style="stroke:#000000;stroke-width:0.8;" x="68.4225" xlink:href="#m8d55bdad09" y="275.292819"/>
      </g>
     </g>
     <g id="text_9">
      <!-- 500 -->
      <g transform="translate(34.73 281.019069)scale(0.16 -0.16)">
       <use xlink:href="#ArialMT-35"/>
       <use x="55.615234" xlink:href="#ArialMT-30"/>
       <use x="111.230469" xlink:href="#ArialMT-30"/>
      </g>
     </g>
    </g>
    <g id="ytick_2">
     <g id="line2d_17">
      <path clip-path="url(#pf7d6d5d51b)" d="M 68.4225 215.865865 
L 430.2225 215.865865 
" style="fill:none;stroke:#b0b0b0;stroke-linecap:square;stroke-width:0.8;"/>
     </g>
     <g id="line2d_18">
      <g>
       <use style="stroke:#000000;stroke-width:0.8;" x="68.4225" xlink:href="#m8d55bdad09" y="215.865865"/>
      </g>
     </g>
     <g id="text_10">
      <!-- 1000 -->
      <g transform="translate(25.8325 221.592115)scale(0.16 -0.16)">
       <use xlink:href="#ArialMT-31"/>
       <use x="55.615234" xlink:href="#ArialMT-30"/>
       <use x="111.230469" xlink:href="#ArialMT-30"/>
       <use x="166.845703" xlink:href="#ArialMT-30"/>
      </g>
     </g>
    </g>
    <g id="ytick_3">
     <g id="line2d_19">
      <path clip-path="url(#pf7d6d5d51b)" d="M 68.4225 156.438911 
L 430.2225 156.438911 
" style="fill:none;stroke:#b0b0b0;stroke-linecap:square;stroke-width:0.8;"/>
     </g>
     <g id="line2d_20">
      <g>
       <use style="stroke:#000000;stroke-width:0.8;" x="68.4225" xlink:href="#m8d55bdad09" y="156.438911"/>
      </g>
     </g>
     <g id="text_11">
      <!-- 1500 -->
      <g transform="translate(25.8325 162.165161)scale(0.16 -0.16)">
       <use xlink:href="#ArialMT-31"/>
       <use x="55.615234" xlink:href="#ArialMT-35"/>
       <use x="111.230469" xlink:href="#ArialMT-30"/>
       <use x="166.845703" xlink:href="#ArialMT-30"/>
      </g>
     </g>
    </g>
    <g id="ytick_4">
     <g id="line2d_21">
      <path clip-path="url(#pf7d6d5d51b)" d="M 68.4225 97.011956 
L 430.2225 97.011956 
" style="fill:none;stroke:#b0b0b0;stroke-linecap:square;stroke-width:0.8;"/>
     </g>
     <g id="line2d_22">
      <g>
       <use style="stroke:#000000;stroke-width:0.8;" x="68.4225" xlink:href="#m8d55bdad09" y="97.011956"/>
      </g>
     </g>
     <g id="text_12">
      <!-- 2000 -->
      <g transform="translate(25.8325 102.738206)scale(0.16 -0.16)">
       <use xlink:href="#ArialMT-32"/>
       <use x="55.615234" xlink:href="#ArialMT-30"/>
       <use x="111.230469" xlink:href="#ArialMT-30"/>
       <use x="166.845703" xlink:href="#ArialMT-30"/>
      </g>
     </g>
    </g>
    <g id="ytick_5">
     <g id="line2d_23">
      <path clip-path="url(#pf7d6d5d51b)" d="M 68.4225 37.585002 
L 430.2225 37.585002 
" style="fill:none;stroke:#b0b0b0;stroke-linecap:square;stroke-width:0.8;"/>
     </g>
     <g id="line2d_24">
      <g>
       <use style="stroke:#000000;stroke-width:0.8;" x="68.4225" xlink:href="#m8d55bdad09" y="37.585002"/>
      </g>
     </g>
     <g id="text_13">
      <!-- 2500 -->
      <g transform="translate(25.8325 43.311252)scale(0.16 -0.16)">
       <use xlink:href="#ArialMT-32"/>
       <use x="55.615234" xlink:href="#ArialMT-35"/>
       <use x="111.230469" xlink:href="#ArialMT-30"/>
       <use x="166.845703" xlink:href="#ArialMT-30"/>
      </g>
     </g>
    </g>
    <g id="text_14">
     <!-- Collective return -->
     <g transform="translate(18.6525 216.1975)rotate(-90)scale(0.16 -0.16)">
      <defs>
       <path d="M 3763 1606 
L 4369 1453 
Q 4178 706 3683 314 
Q 3188 -78 2472 -78 
Q 1731 -78 1267 223 
Q 803 525 561 1097 
Q 319 1669 319 2325 
Q 319 3041 592 3573 
Q 866 4106 1370 4382 
Q 1875 4659 2481 4659 
Q 3169 4659 3637 4309 
Q 4106 3959 4291 3325 
L 3694 3184 
Q 3534 3684 3231 3912 
Q 2928 4141 2469 4141 
Q 1941 4141 1586 3887 
Q 1231 3634 1087 3207 
Q 944 2781 944 2328 
Q 944 1744 1114 1308 
Q 1284 872 1643 656 
Q 2003 441 2422 441 
Q 2931 441 3284 734 
Q 3638 1028 3763 1606 
z
" id="ArialMT-43" transform="scale(0.015625)"/>
       <path d="M 409 0 
L 409 4581 
L 972 4581 
L 972 0 
L 409 0 
z
" id="ArialMT-6c" transform="scale(0.015625)"/>
       <path d="M 2588 1216 
L 3141 1144 
Q 3050 572 2676 248 
Q 2303 -75 1759 -75 
Q 1078 -75 664 370 
Q 250 816 250 1647 
Q 250 2184 428 2587 
Q 606 2991 970 3192 
Q 1334 3394 1763 3394 
Q 2303 3394 2647 3120 
Q 2991 2847 3088 2344 
L 2541 2259 
Q 2463 2594 2264 2762 
Q 2066 2931 1784 2931 
Q 1359 2931 1093 2626 
Q 828 2322 828 1663 
Q 828 994 1084 691 
Q 1341 388 1753 388 
Q 2084 388 2306 591 
Q 2528 794 2588 1216 
z
" id="ArialMT-63" transform="scale(0.015625)"/>
       <path d="M 1650 503 
L 1731 6 
Q 1494 -44 1306 -44 
Q 1000 -44 831 53 
Q 663 150 594 308 
Q 525 466 525 972 
L 525 2881 
L 113 2881 
L 113 3319 
L 525 3319 
L 525 4141 
L 1084 4478 
L 1084 3319 
L 1650 3319 
L 1650 2881 
L 1084 2881 
L 1084 941 
Q 1084 700 1114 631 
Q 1144 563 1211 522 
Q 1278 481 1403 481 
Q 1497 481 1650 503 
z
" id="ArialMT-74" transform="scale(0.015625)"/>
       <path d="M 1344 0 
L 81 3319 
L 675 3319 
L 1388 1331 
Q 1503 1009 1600 663 
Q 1675 925 1809 1294 
L 2547 3319 
L 3125 3319 
L 1869 0 
L 1344 0 
z
" id="ArialMT-76" transform="scale(0.015625)"/>
       <path id="ArialMT-20" transform="scale(0.015625)"/>
       <path d="M 416 0 
L 416 3319 
L 922 3319 
L 922 2816 
Q 1116 3169 1280 3281 
Q 1444 3394 1641 3394 
Q 1925 3394 2219 3213 
L 2025 2691 
Q 1819 2813 1613 2813 
Q 1428 2813 1281 2702 
Q 1134 2591 1072 2394 
Q 978 2094 978 1738 
L 978 0 
L 416 0 
z
" id="ArialMT-72" transform="scale(0.015625)"/>
       <path d="M 2597 0 
L 2597 488 
Q 2209 -75 1544 -75 
Q 1250 -75 995 37 
Q 741 150 617 320 
Q 494 491 444 738 
Q 409 903 409 1263 
L 409 3319 
L 972 3319 
L 972 1478 
Q 972 1038 1006 884 
Q 1059 663 1231 536 
Q 1403 409 1656 409 
Q 1909 409 2131 539 
Q 2353 669 2445 892 
Q 2538 1116 2538 1541 
L 2538 3319 
L 3100 3319 
L 3100 0 
L 2597 0 
z
" id="ArialMT-75" transform="scale(0.015625)"/>
       <path d="M 422 0 
L 422 3319 
L 928 3319 
L 928 2847 
Q 1294 3394 1984 3394 
Q 2284 3394 2536 3286 
Q 2788 3178 2913 3003 
Q 3038 2828 3088 2588 
Q 3119 2431 3119 2041 
L 3119 0 
L 2556 0 
L 2556 2019 
Q 2556 2363 2490 2533 
Q 2425 2703 2258 2804 
Q 2091 2906 1866 2906 
Q 1506 2906 1245 2678 
Q 984 2450 984 1813 
L 984 0 
L 422 0 
z
" id="ArialMT-6e" transform="scale(0.015625)"/>
      </defs>
      <use xlink:href="#ArialMT-43"/>
      <use x="72.216797" xlink:href="#ArialMT-6f"/>
      <use x="127.832031" xlink:href="#ArialMT-6c"/>
      <use x="150.048828" xlink:href="#ArialMT-6c"/>
      <use x="172.265625" xlink:href="#ArialMT-65"/>
      <use x="227.880859" xlink:href="#ArialMT-63"/>
      <use x="277.880859" xlink:href="#ArialMT-74"/>
      <use x="305.664062" xlink:href="#ArialMT-69"/>
      <use x="327.880859" xlink:href="#ArialMT-76"/>
      <use x="377.880859" xlink:href="#ArialMT-65"/>
      <use x="433.496094" xlink:href="#ArialMT-20"/>
      <use x="461.279297" xlink:href="#ArialMT-72"/>
      <use x="494.580078" xlink:href="#ArialMT-65"/>
      <use x="550.195312" xlink:href="#ArialMT-74"/>
      <use x="577.978516" xlink:href="#ArialMT-75"/>
      <use x="633.59375" xlink:href="#ArialMT-72"/>
      <use x="666.894531" xlink:href="#ArialMT-6e"/>
     </g>
    </g>
   </g>
   <g id="line2d_25">
    <path clip-path="url(#pf7d6d5d51b)" d="M 84.867955 262.337743 
L 90.349773 264.239406 
L 95.831591 274.460842 
L 101.313409 266.259922 
L 106.795227 257.583587 
L 112.277045 252.591723 
L 117.758864 248.312982 
L 123.240682 243.558826 
L 128.7225 251.522037 
L 134.204318 243.558826 
L 139.686136 242.964556 
L 145.167955 215.984719 
L 150.649773 219.312628 
L 156.131591 221.80856 
L 161.613409 213.607641 
L 167.095227 204.812451 
L 172.577045 215.865865 
L 178.058864 203.148497 
L 183.540682 220.382313 
L 189.0225 212.181394 
L 194.504318 203.386204 
L 199.986136 217.054404 
L 205.467955 197.324655 
L 210.949773 173.197312 
L 216.431591 168.324301 
L 221.913409 167.848886 
L 227.395227 172.603042 
L 232.877045 160.717651 
L 238.358864 186.152388 
L 243.840682 204.218182 
L 249.3225 186.390096 
L 254.804318 196.136116 
L 260.286136 194.947577 
L 265.767955 170.344818 
L 271.249773 145.860913 
L 276.731591 162.50046 
L 282.213409 218.956067 
L 287.695227 192.808207 
L 293.177045 202.791935 
L 298.658864 178.189176 
L 304.140682 182.467917 
L 309.6225 171.771065 
L 315.104318 184.963849 
L 320.586136 170.70138 
L 326.067955 166.541493 
L 331.549773 170.582526 
L 337.031591 147.168306 
L 342.513409 163.451291 
L 347.995227 168.086594 
L 353.477045 134.569791 
L 358.958864 139.680509 
L 364.440682 146.930598 
L 369.9225 180.4474 
L 375.404318 145.979767 
L 380.886136 164.164415 
L 386.367955 160.242236 
L 391.849773 152.754439 
L 397.331591 145.028935 
L 402.813409 153.942978 
L 408.295227 147.406013 
L 413.777045 154.537248 
" style="fill:none;stroke:#ff8c00;stroke-linecap:square;stroke-width:1.1;"/>
   </g>
   <g id="line2d_26">
    <path clip-path="url(#pf7d6d5d51b)" d="M 84.867955 270.182101 
L 90.349773 252.472869 
L 95.831591 234.169367 
L 101.313409 205.644429 
L 106.795227 185.201556 
L 112.277045 182.705624 
L 117.758864 173.553873 
L 123.240682 154.29954 
L 128.7225 135.282915 
L 134.204318 149.783092 
L 139.686136 153.111001 
L 145.167955 154.656102 
L 150.649773 139.08624 
L 156.131591 137.422285 
L 161.613409 151.5659 
L 167.095227 166.184931 
L 172.577045 131.004174 
L 178.058864 142.414149 
L 183.540682 166.541493 
L 189.0225 157.152034 
L 194.504318 151.328192 
L 199.986136 136.828016 
L 205.467955 132.668129 
L 210.949773 134.926353 
L 216.431591 140.274779 
L 221.913409 146.930598 
L 227.395227 135.164061 
L 232.877045 147.762575 
L 238.358864 136.3526 
L 243.840682 142.770711 
L 249.3225 163.094729 
L 254.804318 131.717297 
L 260.286136 152.873293 
L 265.767955 162.381606 
L 271.249773 171.771065 
L 276.731591 143.95925 
L 282.213409 148.475699 
L 287.695227 146.930598 
L 293.177045 143.721542 
L 298.658864 169.275133 
L 304.140682 137.659993 
L 309.6225 155.963495 
L 315.104318 133.737814 
L 320.586136 144.196958 
L 326.067955 118.524514 
L 331.549773 130.528758 
L 337.031591 136.709162 
L 342.513409 142.176441 
L 347.995227 151.090485 
L 353.477045 152.397878 
L 358.958864 143.008419 
L 364.440682 136.590308 
L 369.9225 140.393633 
L 375.404318 133.61896 
L 380.886136 138.967386 
L 386.367955 139.442802 
L 391.849773 146.336328 
L 397.331591 153.824125 
L 402.813409 109.967032 
L 408.295227 140.393633 
L 413.777045 179.615423 
" style="fill:none;stroke:#ff0000;stroke-linecap:square;stroke-width:1.1;"/>
   </g>
   <g id="line2d_27">
    <path clip-path="url(#pf7d6d5d51b)" d="M 84.867955 255.919632 
L 90.349773 244.628511 
L 95.831591 239.755501 
L 101.313409 234.407075 
L 106.795227 169.750548 
L 112.277045 166.660347 
L 117.758864 150.139653 
L 123.240682 144.315812 
L 128.7225 119.950761 
L 134.204318 107.4711 
L 139.686136 95.942271 
L 145.167955 85.839689 
L 150.649773 99.27018 
L 156.131591 99.983304 
L 161.613409 88.097913 
L 167.095227 101.171843 
L 172.577045 98.200495 
L 178.058864 111.274425 
L 183.540682 143.127273 
L 189.0225 97.843933 
L 194.504318 107.114538 
L 199.986136 95.466855 
L 205.467955 94.99144 
L 210.949773 96.536541 
L 216.431591 76.093668 
L 221.913409 73.003467 
L 227.395227 110.20474 
L 232.877045 67.179625 
L 238.358864 75.499399 
L 243.840682 89.405306 
L 249.3225 106.044853 
L 254.804318 86.315104 
L 260.286136 81.91751 
L 265.767955 77.401061 
L 271.249773 59.097559 
L 276.731591 54.818819 
L 282.213409 74.429713 
L 287.695227 75.737106 
L 293.177045 56.245065 
L 298.658864 53.273718 
L 304.140682 63.97057 
L 309.6225 87.265936 
L 315.104318 52.322886 
L 320.586136 70.032119 
L 326.067955 63.851716 
L 331.549773 73.478882 
L 337.031591 72.409197 
L 342.513409 68.724726 
L 347.995227 55.888504 
L 353.477045 62.544323 
L 358.958864 54.224549 
L 364.440682 83.106049 
L 369.9225 76.093668 
L 375.404318 63.614008 
L 380.886136 42.339158 
L 386.367955 54.462257 
L 391.849773 66.228794 
L 397.331591 62.068907 
L 402.813409 65.159109 
L 408.295227 62.306615 
L 413.777045 51.134347 
" style="fill:none;stroke:#0000ff;stroke-linecap:square;stroke-width:1.1;"/>
   </g>
   <g id="line2d_28">
    <path clip-path="url(#pf7d6d5d51b)" d="M 84.867955 233.337389 
L 90.349773 223.472515 
L 95.831591 234.763636 
L 101.313409 236.071029 
L 106.795227 250.571206 
L 112.277045 231.316873 
L 117.758864 240.587478 
L 123.240682 222.997099 
L 128.7225 236.427591 
L 134.204318 228.107817 
L 139.686136 214.915034 
L 145.167955 209.3289 
L 150.649773 221.451999 
L 156.131591 233.575097 
L 161.613409 233.693951 
L 167.095227 224.5422 
L 172.577045 221.570852 
L 178.058864 223.947931 
L 183.540682 245.81705 
L 189.0225 233.456243 
L 194.504318 224.661054 
L 199.986136 209.3289 
L 205.467955 234.288221 
L 210.949773 233.337389 
L 216.431591 235.952175 
L 221.913409 241.300601 
L 227.395227 229.771772 
L 232.877045 232.505412 
L 238.358864 242.48914 
L 243.840682 227.988964 
L 249.3225 234.050513 
L 254.804318 210.874001 
L 260.286136 225.493031 
L 265.767955 244.271949 
L 271.249773 218.361797 
L 276.731591 231.435727 
L 282.213409 240.468624 
L 287.695227 226.562717 
L 293.177045 233.575097 
L 298.658864 224.898762 
L 304.140682 220.501167 
L 309.6225 240.825186 
L 315.104318 217.767527 
L 320.586136 222.878245 
L 326.067955 224.661054 
L 331.549773 234.050513 
L 337.031591 238.2104 
L 342.513409 207.427237 
L 347.995227 233.099682 
L 353.477045 220.738875 
L 358.958864 236.308737 
L 364.440682 236.427591 
L 369.9225 233.812805 
L 375.404318 233.693951 
L 380.886136 227.632402 
L 386.367955 229.177503 
L 391.849773 216.341281 
L 397.331591 230.960311 
L 402.813409 226.562717 
L 408.295227 245.341634 
L 413.777045 230.128334 
" style="fill:none;stroke:#2f4f4f;stroke-linecap:square;stroke-width:1.1;"/>
   </g>
   <g id="patch_3">
    <path d="M 68.4225 309.6 
L 68.4225 7.2 
" style="fill:none;stroke:#000000;stroke-linecap:square;stroke-linejoin:miter;stroke-width:0.8;"/>
   </g>
   <g id="patch_4">
    <path d="M 430.2225 309.6 
L 430.2225 7.2 
" style="fill:none;stroke:#000000;stroke-linecap:square;stroke-linejoin:miter;stroke-width:0.8;"/>
   </g>
   <g id="patch_5">
    <path d="M 68.4225 309.6 
L 430.2225 309.6 
" style="fill:none;stroke:#000000;stroke-linecap:square;stroke-linejoin:miter;stroke-width:0.8;"/>
   </g>
   <g id="patch_6">
    <path d="M 68.4225 7.2 
L 430.2225 7.2 
" style="fill:none;stroke:#000000;stroke-linecap:square;stroke-linejoin:miter;stroke-width:0.8;"/>
   </g>
   <g id="legend_1">
    <g id="patch_7">
     <path d="M 435.8405 309.6 
L 554.562375 309.6 
Q 556.562375 309.6 556.562375 307.6 
L 556.562375 251.667187 
Q 556.562375 249.667187 554.562375 249.667187 
L 435.8405 249.667187 
Q 433.8405 249.667187 433.8405 251.667187 
L 433.8405 307.6 
Q 433.8405 309.6 435.8405 309.6 
z
" style="fill:#ffffff;opacity:0.8;stroke:#cccccc;stroke-linejoin:miter;"/>
    </g>
    <g id="line2d_29">
     <path d="M 437.8405 257.325 
L 457.8405 257.325 
" style="fill:none;stroke:#ff8c00;stroke-linecap:square;stroke-width:1.1;"/>
    </g>
    <g id="line2d_30"/>
    <g id="text_15">
     <!-- Homogeneous low -->
     <g transform="translate(465.8405 260.825)scale(0.1 -0.1)">
      <defs>
       <path d="M 513 0 
L 513 4581 
L 1119 4581 
L 1119 2700 
L 3500 2700 
L 3500 4581 
L 4106 4581 
L 4106 0 
L 3500 0 
L 3500 2159 
L 1119 2159 
L 1119 0 
L 513 0 
z
" id="ArialMT-48" transform="scale(0.015625)"/>
       <path d="M 422 0 
L 422 3319 
L 925 3319 
L 925 2853 
Q 1081 3097 1340 3245 
Q 1600 3394 1931 3394 
Q 2300 3394 2536 3241 
Q 2772 3088 2869 2813 
Q 3263 3394 3894 3394 
Q 4388 3394 4653 3120 
Q 4919 2847 4919 2278 
L 4919 0 
L 4359 0 
L 4359 2091 
Q 4359 2428 4304 2576 
Q 4250 2725 4106 2815 
Q 3963 2906 3769 2906 
Q 3419 2906 3187 2673 
Q 2956 2441 2956 1928 
L 2956 0 
L 2394 0 
L 2394 2156 
Q 2394 2531 2256 2718 
Q 2119 2906 1806 2906 
Q 1569 2906 1367 2781 
Q 1166 2656 1075 2415 
Q 984 2175 984 1722 
L 984 0 
L 422 0 
z
" id="ArialMT-6d" transform="scale(0.015625)"/>
       <path d="M 319 -275 
L 866 -356 
Q 900 -609 1056 -725 
Q 1266 -881 1628 -881 
Q 2019 -881 2231 -725 
Q 2444 -569 2519 -288 
Q 2563 -116 2559 434 
Q 2191 0 1641 0 
Q 956 0 581 494 
Q 206 988 206 1678 
Q 206 2153 378 2554 
Q 550 2956 876 3175 
Q 1203 3394 1644 3394 
Q 2231 3394 2613 2919 
L 2613 3319 
L 3131 3319 
L 3131 450 
Q 3131 -325 2973 -648 
Q 2816 -972 2473 -1159 
Q 2131 -1347 1631 -1347 
Q 1038 -1347 672 -1080 
Q 306 -813 319 -275 
z
M 784 1719 
Q 784 1066 1043 766 
Q 1303 466 1694 466 
Q 2081 466 2343 764 
Q 2606 1063 2606 1700 
Q 2606 2309 2336 2618 
Q 2066 2928 1684 2928 
Q 1309 2928 1046 2623 
Q 784 2319 784 1719 
z
" id="ArialMT-67" transform="scale(0.015625)"/>
       <path d="M 1034 0 
L 19 3319 
L 600 3319 
L 1128 1403 
L 1325 691 
Q 1338 744 1497 1375 
L 2025 3319 
L 2603 3319 
L 3100 1394 
L 3266 759 
L 3456 1400 
L 4025 3319 
L 4572 3319 
L 3534 0 
L 2950 0 
L 2422 1988 
L 2294 2553 
L 1622 0 
L 1034 0 
z
" id="ArialMT-77" transform="scale(0.015625)"/>
      </defs>
      <use xlink:href="#ArialMT-48"/>
      <use x="72.216797" xlink:href="#ArialMT-6f"/>
      <use x="127.832031" xlink:href="#ArialMT-6d"/>
      <use x="211.132812" xlink:href="#ArialMT-6f"/>
      <use x="266.748047" xlink:href="#ArialMT-67"/>
      <use x="322.363281" xlink:href="#ArialMT-65"/>
      <use x="377.978516" xlink:href="#ArialMT-6e"/>
      <use x="433.59375" xlink:href="#ArialMT-65"/>
      <use x="489.208984" xlink:href="#ArialMT-6f"/>
      <use x="544.824219" xlink:href="#ArialMT-75"/>
      <use x="600.439453" xlink:href="#ArialMT-73"/>
      <use x="650.439453" xlink:href="#ArialMT-20"/>
      <use x="678.222656" xlink:href="#ArialMT-6c"/>
      <use x="700.439453" xlink:href="#ArialMT-6f"/>
      <use x="756.054688" xlink:href="#ArialMT-77"/>
     </g>
    </g>
    <g id="line2d_31">
     <path d="M 437.8405 271.5875 
L 457.8405 271.5875 
" style="fill:none;stroke:#ff0000;stroke-linecap:square;stroke-width:1.1;"/>
    </g>
    <g id="line2d_32"/>
    <g id="text_16">
     <!-- Homogeneous high -->
     <g transform="translate(465.8405 275.0875)scale(0.1 -0.1)">
      <defs>
       <path d="M 422 0 
L 422 4581 
L 984 4581 
L 984 2938 
Q 1378 3394 1978 3394 
Q 2347 3394 2619 3248 
Q 2891 3103 3008 2847 
Q 3125 2591 3125 2103 
L 3125 0 
L 2563 0 
L 2563 2103 
Q 2563 2525 2380 2717 
Q 2197 2909 1863 2909 
Q 1613 2909 1392 2779 
Q 1172 2650 1078 2428 
Q 984 2206 984 1816 
L 984 0 
L 422 0 
z
" id="ArialMT-68" transform="scale(0.015625)"/>
      </defs>
      <use xlink:href="#ArialMT-48"/>
      <use x="72.216797" xlink:href="#ArialMT-6f"/>
      <use x="127.832031" xlink:href="#ArialMT-6d"/>
      <use x="211.132812" xlink:href="#ArialMT-6f"/>
      <use x="266.748047" xlink:href="#ArialMT-67"/>
      <use x="322.363281" xlink:href="#ArialMT-65"/>
      <use x="377.978516" xlink:href="#ArialMT-6e"/>
      <use x="433.59375" xlink:href="#ArialMT-65"/>
      <use x="489.208984" xlink:href="#ArialMT-6f"/>
      <use x="544.824219" xlink:href="#ArialMT-75"/>
      <use x="600.439453" xlink:href="#ArialMT-73"/>
      <use x="650.439453" xlink:href="#ArialMT-20"/>
      <use x="678.222656" xlink:href="#ArialMT-68"/>
      <use x="733.837891" xlink:href="#ArialMT-69"/>
      <use x="756.054688" xlink:href="#ArialMT-67"/>
      <use x="811.669922" xlink:href="#ArialMT-68"/>
     </g>
    </g>
    <g id="line2d_33">
     <path d="M 437.8405 285.85 
L 457.8405 285.85 
" style="fill:none;stroke:#0000ff;stroke-linecap:square;stroke-width:1.1;"/>
    </g>
    <g id="line2d_34"/>
    <g id="text_17">
     <!-- Heterogeneous -->
     <g transform="translate(465.8405 289.35)scale(0.1 -0.1)">
      <use xlink:href="#ArialMT-48"/>
      <use x="72.216797" xlink:href="#ArialMT-65"/>
      <use x="127.832031" xlink:href="#ArialMT-74"/>
      <use x="155.615234" xlink:href="#ArialMT-65"/>
      <use x="211.230469" xlink:href="#ArialMT-72"/>
      <use x="244.53125" xlink:href="#ArialMT-6f"/>
      <use x="300.146484" xlink:href="#ArialMT-67"/>
      <use x="355.761719" xlink:href="#ArialMT-65"/>
      <use x="411.376953" xlink:href="#ArialMT-6e"/>
      <use x="466.992188" xlink:href="#ArialMT-65"/>
      <use x="522.607422" xlink:href="#ArialMT-6f"/>
      <use x="578.222656" xlink:href="#ArialMT-75"/>
      <use x="633.837891" xlink:href="#ArialMT-73"/>
     </g>
    </g>
    <g id="line2d_35">
     <path d="M 437.8405 300.1125 
L 457.8405 300.1125 
" style="fill:none;stroke:#2f4f4f;stroke-linecap:square;stroke-width:1.1;"/>
    </g>
    <g id="line2d_36"/>
    <g id="text_18">
     <!-- Random action -->
     <g transform="translate(465.8405 303.6125)scale(0.1 -0.1)">
      <defs>
       <path d="M 503 0 
L 503 4581 
L 2534 4581 
Q 3147 4581 3465 4457 
Q 3784 4334 3975 4021 
Q 4166 3709 4166 3331 
Q 4166 2844 3850 2509 
Q 3534 2175 2875 2084 
Q 3116 1969 3241 1856 
Q 3506 1613 3744 1247 
L 4541 0 
L 3778 0 
L 3172 953 
Q 2906 1366 2734 1584 
Q 2563 1803 2427 1890 
Q 2291 1978 2150 2013 
Q 2047 2034 1813 2034 
L 1109 2034 
L 1109 0 
L 503 0 
z
M 1109 2559 
L 2413 2559 
Q 2828 2559 3062 2645 
Q 3297 2731 3419 2920 
Q 3541 3109 3541 3331 
Q 3541 3656 3305 3865 
Q 3069 4075 2559 4075 
L 1109 4075 
L 1109 2559 
z
" id="ArialMT-52" transform="scale(0.015625)"/>
       <path d="M 2588 409 
Q 2275 144 1986 34 
Q 1697 -75 1366 -75 
Q 819 -75 525 192 
Q 231 459 231 875 
Q 231 1119 342 1320 
Q 453 1522 633 1644 
Q 813 1766 1038 1828 
Q 1203 1872 1538 1913 
Q 2219 1994 2541 2106 
Q 2544 2222 2544 2253 
Q 2544 2597 2384 2738 
Q 2169 2928 1744 2928 
Q 1347 2928 1158 2789 
Q 969 2650 878 2297 
L 328 2372 
Q 403 2725 575 2942 
Q 747 3159 1072 3276 
Q 1397 3394 1825 3394 
Q 2250 3394 2515 3294 
Q 2781 3194 2906 3042 
Q 3031 2891 3081 2659 
Q 3109 2516 3109 2141 
L 3109 1391 
Q 3109 606 3145 398 
Q 3181 191 3288 0 
L 2700 0 
Q 2613 175 2588 409 
z
M 2541 1666 
Q 2234 1541 1622 1453 
Q 1275 1403 1131 1340 
Q 988 1278 909 1158 
Q 831 1038 831 891 
Q 831 666 1001 516 
Q 1172 366 1500 366 
Q 1825 366 2078 508 
Q 2331 650 2450 897 
Q 2541 1088 2541 1459 
L 2541 1666 
z
" id="ArialMT-61" transform="scale(0.015625)"/>
      </defs>
      <use xlink:href="#ArialMT-52"/>
      <use x="72.216797" xlink:href="#ArialMT-61"/>
      <use x="127.832031" xlink:href="#ArialMT-6e"/>
      <use x="183.447266" xlink:href="#ArialMT-64"/>
      <use x="239.0625" xlink:href="#ArialMT-6f"/>
      <use x="294.677734" xlink:href="#ArialMT-6d"/>
      <use x="377.978516" xlink:href="#ArialMT-20"/>
      <use x="405.761719" xlink:href="#ArialMT-61"/>
      <use x="461.376953" xlink:href="#ArialMT-63"/>
      <use x="511.376953" xlink:href="#ArialMT-74"/>
      <use x="539.160156" xlink:href="#ArialMT-69"/>
      <use x="561.376953" xlink:href="#ArialMT-6f"/>
      <use x="616.992188" xlink:href="#ArialMT-6e"/>
     </g>
    </g>
   </g>
  </g>
 </g>
 <defs>
  <clipPath id="pf7d6d5d51b">
   <rect height="302.4" width="361.8" x="68.4225" y="7.2"/>
  </clipPath>
 </defs>
</svg>
